SplineFontDB: 3.2
FontName: HermesEWD
FullName: HermesEWD
FamilyName: HermesEWD
Weight: Regular
Copyright: Copyright (c) 2019, Darren W Ringer
UComments: "2019-8-15: Created with FontForge (http://fontforge.org)"
Version: 001.000
ItalicAngle: 0
UnderlinePosition: -102
UnderlineWidth: 51
Ascent: 832
Descent: 192
InvalidEm: 0
LayerCount: 2
Layer: 0 0 "Back" 1
Layer: 1 0 "Fore" 0
XUID: [1021 853 803897625 19241]
StyleMap: 0x0000
FSType: 0
OS2Version: 0
OS2_WeightWidthSlopeOnly: 0
OS2_UseTypoMetrics: 1
CreationTime: 1565900654
ModificationTime: 1568610449
PfmFamily: 17
TTFWeight: 400
TTFWidth: 5
LineGap: 92
VLineGap: 0
OS2TypoAscent: 0
OS2TypoAOffset: 1
OS2TypoDescent: 0
OS2TypoDOffset: 1
OS2TypoLinegap: 92
OS2WinAscent: 0
OS2WinAOffset: 1
OS2WinDescent: 0
OS2WinDOffset: 1
HheadAscent: 0
HheadAOffset: 1
HheadDescent: 0
HheadDOffset: 1
OS2Vendor: 'PfEd'
OS2CodePages: 00000009.00000000
OS2UnicodeRanges: 00000083.00000040.00000000.00000000
MarkAttachClasses: 1
DEI: 91125
Encoding: UnicodeFull
Compacted: 1
UnicodeInterp: none
NameList: AGL For New Fonts
DisplaySize: -72
AntiAlias: 1
FitToEm: 0
WinInfo: 0 21 9
BeginPrivate: 0
EndPrivate
Grid
-1357.5 1268 m 0
 -1357.5 -780 l 1024
EndSplineSet
BeginChars: 1114112 179

StartChar: A
Encoding: 65 65 0
Width: 691
VWidth: -100
Flags: HMW
HStem: 252.58 66.339<201.36 355.8> 564.619 233.415G<228.713 326.377>
DStem2: 9.96 1.966 120.84 1.966 0.27279 0.962074<26.4625 286.694 353.679 598.008> 563.04 1.966 374.28 255.037 0.293269 -0.95603<-293.269 -28.833>
LayerCount: 2
Back
Fore
SplineSet
201.360351562 318.918945312 m 1
 354.48046875 320.147460938 l 1
 299.040039062 554.791015625 l 1
 264.719726562 554.791015625 l 1
 201.360351562 318.918945312 l 1
190.799804688 252.580078125 m 1
 120.83984375 1.9658203125 l 1
 9.9599609375 1.9658203125 l 1
 235.6796875 798.034179688 l 1
 318.83984375 798.034179688 l 1
 563.040039062 1.9658203125 l 1
 450.83984375 1.9658203125 l 1
 374.280273438 255.037109375 l 1
 190.799804688 252.580078125 l 1
EndSplineSet
Validated: 1
EndChar

StartChar: B
Encoding: 66 66 1
Width: 691
VWidth: -100
Flags: HW
HStem: 1.8518 89.6805<205.28 432.32> 385.144 93.366<205.28 419.12> 718.067 81.081<23.1564 105.064 203.96 433.64>
VStem: 104.96 100.32<91.5323 385.144 478.51 683.669> 485.12 81.84<486.074 651.728> 491.72 91.08<166.471 328.633>
LayerCount: 2
Back
Fore
SplineSet
205.280273438 91.5322265625 m 9xf4
 432.3203125 86.619140625 l 2
 432.3203125 86.619140625 459.166992188 100.130859375 470.599609375 114.873046875 c 24
 481.607421875 130.84375 491.719726562 166.470703125 491.719726562 166.470703125 c 2
 491.719726562 328.6328125 l 2
 491.719726562 328.6328125 494.360351562 353.203125 470.599609375 371.629882812 c 0
 444.747070312 391.681640625 419.120117188 385.143554688 419.120117188 385.143554688 c 14
 205.280273438 385.143554688 l 5
 205.280273438 385.143554688 205.280273438 91.5322265625 205.280273438 91.5322265625 c 9xf4
203.959960938 699.639648438 m 1
 203.959960938 478.509765625 l 1
 427.040039062 478.509765625 l 1
 459.100585938 478.509765625 485.120117188 501.075195312 485.120117188 528.877929688 c 1
 485.120117188 689.811523438 l 2xf8
 485.120117188 689.811523438 485.120117188 699.639648438 466.639648438 711.924804688 c 0
 457.365234375 718.08984375 433.639648438 718.067382812 433.639648438 718.067382812 c 2
 231.6796875 718.067382812 l 1
 216.37890625 718.067382812 203.959960938 709.8125 203.959960938 699.639648438 c 1
15.2001953125 60.8203125 m 2
 15.2001953125 60.8203125 65.3603515625 62.0478515625 90.4404296875 69.4189453125 c 24
 104.959960938 74.333984375 105.05859375 74.333984375 104.959960938 89.0751953125 c 2
 104.959960938 683.668945312 l 2
 104.959960938 683.668945312 106.280273438 714.380859375 99.6796875 714.380859375 c 0
 73.2802734375 714.380859375 23.1201171875 718.067382812 23.1201171875 718.067382812 c 2
 21.7998046875 799.1484375 l 1
 456.080078125 799.1484375 l 2
 456.080078125 799.1484375 498.3203125 799.1484375 527.360351562 767.20703125 c 0
 567.31640625 723.258789062 566.959960938 651.727539062 566.959960938 651.727539062 c 2
 566.959960938 526.420898438 l 2xf8
 566.959960938 526.420898438 568.280273438 503.080078125 548.479492188 469.911132812 c 0
 538.446289062 453.1015625 515.479492188 430.598632812 515.479492188 430.598632812 c 1
 515.479492188 430.598632812 551.104492188 412.170898438 563 394.971679688 c 24
 577.504882812 372.858398438 582.799804688 329.861328125 582.799804688 329.861328125 c 2
 582.799804688 102.588867188 l 2xf4
 582.799804688 102.588867188 583.168945312 78.9541015625 553.759765625 47.306640625 c 0
 511.51953125 1.8515625 490.400390625 1.8515625 490.400390625 1.8515625 c 2
 21.7998046875 1.8515625 l 1
 15.2001953125 60.8203125 l 2
EndSplineSet
Validated: 37
EndChar

StartChar: C
Encoding: 67 67 2
Width: 691
VWidth: -100
Flags: HW
HStem: 2.0802 89.6805<159.549 258.847 404.047 418.567> 720.753 76.167<182.786 243.007 388.207 451.987>
VStem: 25.2072 89.76<146.277 296.92>
LayerCount: 2
Back
Fore
SplineSet
78.0068359375 718.295898438 m 0
 21.2470703125 631.072265625 25.20703125 552.448242188 25.20703125 552.448242188 c 2
 25.20703125 296.919921875 l 2
 25.20703125 296.919921875 25.20703125 155.642578125 48.966796875 113.873046875 c 0
 112.508789062 2.1689453125 200.767578125 2.080078125 200.767578125 2.080078125 c 2
 418.567382812 2.080078125 l 2
 418.567382812 2.080078125 476.647460938 3.30859375 501.727539062 24.193359375 c 24
 547.926757812 62.2763671875 592.807617188 145.814453125 592.807617188 145.814453125 c 1
 559.807617188 186.35546875 l 1
 513.607421875 185.126953125 l 1
 513.607421875 185.126953125 511.276367188 169.875 483.247070312 134.758789062 c 0
 448.926757812 91.7607421875 404.046875 91.7607421875 404.046875 91.7607421875 c 2
 258.84765625 91.7607421875 l 2
 258.84765625 91.7607421875 174.80859375 91.2900390625 154.567382812 124.9296875 c 0
 117.607421875 186.35546875 114.966796875 260.065429688 114.966796875 260.065429688 c 2
 118.926757812 565.961914062 l 2
 118.926757812 565.961914062 115.729492188 639.009765625 170.407226562 685.126953125 c 0
 212.647460938 720.752929688 243.006835938 720.752929688 243.006835938 720.752929688 c 2
 388.20703125 721.981445312 l 2
 388.20703125 721.981445312 434.098632812 719.182617188 452.88671875 704.782226562 c 0
 475.327148438 687.583007812 495.126953125 664.241210938 495.126953125 664.241210938 c 1
 545.287109375 685.126953125 l 1
 545.287109375 685.126953125 514.926757812 734.266601562 488.52734375 761.293945312 c 0
 471.563476562 778.66015625 427.194335938 796.919921875 389.52734375 796.919921875 c 2
 206.046875 796.919921875 l 26
 151.926757812 796.919921875 87.5068359375 732.89453125 78.0068359375 718.295898438 c 0
EndSplineSet
Validated: 41
EndChar

StartChar: D
Encoding: 68 68 3
Width: 691
VWidth: -100
Flags: HW
HStem: 2.086 90.909<205.199 430.919> 713.387 83.538<206.519 441.479> 739.186 57.7395<5.879 40.2848>
VStem: 108.839 96.36<92.995 712.159> 516.719 93.72<145.82 659.333>
LayerCount: 2
Back
Fore
SplineSet
205.19921875 92.994140625 m 1xd8
 401.87890625 92.994140625 l 1
 460.8984375 92.994140625 516.71875 139.225585938 516.71875 196.188476562 c 1
 516.71875 618.79296875 l 1
 516.71875 656.547851562 463.35546875 711.802734375 407.159179688 712.159179688 c 1
 206.518554688 713.387695312 l 1
 205.19921875 92.994140625 l 1xd8
4.55859375 796.924804688 m 25xb8
 441.478515625 795.697265625 l 2
 441.478515625 795.697265625 497.865234375 798.1796875 541.798828125 761.298828125 c 0
 609.119140625 704.788085938 606.478515625 659.333007812 606.478515625 659.333007812 c 2
 610.439453125 145.8203125 l 2
 610.439453125 145.8203125 612.452148438 102.239257812 553.678710938 47.541015625 c 0
 500.87890625 -1.599609375 430.918945312 2.0869140625 430.918945312 2.0869140625 c 2
 12.478515625 2.0869140625 l 25
 8.5185546875 61.0537109375 l 1
 108.838867188 92.994140625 l 1
 111.478515625 712.159179688 l 1
 5.87890625 739.186523438 l 1
 4.55859375 796.924804688 l 25xb8
EndSplineSet
Validated: 33
EndChar

StartChar: E
Encoding: 69 69 4
Width: 691
VWidth: -100
Flags: HMW
HStem: 2.1945 87.2235<90.96 494.88> 408.828 68.796<90.96 312.72> 718.41 77.3955<90.96 494.88>
VStem: 9.12 81.84<89.418 408.828 477.624 718.41>
LayerCount: 2
Back
Fore
SplineSet
9.1201171875 795.805664062 m 1
 494.879882812 795.805664062 l 1
 494.879882812 718.41015625 l 1
 90.9599609375 718.41015625 l 1
 90.9599609375 477.624023438 l 25
 312.719726562 477.624023438 l 1
 312.719726562 408.828125 l 1
 90.9599609375 408.828125 l 1
 90.9599609375 89.41796875 l 1
 494.879882812 89.41796875 l 1
 494.879882812 2.1943359375 l 1
 9.1201171875 2.1943359375 l 1
 9.1201171875 795.805664062 l 1
EndSplineSet
Validated: 1
EndChar

StartChar: F
Encoding: 70 70 5
Width: 691
VWidth: -100
Flags: HW
HStem: 2.1945 25.7985G<30.48 125.52> 410.056 68.796<125.52 339.36> 718.41 77.3955<125.52 521.52>
VStem: 30.48 95.04<2.1945 410.056 478.853 718.41>
LayerCount: 2
Back
Fore
SplineSet
30.48046875 795.805664062 m 1
 521.51953125 795.805664062 l 1
 521.51953125 718.41015625 l 25
 125.51953125 718.41015625 l 1
 125.51953125 478.852539062 l 1
 339.360351562 478.852539062 l 1
 339.360351562 410.056640625 l 1
 125.51953125 410.056640625 l 1
 125.51953125 2.1943359375 l 1
 30.48046875 2.1943359375 l 1
 30.48046875 795.805664062 l 1
EndSplineSet
Validated: 1
EndChar

StartChar: G
Encoding: 71 71 6
Width: 691
VWidth: -100
Flags: HW
HStem: 2.0802 89.6805<264.447 409.647> 272.35 89.6805<292.167 461.127> 720.753 76.167<248.607 449.746>
VStem: 30.8072 89.76<296.92 552.448> 465.087 80.52<2.0802 45.0777 98.5832 272.35>
LayerCount: 2
Back
Fore
SplineSet
409.647460938 91.7607421875 m 2
 409.647460938 91.7607421875 421.52734375 91.7607421875 426.807617188 95.4462890625 c 0
 432.086914062 99.130859375 459.807617188 102.817382812 463.767578125 107.731445312 c 25
 461.126953125 272.350585938 l 1
 292.166992188 272.350585938 l 1
 292.166992188 362.03125 l 25
 549.567382812 362.03125 l 1
 545.607421875 2.080078125 l 1
 465.086914062 2.080078125 l 1
 465.086914062 3.94140625 466.407226562 45.078125 466.407226562 45.078125 c 1
 463.767578125 41.392578125 465.213867188 23.85546875 434.727539062 11.908203125 c 0
 409.647460938 2.080078125 375.327148438 2.080078125 364.767578125 2.080078125 c 2
 206.3671875 2.080078125 l 2
 206.3671875 2.080078125 118.109375 2.1689453125 54.5673828125 113.873046875 c 0
 30.8076171875 155.642578125 30.8076171875 296.919921875 30.8076171875 296.919921875 c 2
 30.8076171875 552.448242188 l 2
 30.8076171875 552.448242188 26.84765625 631.072265625 83.607421875 718.295898438 c 0
 93.1064453125 732.89453125 157.52734375 796.919921875 211.647460938 796.919921875 c 26
 395.126953125 796.919921875 l 2
 432.793945312 796.919921875 479.802734375 782.345703125 496.767578125 764.978515625 c 10
 552.20703125 704.782226562 l 1
 494.126953125 660.556640625 l 1
 450.567382812 703.553710938 l 18
 433.407226562 719.524414062 393.807617188 721.981445312 393.807617188 721.981445312 c 2
 248.607421875 720.752929688 l 2
 248.607421875 720.752929688 218.247070312 720.752929688 176.006835938 685.126953125 c 0
 121.329101562 639.009765625 124.52734375 565.961914062 124.52734375 565.961914062 c 2
 120.567382812 260.065429688 l 2
 120.567382812 260.065429688 123.20703125 186.35546875 160.166992188 124.9296875 c 0
 180.409179688 91.2900390625 264.447265625 91.7607421875 264.447265625 91.7607421875 c 2
 409.647460938 91.7607421875 l 2
EndSplineSet
Validated: 33
EndChar

StartChar: h
Encoding: 104 104 7
Width: 691
VWidth: 0
Flags: HW
HStem: 403 83<138.444 427.906>
VStem: 55 79<0 387.482 471 750> 456 85<0 376.566>
LayerCount: 2
Back
Fore
SplineSet
231 403 m 4
 194 403 138 381 138 381 c 29
 134 0 l 5
 55 0 l 5
 55 750 l 5
 134 750 l 5
 134 471 l 5
 181 483 241 486 297 486 c 6
 438 482 l 29
 438 482 471 480 501 446 c 4
 538 404 541 373 541 373 c 29
 541 0 l 5
 456 0 l 5
 459 318 l 29
 459 318 453 363 431 379 c 4
 397 404 397 403 231 403 c 4
EndSplineSet
Validated: 33
EndChar

StartChar: H
Encoding: 72 72 8
Width: 691
VWidth: -100
Flags: HW
HStem: 1.966 25.7985G<30.7978 120.68 459.92 544.482> 409.828 68.796<120.68 459.92> 773.464 24.57G<26.96 120.68 459.92 547.04>
VStem: 30.92 89.76<1.966 409.828 478.624 798.034> 459.92 84.48<1.966 409.828 477.395 798.034>
LayerCount: 2
Back
Fore
SplineSet
26.9599609375 798.034179688 m 1
 120.6796875 798.034179688 l 1
 120.6796875 478.624023438 l 1
 459.919921875 477.395507812 l 1
 459.919921875 798.034179688 l 1
 547.040039062 798.034179688 l 1
 544.400390625 1.9658203125 l 1
 459.919921875 1.9658203125 l 1
 459.919921875 409.828125 l 1
 120.6796875 409.828125 l 1
 120.6796875 1.9658203125 l 1
 30.919921875 1.9658203125 l 1
 26.9599609375 798.034179688 l 1
EndSplineSet
Validated: 1
EndChar

StartChar: I
Encoding: 73 73 9
Width: 691
VWidth: -100
Flags: HW
HStem: 1.966 84.7665<44.4 172.44 267.48 387.6> 713.268 84.7665<44.4 172.44 267.48 387.6>
VStem: 172.44 95.04<86.7325 713.268>
LayerCount: 2
Back
Fore
SplineSet
44.400390625 798.034179688 m 1
 387.599609375 798.034179688 l 1
 387.599609375 713.267578125 l 1
 267.48046875 713.267578125 l 1
 267.48046875 86.732421875 l 1
 387.599609375 86.732421875 l 1
 387.599609375 1.9658203125 l 1
 44.400390625 1.9658203125 l 1
 44.400390625 86.732421875 l 1
 172.440429688 86.732421875 l 1
 172.440429688 713.267578125 l 1
 44.400390625 713.267578125 l 1
 44.400390625 798.034179688 l 1
EndSplineSet
Validated: 1
EndChar

StartChar: J
Encoding: 74 74 10
Width: 691
VWidth: -100
Flags: HW
HStem: 1.966 84.7665<124.546 367.565> 773.464 24.57G<396 483.12>
VStem: 11.88 79.2<142.537 239.038> 396 87.12<109.285 798.034>
LayerCount: 2
Back
Fore
SplineSet
29.0400390625 239.067382812 m 25
 91.080078125 246.4375 l 1
 91.080078125 246.4375 93.7197265625 151.842773438 100.3203125 142.014648438 c 0
 134.162109375 91.62109375 174.240234375 86.732421875 174.240234375 86.732421875 c 2
 307.559570312 86.732421875 l 2
 307.559570312 86.732421875 353.489257812 88.607421875 368.280273438 107.6171875 c 0
 396 143.243164062 396 176.412109375 396 176.412109375 c 2
 396 798.034179688 l 1
 483.120117188 798.034179688 l 25
 483.120117188 108.845703125 l 2
 483.120117188 108.845703125 483.120117188 62.162109375 456.719726562 36.36328125 c 0
 422.59765625 3.0185546875 384.120117188 1.9658203125 384.120117188 1.9658203125 c 26
 137.280273438 1.9658203125 l 2
 137.280273438 1.9658203125 120.120117188 1.9658203125 64.6796875 36.36328125 c 0
 53.6962890625 43.1787109375 11.8798828125 80.58984375 11.8798828125 146.9296875 c 3
 11.8798828125 200.997070312 29.0400390625 239.067382812 29.0400390625 239.067382812 c 25
EndSplineSet
Validated: 1
EndChar

StartChar: K
Encoding: 75 75 11
Width: 691
VWidth: -100
Flags: HMW
VStem: 37.52 92.4<2.0802 314.119 455.397 796.92>
DStem2: 129.92 455.397 194.6 396.429 0.716836 0.697242<0 474.355> 194.6 396.429 129.92 314.119 0.747481 -0.664284<13.8347 457.181>
LayerCount: 2
Back
Fore
SplineSet
37.51953125 796.919921875 m 1
 129.919921875 796.919921875 l 1
 129.919921875 455.397460938 l 1
 481.040039062 796.919921875 l 1
 536.48046875 796.919921875 l 1
 536.48046875 726.89453125 l 1
 194.599609375 396.428710938 l 1
 539.120117188 95.4462890625 l 1
 536.48046875 2.080078125 l 1
 481.040039062 2.080078125 l 1
 129.919921875 314.119140625 l 1
 129.919921875 2.080078125 l 25
 34.8798828125 2.080078125 l 1
 37.51953125 796.919921875 l 1
EndSplineSet
Validated: 1
EndChar

StartChar: L
Encoding: 76 76 12
Width: 691
VWidth: -100
Flags: HW
HStem: 2.1945 87.2235<117.28 539.68>
VStem: 16.96 100.32<89.418 795.805>
LayerCount: 2
Back
Fore
SplineSet
114.639648438 795.805664062 m 1
 117.280273438 89.41796875 l 1
 539.6796875 89.41796875 l 1
 539.6796875 2.1943359375 l 1
 16.9599609375 2.1943359375 l 1
 14.3203125 795.805664062 l 1
 114.639648438 795.805664062 l 1
EndSplineSet
Validated: 1
EndChar

StartChar: M
Encoding: 77 77 13
Width: 691
VWidth: -100
Flags: HMW
DStem2: 4.56 2.0802 85.08 2.0802 0.0270269 0.999635<1.88515 572.442> 104.616 796.92 104.88 626.158 0.471036 -0.882114<155.352 367.667> 277.8 472.596 277.8 332.547 0.478387 0.878149<0 215.285> 526.91 796.92 454.482 796.92 0.0220494 -0.999757<337.641 793.57>
LayerCount: 2
Back
Fore
SplineSet
4.5595703125 2.080078125 m 1
 26.0498046875 796.919921875 l 1
 104.616210938 796.919921875 l 1
 277.799804688 472.595703125 l 1
 454.481445312 796.919921875 l 1
 526.91015625 796.919921875 l 1
 544.440429688 2.080078125 l 1
 467.879882812 2.080078125 l 1
 456 626.158203125 l 1
 277.799804688 332.546875 l 1
 104.879882812 626.158203125 l 1
 85.080078125 2.080078125 l 1
 4.5595703125 2.080078125 l 1
EndSplineSet
Validated: 1
EndChar

StartChar: N
Encoding: 78 78 14
Width: 691
VWidth: -100
Flags: HMW
VStem: 3.12 95.04<2.3088 574.79> 426.84 95.04<175.527 794.691>
DStem2: 98.16 794.691 98.16 609.188 0.476231 -0.87932<168.222 677.913>
LayerCount: 2
Back
Fore
SplineSet
98.16015625 2.30859375 m 1
 3.1201171875 2.30859375 l 1
 3.1201171875 794.69140625 l 1
 98.16015625 794.69140625 l 1
 426.83984375 201.325195312 l 1
 426.83984375 794.69140625 l 1
 521.879882812 794.69140625 l 1
 521.879882812 2.30859375 l 1
 426.83984375 2.30859375 l 1
 98.16015625 609.188476562 l 1
 98.16015625 2.30859375 l 1
EndSplineSet
Validated: 1
EndChar

StartChar: O
Encoding: 79 79 15
Width: 691
VWidth: -100
Flags: HW
HStem: 2.6515 89.6805<126.607 456.442> 715.182 76.167<124.156 456.649>
VStem: 22.36 93.72<107.626 700.756> 464.56 91.08<102.392 702.286>
LayerCount: 2
Back
Fore
SplineSet
213.759765625 92.33203125 m 5
 374.799804688 91.103515625 l 5
 428.919921875 91.103515625 464.559570312 109.530273438 464.559570312 140.243164062 c 5
 464.559570312 669.727539062 l 29
 464.559570312 693.970703125 427.599609375 715.181640625 374.799804688 715.181640625 c 5
 213.759765625 715.181640625 l 5
 160.959960938 715.181640625 116.540039062 695.12890625 116.080078125 669.727539062 c 29
 116.080078125 142.700195312 l 5
 116.080078125 111.987304688 164.919921875 92.33203125 213.759765625 92.33203125 c 5
184.719726562 791.348632812 m 6
 380.080078125 791.348632812 l 6
 380.080078125 791.348632812 448.696289062 787.676757812 505.744140625 754.493164062 c 4
 554.3203125 726.237304688 555.639648438 654.985351562 555.639648438 654.985351562 c 6
 555.639648438 140.243164062 l 6
 555.639648438 115.673828125 542.643554688 82.30078125 505.744140625 50.5625 c 4
 450.040039062 2.6513671875 413.080078125 2.6513671875 380.080078125 2.6513671875 c 6
 186.040039062 2.6513671875 l 6
 158.3203125 2.6513671875 121.360351562 2.6513671875 64.3359375 50.5625 c 4
 32.580078125 77.244140625 22.3603515625 113.216796875 22.3603515625 142.700195312 c 6
 22.3603515625 654.985351562 l 6
 22.3603515625 654.985351562 23.6796875 722.552734375 64.3359375 754.493164062 c 4
 108.142578125 788.91015625 184.719726562 791.348632812 184.719726562 791.348632812 c 6
EndSplineSet
Validated: 1
EndChar

StartChar: P
Encoding: 80 80 16
Width: 691
VWidth: -100
Flags: HW
HStem: 2.5372 25.7985G<34.3579 120.24> 426.37 63.882<120.24 434.444> 716.296 76.167<120.24 434.743>
VStem: 34.44 85.8<2.5372 426.37 490.252 716.296> 442.32 77.88<494.514 710.808>
LayerCount: 2
Back
Fore
SplineSet
120.240234375 716.295898438 m 29
 120.240234375 490.251953125 l 5
 392.16015625 487.794921875 l 6
 419.27734375 487.794921875 441.612304688 515.545898438 442.3203125 550.448242188 c 29
 442.3203125 662.241210938 l 29
 442.3203125 691.771484375 419.934570312 716.295898438 392.16015625 716.295898438 c 6
 120.240234375 716.295898438 l 29
394.799804688 792.462890625 m 6
 489.83984375 792.462890625 520.200195312 715.168945312 520.200195312 597.130859375 c 7
 520.200195312 486.56640625 500.400390625 426.370117188 394.799804688 426.370117188 c 6
 120.240234375 426.370117188 l 5
 120.240234375 2.537109375 l 5
 34.4404296875 2.537109375 l 5
 31.7998046875 792.462890625 l 5
 394.799804688 792.462890625 l 6
EndSplineSet
Validated: 1
EndChar

StartChar: Q
Encoding: 81 81 17
Width: 691
VWidth: -100
Flags: HW
HStem: -97.631 61.425<419.366 546.4> 12.934 88.452<135.163 248.08 303.047 313.923 394.6 456.08> 725.464 76.167<124.156 456.649>
VStem: 22.36 93.72<123.922 711.038> 464.56 91.08<112.675 712.569>
LayerCount: 2
Back
SplineSet
401 134 m 5
 407 536 l 29
 359 583 l 29
 207 584 l 29
 177 560 l 29
 178 118 l 5
 203 90 l 29
 224 97 l 29
 223 141 l 29
 268 131 l 29
 307 96 l 29
 311 72 l 29
 379 88 l 29
 401 134 l 5
194 15 m 29
 137 38 l 5
 90 103 l 5
 84 574 l 29
 132 633 l 29
 210 641 l 29
 340 640 l 29
 427 629 l 29
 490 573 l 29
 492 98 l 5
 466 38 l 5
 433 15 l 29
 358 9 l 29
 395 -32 l 5
 475 -40 l 29
 490 -54 l 29
 490 -106 l 29
 428 -105 l 29
 356 -74 l 5
 304 0 l 29
 194 15 l 29
EndSplineSet
Fore
SplineSet
333.879882812 101.38671875 m 1
 341.799804688 101.38671875 l 0
 374.799804688 101.38671875 l 1
 428.919921875 101.38671875 464.559570312 119.813476562 464.559570312 150.526367188 c 1
 464.559570312 680.008789062 l 25
 464.559570312 704.25390625 427.599609375 725.463867188 374.799804688 725.463867188 c 1
 213.759765625 725.463867188 l 1
 160.959960938 725.463867188 116.540039062 705.412109375 116.080078125 680.008789062 c 25
 116.080078125 152.983398438 l 1
 116.080078125 122.270507812 199.240234375 102.614257812 248.080078125 102.614257812 c 1
 237.51953125 116.236328125 230.270507812 123.698242188 221.6796875 138.241210938 c 0
 210.069335938 157.896484375 203.200195312 172.638671875 188.6796875 189.837890625 c 1
 225.639648438 184.923828125 227.079101562 188.846679688 261.280273438 173.8671875 c 0
 283.719726562 164.040039062 287.348632812 141.58984375 307.48046875 124.727539062 c 0
 320.6796875 113.670898438 333.879882812 101.38671875 333.879882812 101.38671875 c 1
394.599609375 12.93359375 m 1
 403.83984375 -3.0361328125 427.599609375 -12.865234375 443.440429688 -22.6923828125 c 4
 464.764648438 -35.923828125 487 -36.2060546875 487 -36.2060546875 c 6
 546.400390625 -42.3486328125 l 29
 553 -97.630859375 l 5
 468.51953125 -97.630859375 l 6
 431.559570312 -97.630859375 403.83984375 -82.888671875 368.200195312 -57.0908203125 c 4
 336.94140625 -34.4638671875 312.759765625 -16.5498046875 289 12.93359375 c 1
 186.040039062 12.93359375 l 2
 186.040039062 12.93359375 121.360351562 12.93359375 64.3359375 60.845703125 c 0
 32.580078125 87.5263671875 22.3603515625 123.499023438 22.3603515625 152.983398438 c 2
 22.3603515625 665.267578125 l 2
 22.3603515625 665.267578125 23.6796875 732.834960938 64.3359375 764.776367188 c 0
 108.142578125 799.193359375 184.719726562 801.630859375 184.719726562 801.630859375 c 2
 380.080078125 801.630859375 l 2
 380.080078125 801.630859375 448.696289062 797.959960938 505.744140625 764.776367188 c 0
 554.3203125 736.520507812 555.639648438 665.267578125 555.639648438 665.267578125 c 2
 555.639648438 150.526367188 l 2
 555.639648438 125.956054688 542.643554688 92.58203125 505.744140625 60.845703125 c 0
 450.040039062 12.93359375 398.559570312 12.93359375 394.599609375 12.93359375 c 1
EndSplineSet
Validated: 1
EndChar

StartChar: R
Encoding: 82 82 18
Width: 691
VWidth: -100
Flags: HMW
HStem: 2.5372 25.7985G<25.7179 111.6 470.747 582.84> 426.37 63.882<111.6 300.36 402 424.222> 716.296 76.167<111.6 426.103>
VStem: 25.8 85.8<2.5372 426.37 490.252 716.296> 433.68 77.88<494.514 710.808>
DStem2: 402 426.37 300.36 427.598 0.391487 -0.920184<0 425.59>
LayerCount: 2
Back
SplineSet
164 586 m 1
 161 394 l 1
 321 394 l 25
 387 458 l 1
 391 545 l 25
 348 587 l 1
 164 586 l 1
98 648 m 1
 303 646 l 25
 404 628 l 1
 456 548 l 1
 454 457 l 1
 428 409 l 1
 378 346 l 29
 486 71 l 1
 483 0 l 25
 427 0 l 1
 290 346 l 5
 161 346 l 1
 159 0 l 1
 98 0 l 1
 98 648 l 1
EndSplineSet
Fore
SplineSet
111.599609375 716.295898438 m 25
 111.599609375 490.251953125 l 1
 383.51953125 487.794921875 l 2
 410.637695312 487.794921875 432.97265625 515.545898438 433.6796875 550.448242188 c 25
 433.6796875 662.241210938 l 25
 433.6796875 691.771484375 411.293945312 716.295898438 383.51953125 716.295898438 c 2
 111.599609375 716.295898438 l 25
402 426.370117188 m 13
 582.83984375 2.537109375 l 5
 481.200195312 2.537109375 l 5
 300.360351562 427.598632812 l 5
 111.599609375 426.370117188 l 1
 111.599609375 2.537109375 l 1
 25.7998046875 2.537109375 l 1
 23.16015625 792.462890625 l 1
 386.16015625 792.462890625 l 2
 481.200195312 792.462890625 511.559570312 715.168945312 511.559570312 597.130859375 c 3
 511.559570312 486.56640625 486.48046875 426.370117188 402 426.370117188 c 13
EndSplineSet
Validated: 1
EndChar

StartChar: S
Encoding: 83 83 19
Width: 691
VWidth: -100
Flags: HW
HStem: 1.6232 100.737<166.812 437.332> 403.343 94.5945<177.389 455.578> 656.414 25.7985G<466.225 549.88> 711.696 87.2235<149.545 462.376>
VStem: 15.28 96.36<151.51 219.068> 24.52 109.56<535.733 704.958> 470.68 96.36<132.78 371.753> 472 77.88<656.414 695.223>
LayerCount: 2
Back
SplineSet
487 576 m 5
 492 537 l 29
 434 531 l 5
 402 575 l 29
 240 575 l 5
 196 547 l 29
 175 480 l 5
 207 417 l 29
 257 394 l 5
 398 394 l 29
 472 341 l 5
 503 261 l 29
 503 72 l 29
 445 20 l 5
 366 0 l 29
 225 0 l 29
 151 56 l 5
 92 120 l 5
 82 170 l 5
 145 173 l 5
 190 103 l 5
 254 81 l 29
 368 81 l 29
 410 97 l 29
 428 168 l 29
 426 268 l 5
 385 329 l 29
 259 329 l 29
 158 352 l 29
 101 440 l 5
 101 556 l 5
 163 634 l 29
 231 644 l 5
 400 644 l 29
 487 576 l 5
EndSplineSet
Fore
SplineSet
436.360351562 798.919921875 m 26xf6
 436.360351562 798.919921875 505 786.634765625 528.759765625 757.150390625 c 24
 555.16015625 723.981445312 549.879882812 656.4140625 549.879882812 656.4140625 c 25
 472 656.4140625 l 1
 472 656.4140625 470.6796875 685.283203125 462.759765625 695.725585938 c 24
 454.83984375 706.16796875 429.759765625 711.696289062 429.759765625 711.696289062 c 2
 211.959960938 711.696289062 l 2
 211.959960938 711.696289062 186.063476562 709.803710938 165.759765625 696.954101562 c 0
 132.759765625 676.0703125 131.440429688 653.956054688 131.440429688 653.956054688 c 2
 134.080078125 558.133789062 l 2xf5
 134.080078125 558.133789062 138.040039062 522.5078125 167.080078125 500.393554688 c 0
 195.704101562 478.59765625 244.959960938 480.73828125 244.959960938 480.73828125 c 2
 433.719726562 475.82421875 l 2
 433.719726562 475.82421875 498.400390625 467.224609375 524.799804688 441.426757812 c 24
 555.16015625 411.942382812 567.040039062 345.602539062 567.040039062 345.602539062 c 2
 567.040039062 139.21484375 l 2
 567.040039062 139.21484375 566.977539062 96.6357421875 530.080078125 48.306640625 c 0
 494.440429688 1.623046875 425.799804688 1.623046875 425.799804688 1.623046875 c 2
 200.080078125 1.623046875 l 2
 200.080078125 1.623046875 134.080078125 1.623046875 83.919921875 40.935546875 c 0
 28.0673828125 84.708984375 13.9599609375 139.21484375 13.9599609375 139.21484375 c 2
 15.2802734375 190.811523438 l 25
 111.639648438 190.811523438 l 1xfa
 111.639648438 190.811523438 131.440429688 137.987304688 156.51953125 114.64453125 c 24
 182.919921875 90.0751953125 235.719726562 87.619140625 235.719726562 87.619140625 c 2
 388.83984375 90.0751953125 l 26
 388.83984375 90.0751953125 421.83984375 91.3037109375 440.3203125 117.1015625 c 0
 469.772460938 158.21875 470.6796875 192.040039062 470.6796875 192.040039062 c 2
 470.6796875 300.1484375 l 26
 470.6796875 300.1484375 472 337.00390625 458.799804688 355.431640625 c 24
 444.280273438 373.858398438 406 386.143554688 406 386.143554688 c 30
 221.200195312 386.143554688 l 6
 221.200195312 386.143554688 142 388.600585938 91.83984375 432.827148438 c 0
 27.916015625 489.188476562 24.51953125 524.963867188 24.51953125 524.963867188 c 2
 25.83984375 682.211914062 l 2
 25.83984375 682.211914062 33.759765625 709.239257812 93.16015625 765.750976562 c 0
 123.84375 794.942382812 192.16015625 801.376953125 192.16015625 801.376953125 c 2
 436.360351562 798.919921875 l 26xf6
EndSplineSet
Validated: 33
EndChar

StartChar: T
Encoding: 84 84 20
Width: 691
VWidth: -100
Flags: HW
HStem: 2.1945 25.7985G<246.732 344.148> 720.867 74.9385<28.8 246.732 344.148 550.2>
VStem: 246.732 97.4171<2.1945 720.867>
LayerCount: 2
Back
Fore
SplineSet
-591.599609375 138.557617188 m 1053
28.7998046875 795.805664062 m 1
 550.200195312 795.805664062 l 1
 550.200195312 720.8671875 l 1
 344.1484375 720.8671875 l 1
 344.1484375 2.1943359375 l 1
 246.731445312 2.1943359375 l 1
 246.731445312 720.8671875 l 1
 28.7998046875 720.8671875 l 1
 28.7998046875 795.805664062 l 1
EndSplineSet
Validated: 1
EndChar

StartChar: U
Encoding: 85 85 21
Width: 691
VWidth: -100
Flags: HW
HStem: 2.0802 87.2235<156.249 383.402> 772.35 24.57G<28.88 117.812 411.188 504.08>
VStem: 28.88 88.9324<123.87 796.92> 411.188 92.8924<122.632 796.92>
LayerCount: 2
Back
Fore
SplineSet
28.8798828125 796.919921875 m 25
 117.8125 796.919921875 l 25
 117.8125 187.583984375 l 2
 117.8125 187.583984375 121.80859375 145.814453125 149.73828125 121.245117188 c 0
 184.9453125 90.2744140625 212.888671875 89.3037109375 212.888671875 89.3037109375 c 2
 373.083007812 89.3037109375 l 6
 373.083007812 89.3037109375 393.325195312 91.24609375 416.801757812 121.245117188 c 4
 439.875976562 150.728515625 440.227539062 187.583984375 440.227539062 187.583984375 c 6
 440.227539062 796.919921875 l 29
 533.120117188 796.919921875 l 29
 533.120117188 147.043945312 l 6
 533.120117188 147.043945312 530.720703125 89.0712890625 490.879882812 53.6767578125 c 4
 432.799804688 2.080078125 406.400390625 2.080078125 406.400390625 2.080078125 c 6
 167.48046875 2.080078125 l 2
 167.48046875 2.080078125 123.919921875 5.765625 75.080078125 53.6767578125 c 0
 33.279296875 94.68359375 28.8798828125 147.043945312 28.8798828125 147.043945312 c 2
 28.8798828125 796.919921875 l 25
EndSplineSet
Validated: 1
EndChar

StartChar: V
Encoding: 86 86 22
Width: 691
VWidth: -100
Flags: HMW
HStem: 2.88 25.7985G<232.12 310>
VStem: 3.76 75.24<758.067 789.12> 480.28 71.28<758.067 789.12>
DStem2: 79 789.12 -4.16 715.41 0.291473 -0.956579<50.0839 688.366> 279.64 130.644 362.8 81.504 0.291473 0.956579<0 636.933>
LayerCount: 2
Back
Fore
SplineSet
-4.16015625 715.41015625 m 1
 3.759765625 789.120117188 l 1
 79 789.120117188 l 1
 279.639648438 130.64453125 l 1
 480.280273438 789.120117188 l 1
 551.559570312 789.120117188 l 1
 558.16015625 715.41015625 l 1
 362.799804688 81.5048828125 l 1
 349.654296875 36.81640625 324.364257812 2.837890625 310 2.8798828125 c 1
 238.719726562 2.8798828125 l 1
 225.51953125 2.8798828125 197.493164062 35.884765625 185.919921875 81.5048828125 c 1
 -4.16015625 715.41015625 l 1
EndSplineSet
Validated: 33
EndChar

StartChar: W
Encoding: 87 87 23
Width: 691
VWidth: -100
Flags: HMW
DStem2: 74.6 792.463 -8.56 727.352 0.190103 -0.981764<50.474 548.19> 186.8 255.608 313.52 247.009 0.399568 0.916704<0 36.7592> 416.48 255.608 313.52 247.009 0.325837 -0.945426<-21.2297 0> 416.48 255.608 482.48 32.0213 0.179356 0.983784<0 481.193>
LayerCount: 2
Back
Fore
SplineSet
313.51953125 247.008789062 m 5
 238.280273438 59.0478515625 l 2
 217.16015625 2.537109375 210.559570312 2.537109375 192.080078125 2.537109375 c 1
 163.040039062 2.537109375 l 1
 153.799804688 2.537109375 128.8046875 15.4736328125 126.080078125 32.021484375 c 1
 -8.5595703125 727.3515625 l 1
 28.400390625 792.462890625 l 25
 74.599609375 792.462890625 l 1
 186.799804688 255.608398438 l 1
 300.3203125 516.05078125 l 2
 300.3203125 516.05078125 304.280273438 523.420898438 313.51953125 523.420898438 c 3
 322.759765625 523.420898438 326.719726562 516.05078125 326.719726562 516.05078125 c 6
 416.48046875 255.608398438 l 5
 524.719726562 792.462890625 l 1
 580.16015625 792.462890625 l 25
 606.559570312 712.610351562 l 1
 482.48046875 32.021484375 l 1
 479.486328125 14.6875 461.91796875 2.521484375 441.559570312 2.537109375 c 1
 431 2.537109375 l 1
 419.120117188 2.537109375 401.036132812 2.66015625 382.16015625 55.36328125 c 6
 313.51953125 247.008789062 l 5
EndSplineSet
Validated: 33
EndChar

StartChar: X
Encoding: 88 88 24
Width: 691
VWidth: -100
Flags: HMW
HStem: 2.423 25.7985G<29.96 142.349 557.866 656.96>
DStem2: 35.24 67.5335 109.16 2.423 0.537499 0.843264<0 388.453> 121.04 793.577 51.08 714.953 0.585554 -0.810634<29.6112 360.684 520.306 894.729> 332.24 501.194 406.254 429.941 0.595609 0.803275<0 345.516>
LayerCount: 2
Back
Fore
SplineSet
51.080078125 714.953125 m 1
 70.8798828125 793.577148438 l 1
 121.040039062 793.577148438 l 25
 332.240234375 501.194335938 l 1
 551.360351562 793.577148438 l 1
 594.919921875 793.577148438 l 1
 623.959960938 723.552734375 l 1
 406.25390625 429.94140625 l 1
 643.759765625 67.533203125 l 1
 623.959960938 2.4228515625 l 1
 575.120117188 2.4228515625 l 1
 332.240234375 346.403320312 l 5
 109.16015625 2.4228515625 l 5
 57.6796875 2.4228515625 l 1
 35.240234375 67.533203125 l 5
 266.240234375 429.94140625 l 5
 51.080078125 714.953125 l 1
EndSplineSet
Validated: 1
EndChar

StartChar: Y
Encoding: 89 89 25
Width: 691
VWidth: -100
Flags: HMW
HStem: 2.7658 25.7985G<222.256 315.184>
VStem: 222.256 92.9285<2.7658 424.141>
DStem2: 82.402 790.234 17.92 699.325 0.60134 -0.798993<41.0357 333.448> 271.36 516.279 315.184 424.141 0.615481 0.788152<0 297.265>
LayerCount: 2
Back
Fore
SplineSet
17.919921875 699.325195312 m 1
 17.919921875 790.234375 l 1
 82.4013671875 790.234375 l 1
 271.360351562 516.279296875 l 5
 478.798828125 790.234375 l 5
 530.080078125 790.234375 l 1
 530.080078125 699.325195312 l 5
 315.184570312 424.141601562 l 5
 315.184570312 2.765625 l 1
 222.255859375 2.765625 l 1
 222.255859375 427.827148438 l 1
 17.919921875 699.325195312 l 1
EndSplineSet
Validated: 1
EndChar

StartChar: Z
Encoding: 90 90 26
Width: 691
VWidth: -100
Flags: HMW
HStem: 2.5372 90.909<134.868 600.56> 713.839 77.3955<77.84 453.892>
DStem2: 60.68 181.898 141.2 129.073 0.60416 0.796863<-27.2844 651.678>
LayerCount: 2
Back
SplineSet
137 642 m 29
 459 642 l 29
 519 626 l 29
 531 594 l 29
 527 557 l 29
 217 125 l 5
 221 97 l 29
 529 93 l 5
 529 0 l 29
 92 0 l 29
 91 110 l 5
 414 544 l 29
 413 562 l 29
 137 560 l 29
 137 642 l 29
EndSplineSet
Fore
SplineSet
77.83984375 791.234375 m 1
 555.6796875 792.462890625 l 2
 555.6796875 792.462890625 576.799804688 791.291015625 576.799804688 737.1796875 c 3
 576.799804688 718.752929688 555.6796875 675.754882812 555.6796875 675.754882812 c 6
 141.200195312 129.073242188 l 5
 116.120117188 93.4462890625 118.759765625 93.4462890625 138.559570312 93.4462890625 c 1
 600.559570312 93.4462890625 l 1
 600.559570312 2.537109375 l 1
 550.767578125 2.537109375 48.7998046875 2.537109375 48.7998046875 2.537109375 c 2
 48.7998046875 2.537109375 18.4404296875 2.537109375 18.4404296875 89.7607421875 c 3
 18.4404296875 129.073242188 60.6796875 181.8984375 60.6796875 181.8984375 c 30
 443.48046875 670.841796875 l 21
 475.16015625 712.610351562 454.040039062 715.067382812 444.799804688 715.067382812 c 1
 77.83984375 713.838867188 l 1
 77.83984375 791.234375 l 1
EndSplineSet
Validated: 33
EndChar

StartChar: a
Encoding: 97 97 27
Width: 691
VWidth: 0
Flags: HMW
HStem: 0.299805 83.5381<160.12 406.96> 389.734 82.3096<198.4 370>
VStem: 41.3203 85.7998<124.379 174.747> 74.3203 87.1201<341.823 389.697> 509.92 89.7598<0.299805 32.2412 120.4 226.938 297.597 306.197>
DStem2: 181.24 288.997 206.32 222.658 0.996141 0.0877729<-40.0041 302.502>
LayerCount: 2
Back
Fore
SplineSet
509.919921875 167.375976562 m 1xe8
 511.240234375 206.6875 l 2
 511.240234375 222.962890625 465.609375 239.857421875 417.51953125 239.857421875 c 5
 206.3203125 222.658203125 l 5
 172 217.744140625 125.799804688 183.484375 125.799804688 162.461914062 c 2
 127.120117188 121.921875 l 2
 127.120117188 97.5078125 177.173828125 83.837890625 206.3203125 83.837890625 c 2
 406.959960938 83.837890625 l 2
 463.793945312 83.837890625 509.919921875 132.11328125 509.919921875 167.375976562 c 1xe8
507.280273438 306.197265625 m 1
 507.280273438 306.197265625 507.280273438 336.909179688 455.799804688 376.220703125 c 0
 442.731445312 386.200195312 370 389.734375 370 389.734375 c 1
 185.200195312 389.734375 l 26
 172.991210938 389.740234375 163.052734375 383.834960938 162.759765625 376.220703125 c 2
 161.440429688 341.823242188 l 25
 74.3203125 341.823242188 l 25
 74.3203125 403.248046875 l 1
 74.3203125 403.248046875 79.544921875 427.908203125 109.959960938 443.7890625 c 0
 164.080078125 472.043945312 198.400390625 472.043945312 198.400390625 472.043945312 c 1
 443.919921875 472.043945312 l 1
 443.919921875 472.043945312 481.982421875 469.352539062 535 426.588867188 c 0
 594.400390625 378.677734375 597.040039062 330.766601562 597.040039062 330.766601562 c 1
 599.6796875 0.2998046875 l 1
 509.919921875 0.2998046875 l 1
 509.919921875 32.2412109375 l 1
 492.759765625 32.2412109375 l 1
 492.759765625 32.2412109375 476.919921875 17.4990234375 463.719726562 12.583984375 c 24
 442.599609375 5.2138671875 406.959960938 0.2998046875 406.959960938 0.2998046875 c 1
 160.120117188 0.2998046875 l 25
 160.120117188 0.2998046875 116.50390625 2.5693359375 74.3203125 45.7548828125 c 0xd8
 47.919921875 72.78125 41.3203125 124.37890625 41.3203125 124.37890625 c 1
 41.3203125 174.747070312 l 1
 41.3203125 174.747070312 44.546875 210.987304688 98.080078125 255.827148438 c 0
 137.6796875 288.997070312 181.240234375 288.997070312 181.240234375 288.997070312 c 5
 404.3203125 308.653320312 l 5
 404.382737009 311.198709881 503.336769306 302.434268364 507.280273438 297.596679688 c 1
 507.280273438 306.197265625 l 1
EndSplineSet
Validated: 33
EndChar

StartChar: b
Encoding: 98 98 28
Width: 691
VWidth: 0
Flags: HW
HStem: -0.556641 81.0811<172.315 408.744> 404.849 82.3086<195.438 402.593>
VStem: 29.0801 81.8398<-0.556641 39.9834 136.951 376.38 447.846 750.057> 481.84 91.0801<158.791 363.955>
LayerCount: 2
Back
Fore
SplineSet
162.400390625 108.780273438 m 0
 202 80.5244140625 266.6796875 80.5244140625 266.6796875 80.5244140625 c 1
 352.48046875 80.5244140625 l 2
 353.3046875 80.5244140625 399.07421875 81.470703125 439.599609375 130.892578125 c 0
 477.879882812 177.575195312 481.83984375 198.4609375 481.83984375 198.4609375 c 1
 481.83984375 317.624023438 l 1
 481.83984375 317.624023438 480.51953125 350.793945312 443.559570312 379.049804688 c 0
 413.91015625 401.716796875 356.440429688 404.848632812 356.440429688 404.848632812 c 1
 256.120117188 404.848632812 l 1
 256.120117188 404.848632812 190.120117188 403.620117188 178.240234375 399.934570312 c 0
 161.532226562 394.750976562 112.240234375 364.307617188 112.240234375 364.307617188 c 1
 110.919921875 188.6328125 l 2
 110.919921875 188.6171875 115.879882812 141.971679688 162.400390625 108.780273438 c 0
34.3603515625 -0.556640625 m 1
 29.080078125 750.056640625 l 25
 110.919921875 750.056640625 l 1
 110.919921875 447.845703125 l 1
 110.919921875 447.845703125 132.040039062 460.130859375 151.83984375 468.73046875 c 0
 165.979492188 474.87109375 195.400390625 478.55859375 195.400390625 478.55859375 c 1
 195.400390625 478.55859375 246.879882812 487.157226562 295.719726562 487.157226562 c 24
 337.959960938 487.157226562 402.639648438 478.55859375 402.639648438 478.55859375 c 1
 481.83984375 460.130859375 493.719726562 450.302734375 532 418.362304688 c 1
 571.599609375 367.994140625 572.919921875 363.079101562 572.919921875 272.169921875 c 0
 572.919921875 166.795898438 571.599609375 144.40625 499 64.5537109375 c 0
 441.568359375 1.384765625 459.420898438 -0.556640625 289.120117188 -0.556640625 c 0
 186.151367188 -0.556640625 159.759765625 10.4990234375 159.759765625 10.4990234375 c 1
 159.759765625 10.4990234375 145.240234375 15.4140625 128.080078125 26.4697265625 c 0
 115.706054688 34.443359375 110.919921875 39.9833984375 110.919921875 39.9833984375 c 1
 110.919921875 -0.556640625 l 1
 34.3603515625 -0.556640625 l 1
EndSplineSet
Validated: 1
EndChar

StartChar: c
Encoding: 99 99 29
Width: 691
VWidth: 0
Flags: HW
HStem: 1 83<158.564 462.97> 392 76<158.407 462.336>
VStem: 26 91<121.371 355.721> 479 81<101.659 160 337 379.482>
LayerCount: 2
Back
Fore
SplineSet
560 364 m 1
 560 337 l 1
 479 337 l 1
 479 354 l 1
 479 354 478 369 463 380 c 0
 449 391 424 392 424 392 c 1
 218 390 l 1
 218 390 166 389 158 380 c 0
 120 338 117 305 117 305 c 1
 117 152 l 1
 117 152 120 133 158 106 c 0
 187 85 218 84 218 84 c 25
 424 84 l 1
 424 84 441 86 463 106 c 0
 479 120 479 132 479 132 c 1
 479 160 l 1
 560 160 l 1
 560 135 l 1
 560 135 555 92 506 48 c 0
 456 3 416 1 416 1 c 1
 199 1 l 25
 199 1 145 4 86 49 c 0
 29 92 26 128 26 128 c 1
 26 321 l 25
 26 321 31 375 86 423 c 0
 138 468 199 466 199 466 c 25
 416 468 l 1
 416 468 471 467 519 435 c 0
 563 405 560 364 560 364 c 1
EndSplineSet
Validated: 33
EndChar

StartChar: d
Encoding: 100 100 30
Width: 691
VWidth: 0
Flags: HW
HStem: -0.0566406 81.0811<197.952 463.891> 407.806 82.3096<206.407 437.306>
VStem: 47.96 92.4004<135.796 367.196> 521.84 79.2002<-0.0566406 39.2549 124.763 388.828 465.545 750.558>
LayerCount: 2
Back
Fore
SplineSet
521.83984375 142.44921875 m 2
 521.83984375 382.0078125 l 1
 521.83984375 382.0078125 471.227539062 397.708007812 454.51953125 402.891601562 c 0
 442.639648438 406.577148438 376.639648438 407.805664062 376.639648438 407.805664062 c 1
 265.759765625 407.805664062 l 1
 265.759765625 407.805664062 208.290039062 404.674804688 178.639648438 382.0078125 c 0
 141.6796875 353.751953125 140.360351562 320.58203125 140.360351562 320.58203125 c 1
 140.360351562 208.7890625 l 1
 140.360351562 208.7890625 141.873046875 158.419921875 170.719726562 124.022460938 c 0
 200.596679688 88.396484375 269.69921875 81.0244140625 269.719726562 81.0244140625 c 0
 309.759765625 81.0244140625 349.9140625 78.21875 389.83984375 81.0244140625 c 0
 417.58984375 82.9755859375 460.283203125 99.8125 479.599609375 111.737304688 c 0
 494.120117188 120.701171875 521.853515625 140.056640625 521.83984375 142.44921875 c 2
601.040039062 -0.056640625 m 1
 521.83984375 -0.056640625 l 1
 521.83984375 39.2548828125 l 1
 521.83984375 39.2548828125 521.838867188 45.3984375 509.959960938 36.798828125 c 0
 498.241210938 28.3154296875 499.00390625 29.123046875 490.16015625 23.28515625 c 0
 453.333007812 -1.025390625 417.20703125 -0.056640625 343.639648438 -0.056640625 c 0
 169.400390625 -0.056640625 145.641601562 4.8583984375 98.1201171875 61.369140625 c 0
 48.5322265625 120.336914062 47.9599609375 125.245117188 47.9599609375 265.299804688 c 0
 47.9599609375 342.6953125 49.2685546875 348.837890625 80.9599609375 397.977539062 c 0
 118.197265625 455.717773438 133.759765625 460.630859375 206.360351562 481.515625 c 1
 206.360351562 481.515625 271.040039062 490.115234375 313.280273438 490.115234375 c 24
 362.120117188 490.115234375 437.360351562 481.515625 437.360351562 481.515625 c 2
 442.505859375 480.870117188 512.939453125 469.41015625 521.83984375 465.544921875 c 1
 521.83984375 750.557617188 l 1
 601.040039062 750.557617188 l 25
 601.040039062 -0.056640625 l 1
EndSplineSet
Validated: 33
EndChar

StartChar: e
Encoding: 101 101 31
Width: 691
VWidth: 0
Flags: HMW
HStem: 2 82<158.564 462.97> 392 77<158.407 462.336>
VStem: 26 91<121.478 209> 479 81<102.065 148 314 379.482>
DStem2: 117 284 117 209 0.99653 0.0832316<0 363.241>
LayerCount: 2
Back
Fore
SplineSet
117 284 m 5
 479 314 l 5
 479 354 l 1
 479 354 478 369 463 380 c 0
 449 391 424 392 424 392 c 1
 218 390 l 1
 218 390 166 389 158 380 c 0
 120 338 117 284 117 284 c 5
117 209 m 5
 117 153 l 1
 117 153 120 133 158 106 c 0
 187 85 218 84 218 84 c 25
 424 84 l 1
 424 84 441 86 463 106 c 0
 479 120 479 132 479 132 c 1
 479 148 l 1
 560 148 l 1
 560 136 l 1
 560 136 555 92 506 48 c 0
 456 3 416 2 416 2 c 1
 199 2 l 25
 199 2 145 5 86 50 c 0
 29 93 26 128 26 128 c 1
 26 321 l 25
 26 321 31 375 86 423 c 0
 138 468 199 466 199 466 c 25
 416 469 l 1
 416 469 471 467 519 435 c 0
 563 405 560 364 560 364 c 1
 560 325 560 285 560 246 c 5
 117 209 l 5
EndSplineSet
Validated: 33
EndChar

StartChar: f
Encoding: 102 102 32
Width: 691
VWidth: 0
Flags: HW
HStem: 405.56 74.9385<15.9199 179.336 269.624 435.68> 635.289 87.2236<326.987 484.067>
VStem: 179.336 90.2881<0.15332 405.56 480.498 571.546>
LayerCount: 2
Back
Fore
SplineSet
179.3359375 480.498046875 m 1
 179.3359375 495.240234375 l 18
 179.3359375 509.981445312 184.879882812 571.407226562 229.759765625 625.459960938 c 0
 279.807617188 685.73828125 323.469726562 722.512695312 406.639648438 722.512695312 c 0
 462.095703125 722.512695312 534.6796875 701.626953125 594.080078125 615.6328125 c 1
 591.440429688 591.0625 575.599609375 582.462890625 565.040039062 575.091796875 c 0
 552.149414062 566.094726562 541.280273438 566.4921875 520.16015625 564.03515625 c 1
 489.799804688 611.946289062 478.029296875 635.2890625 406.639648438 635.2890625 c 0
 348.544921875 635.2890625 319.6171875 614.27734375 298.400390625 582.462890625 c 0
 274.639648438 546.836914062 269.624023438 534.55078125 269.624023438 496.467773438 c 2
 269.624023438 480.498046875 l 1
 435.6796875 480.498046875 l 1
 435.6796875 405.559570312 l 1
 269.624023438 405.559570312 l 1
 269.624023438 0.1533203125 l 1
 179.3359375 0.1533203125 l 1
 179.3359375 405.559570312 l 1
 15.919921875 405.559570312 l 1
 15.919921875 480.498046875 l 1
 179.3359375 480.498046875 l 1
EndSplineSet
Validated: 1
EndChar

StartChar: g
Encoding: 103 103 33
Width: 691
VWidth: 0
Flags: HW
HStem: -187.78 63.8818<133.08 381.394> 0.179688 81.0801<172.795 422.16> 390.842 74.9385<148.386 422.16>
VStem: 28.7998 99<118.02 370.699> 422.16 95.04<-89.6889 0.179688 81.2598 390.842>
LayerCount: 2
Back
Fore
SplineSet
422.16015625 81.259765625 m 1
 422.16015625 390.841796875 l 1
 226.799804688 390.841796875 l 1
 226.799804688 390.841796875 163.440429688 385.928710938 148.919921875 369.958007812 c 24
 130.440429688 347.845703125 127.799804688 301.162109375 127.799804688 301.162109375 c 1
 127.799804688 141.45703125 l 1
 127.799804688 141.45703125 129.120117188 132.857421875 152.879882812 115.658203125 c 0
 200.854492188 80.9306640625 245.280273438 81.259765625 245.280273438 81.259765625 c 1
 422.16015625 81.259765625 l 1
517.200195312 465.780273438 m 25
 517.200195312 -15.791015625 l 2
 517.200195312 -16.4189453125 517.200195312 -83.3583984375 481.559570312 -128.8125 c 24
 465.719726562 -149.697265625 413.66796875 -181.10546875 394.440429688 -181.638671875 c 2
 133.080078125 -187.780273438 l 1
 133.080078125 -123.8984375 l 1
 299.400390625 -120.213867188 l 2
 311.407226562 -119.864257812 343.278320312 -114.728515625 349.559570312 -112.841796875 c 0
 390.48046875 -100.557617188 422.16015625 -85.7880859375 422.16015625 -47.7314453125 c 2
 422.16015625 0.1796875 l 25
 188.51953125 0.1796875 l 1
 188.51953125 0.1796875 123.498046875 19.4599609375 100.080078125 38.2626953125 c 0
 32.759765625 92.3173828125 28.7998046875 134.958984375 28.7998046875 136.54296875 c 2
 28.7998046875 340.473632812 l 2
 28.7998046875 376.099609375 51.240234375 408.041992188 85.5595703125 438.754882812 c 0
 110.462890625 461.0390625 170.040039062 465.780273438 170.040039062 465.780273438 c 1
 517.200195312 465.780273438 l 25
EndSplineSet
Validated: 33
EndChar

StartChar: i
Encoding: 105 105 34
Width: 691
VWidth: 0
Flags: HW
HStem: -0.783203 82.3096<42.1855 250.662 331.068 536.043> 410.764 77.3955<126.28 249.617> 615.402 105.466<262.087 303.856>
VStem: 233.893 98.1582<644.641 688.498> 250.662 80.4062<81.5264 410.764>
LayerCount: 2
Back
Fore
SplineSet
262.086914062 720.868164062 m 25xf0
 303.856445312 720.868164062 l 1
 332.05078125 688.498046875 l 25
 332.05078125 641.5078125 l 25
 305.9453125 615.40234375 l 1
 259.998046875 615.40234375 l 25
 233.892578125 644.640625 l 25
 233.892578125 690.5859375 l 25
 262.086914062 720.868164062 l 25xf0
40.95703125 81.5263671875 m 1
 250.662109375 81.5263671875 l 1
 249.6171875 410.763671875 l 1
 161.350585938 410.763671875 l 2
 141.684570312 410.763671875 125.723632812 423.55078125 125.723632812 437.791015625 c 2
 125.723632812 470.9609375 l 2
 125.723632812 485.87890625 147.1875 488.159179688 173.635742188 488.159179688 c 2
 331.068359375 488.159179688 l 1
 331.068359375 81.5263671875 l 1xe8
 536.04296875 81.5263671875 l 1
 536.04296875 0.4453125 l 1
 42.185546875 -0.783203125 l 1
 40.95703125 81.5263671875 l 1
EndSplineSet
Validated: 1
EndChar

StartChar: j
Encoding: 106 106 35
Width: 691
VWidth: 0
Flags: HW
HStem: -192 79.8525<154.912 301.094> 411.057 77.3955<229.63 353.336> 615.694 105.467<365.438 407.205>
VStem: 337.243 98.1572<644.933 688.79> 353.336 74.9395<-52.822 411.057>
LayerCount: 2
Back
SplineSet
315 535 m 29xe0
 298 580 l 29
 332 615 l 29
 374 616 l 29
 393 567 l 29
 368 530 l 29
 315 535 l 29xe0
225 372 m 29
 281 415 l 29
 374 414 l 29xe0
 390 -70 l 29
 349 -135 l 29
 299 -175 l 29
 172 -172 l 29
 103 -135 l 29
 64 -66 l 29
 87 -37 l 29
 170 -35 l 29
 179 -63 l 29
 197 -89 l 29
 239 -92 l 29
 292 -65 l 29
 311 -11 l 29xd0
 308 351 l 29
 233 353 l 29
 225 372 l 29
EndSplineSet
Fore
SplineSet
428.275390625 27.9013671875 m 6xe8
 427.783203125 13.1591796875 433.434570312 -48.265625 391.665039062 -102.319335938 c 4
 345.086914062 -162.59765625 304.206054688 -192 226.80078125 -192 c 4
 175.189453125 -192 107.8828125 -178.486328125 52.599609375 -92.490234375 c 5
 55.0576171875 -67.9208984375 69.798828125 -59.3212890625 79.626953125 -51.951171875 c 4
 91.6240234375 -42.953125 101.740234375 -43.3505859375 121.396484375 -40.89453125 c 5
 149.651367188 -88.8056640625 160.606445312 -112.147460938 227.046875 -112.147460938 c 4
 281.115234375 -112.147460938 308.037109375 -91.134765625 327.783203125 -59.3212890625 c 4
 349.897460938 -23.6953125 353.3359375 -4.0390625 353.3359375 26.6728515625 c 6
 353.3359375 411.056640625 l 1
 264.69921875 411.056640625 l 2
 245.034179688 411.056640625 229.073242188 423.84375 229.073242188 438.083984375 c 2
 229.073242188 471.25390625 l 2
 229.073242188 486.171875 250.537109375 488.452148438 276.984375 488.452148438 c 2
 428.275390625 488.452148438 l 1
 428.275390625 27.9013671875 l 6xe8
365.4375 721.161132812 m 25
 407.205078125 721.161132812 l 1
 435.400390625 688.790039062 l 25
 435.400390625 641.799804688 l 25
 409.293945312 615.694335938 l 1
 363.348632812 615.694335938 l 25
 337.243164062 644.932617188 l 25
 337.243164062 690.87890625 l 25xf0
 365.4375 721.161132812 l 25
EndSplineSet
Validated: 33
EndChar

StartChar: k
Encoding: 107 107 36
Width: 691
VWidth: 0
Flags: HMW
VStem: 46.7598 91.0801<0.246094 189.436 296.314 752.088>
DStem2: 137.84 296.314 194.6 229.975 0.816821 0.576891<0 8.09177 97.4987 329.668> 265.88 284.029 194.6 229.975 0.685681 -0.727903<0 305.222>
LayerCount: 2
Back
SplineSet
103 -2 m 5
 106 610 l 29
 174 610 l 29
 174 297 l 5
 223 287 l 29
 257 294 l 29
 379 394 l 29
 420 400 l 29
 435 380 l 29
 431 343 l 29
 277 218 l 29
 318 195 l 29
 444 61 l 5
 449 18 l 29
 411 -2 l 5
 363 -2 l 29
 271 161 l 29
 232 169 l 29
 174 161 l 29
 174 -2 l 29
 103 -2 l 5
EndSplineSet
Fore
SplineSet
52.0400390625 752.087890625 m 1
 137.83984375 752.087890625 l 1
 137.83984375 296.314453125 l 25
 407.120117188 486.497070312 l 1
 485 486.731445312 l 1
 485 438.580078125 l 1
 265.879882812 284.029296875 l 29
 487.639648438 48.6142578125 l 5
 494.240234375 0.24609375 l 1
 409.759765625 0.24609375 l 5
 194.599609375 229.974609375 l 5
 137.83984375 189.435546875 l 1
 137.83984375 0.24609375 l 1
 46.759765625 0.24609375 l 25
 52.0400390625 752.087890625 l 1
EndSplineSet
Validated: 1
EndChar

StartChar: l
Encoding: 108 108 37
Width: 691
VWidth: 0
Flags: HW
HStem: -0.0634766 85.9951<48.4404 206.65 385.229 564.56> 679.297 84.7666<126.32 260.327>
VStem: 260.327 88.7734<92.9282 679.297>
LayerCount: 2
Back
Fore
SplineSet
126.3203125 764.063476562 m 1
 318.133789062 764.063476562 l 25
 318.133789062 764.063476562 349.100585938 738.197265625 349.100585938 706.32421875 c 1
 349.100585938 125.243164062 l 1
 349.100585938 85.931640625 385.229492188 85.931640625 385.229492188 85.931640625 c 1
 564.559570312 85.931640625 l 1
 564.559570312 -0.0634765625 l 1
 48.4404296875 -0.0634765625 l 1
 48.4404296875 85.931640625 l 1
 206.650390625 85.931640625 l 1
 206.650390625 85.931640625 260.327148438 85.931640625 260.327148438 125.243164062 c 1
 260.327148438 679.296875 l 1
 126.3203125 679.296875 l 25
 126.3203125 764.063476562 l 1
EndSplineSet
Validated: 1
EndChar

StartChar: m
Encoding: 109 109 38
Width: 691
VWidth: 0
Flags: HW
HStem: 407.183 74.9395<134.79 276.794 385.383 532.173>
VStem: 40.7598 80.5205<-0.75 394.72 451.409 482.122> 290.24 84.4795<-0.75 397.052> 546.32 73.9199<-0.75 377.7>
LayerCount: 2
Back
Fore
SplineSet
40.759765625 -0.75 m 1
 40.759765625 482.122070312 l 1
 121.280273438 482.122070312 l 1
 121.280273438 451.409179688 l 25
 121.280273438 451.409179688 123.919921875 482.122070312 208.400390625 482.122070312 c 0
 332.48046875 482.122070312 332.48046875 419.467773438 332.48046875 419.467773438 c 25
 332.48046875 419.467773438 332.48046875 482.122070312 457.879882812 482.122070312 c 0
 617.599609375 482.122070312 620.240234375 377.700195312 620.240234375 377.700195312 c 1
 620.240234375 -0.75 l 1
 546.3203125 -0.75 l 1
 546.3203125 337.159179688 l 2
 546.3203125 405.954101562 497.48046875 407.182617188 490.879882812 407.182617188 c 10
 426.200195312 407.182617188 l 18
 419.599609375 407.182617188 374.719726562 407.182617188 374.719726562 340.844726562 c 2
 374.719726562 -0.75 l 1
 290.240234375 -0.75 l 1
 290.240234375 339.616210938 l 2
 290.240234375 407.182617188 244.040039062 407.182617188 237.440429688 407.182617188 c 10
 179.360351562 407.182617188 l 18
 174.080078125 407.182617188 121.280273438 407.182617188 121.280273438 337.159179688 c 2
 121.280273438 -0.75 l 1
 40.759765625 -0.75 l 1
EndSplineSet
Validated: 1
EndChar

StartChar: n
Encoding: 110 110 39
Width: 691
VWidth: 0
Flags: HW
HStem: 409 75.9863<204.436 419.925>
VStem: 86.9121 81.0879<0 346.172 446.902 482.529> 462 88<0 356>
LayerCount: 2
Back
Fore
SplineSet
89.0244140625 482.529296875 m 1
 168 484.986328125 l 1
 168 446.90234375 l 1
 168 446.90234375 152.54296875 484.986328125 312 484.986328125 c 0
 491.546875 484.986328125 550 413.961914062 550 413.961914062 c 1
 550 -1 l 1
 462 0 l 1
 460.9453125 356 l 1
 460.9453125 356 428 409 312 409 c 0
 176 409 168 346.171875 168 346.171875 c 1
 168 0 l 1
 86.912109375 0 l 1
 89.0244140625 482.529296875 l 1
EndSplineSet
Validated: 37
EndChar

StartChar: o
Encoding: 111 111 40
Width: 691
VWidth: 0
Flags: HW
HStem: 0.0292969 82.3096<217.92 367.08> 389.464 76.167<217.92 367.08>
VStem: 26.5195 91.0801<151.135 303.469> 467.4 91.0801<151.135 303.469>
LayerCount: 2
Back
SplineSet
392 72 m 6
 392 72 405 74 422 90 c 4
 433.854053639 101.156756367 435 111 435 111 c 6
 435 277 l 5
 434 292 l 6
 434 292 433 304 422 313 c 4
 411.47265625 321.61328125 392 322 392 322 c 1030
386 384 m 6
 386 384 428.758158337 385.018745275 464 358 c 4
 494 335 495 300 495 300 c 6
 495 278 l 5
 495 114 l 6
 495 114 491 79 454 43 c 4
 416.496669316 6.51027284814 386 5 386 5 c 1030
EndSplineSet
Fore
SplineSet
199.440429688 465.630859375 m 25
 385.559570312 465.630859375 l 25
 385.559570312 465.630859375 447.026367188 466.390625 499.080078125 421.404296875 c 0
 554.51953125 373.493164062 558.48046875 319.439453125 558.48046875 319.439453125 c 25
 558.48046875 126.564453125 l 1
 558.48046875 126.564453125 555.610351562 91.2001953125 499.080078125 47.9404296875 c 0
 439.6796875 2.486328125 385.559570312 0.029296875 385.559570312 0.029296875 c 25
 199.440429688 0.029296875 l 25
 199.440429688 0.029296875 145.3203125 2.486328125 85.919921875 47.9404296875 c 0
 29.3896484375 91.19921875 26.51953125 126.564453125 26.51953125 126.564453125 c 1
 26.51953125 319.439453125 l 25
 26.51953125 319.439453125 30.48046875 373.493164062 85.919921875 421.404296875 c 0
 137.973632812 466.390625 199.440429688 465.630859375 199.440429688 465.630859375 c 25
367.080078125 389.463867188 m 1
 217.919921875 389.463867188 l 1
 217.919921875 389.463867188 166.41796875 387.025390625 158.51953125 378.407226562 c 0
 120.240234375 336.638671875 117.599609375 303.46875 117.599609375 303.46875 c 1
 117.599609375 151.134765625 l 1
 117.599609375 151.134765625 120.240234375 131.478515625 158.51953125 104.452148438 c 0
 187.758789062 83.8076171875 217.919921875 82.3388671875 217.919921875 82.3388671875 c 25
 367.080078125 82.3388671875 l 25
 367.080078125 82.3388671875 397.241210938 83.8076171875 426.48046875 104.452148438 c 0
 464.759765625 131.478515625 467.400390625 151.134765625 467.400390625 151.134765625 c 1
 467.400390625 303.46875 l 1
 467.400390625 303.46875 464.759765625 336.638671875 426.48046875 378.407226562 c 0
 418.58203125 387.025390625 367.080078125 389.463867188 367.080078125 389.463867188 c 1
EndSplineSet
Validated: 33
EndChar

StartChar: p
Encoding: 112 112 41
Width: 691
VWidth: 0
Flags: HW
HStem: -0.365234 82.3096<185.694 416.593> 408.726 81.0811<159.109 425.048>
VStem: 21.96 79.2002<-260.808 24.2051 100.922 364.987 450.495 489.807> 482.64 92.4004<122.554 353.954>
LayerCount: 2
Back
SplineSet
182 156 m 29x80
 219 111 l 29
 244 88 l 29
 319 88 l 29
 379 120 l 29
 395 191 l 29
 386 259 l 29
 354 296 l 29
 292 315 l 29
 229 305 l 29
 197 282 l 29
 176 229 l 29
 182 156 l 29x80
101 386 m 29xa0
 160 389 l 29xa0
 168 351 l 29
 217 371 l 29
 311 384 l 29
 436 371 l 29
 466 351 l 29
 485 303 l 29
 489 186 l 29
 481 69 l 29
 448 21 l 29
 389 9 l 29
 289 -6 l 29
 202 19 l 29
 175 67 l 29
 170 -174 l 29
 99 -175 l 29xc0
 101 386 l 29xa0
EndSplineSet
Fore
SplineSet
101.16015625 347.30078125 m 2
 101.16015625 107.7421875 l 1
 101.16015625 107.7421875 151.772460938 92.041015625 168.48046875 86.8583984375 c 0
 180.360351562 83.1728515625 246.360351562 81.9443359375 246.360351562 81.9443359375 c 1
 357.240234375 81.9443359375 l 1
 357.240234375 81.9443359375 414.709960938 85.0751953125 444.360351562 107.7421875 c 0
 481.3203125 135.998046875 482.639648438 169.16796875 482.639648438 169.16796875 c 1
 482.639648438 280.9609375 l 1
 482.639648438 280.9609375 481.126953125 331.330078125 452.280273438 365.727539062 c 0
 422.403320312 401.353515625 353.30078125 408.725585938 353.280273438 408.725585938 c 0
 313.240234375 408.725585938 273.0859375 411.530273438 233.16015625 408.725585938 c 0
 205.412109375 406.776367188 162.713867188 389.9375 143.400390625 378.012695312 c 0
 128.879882812 369.048828125 101.147460938 349.693359375 101.16015625 347.30078125 c 2
21.9599609375 489.806640625 m 1
 101.16015625 489.806640625 l 1
 101.16015625 450.495117188 l 1
 101.16015625 450.495117188 101.161132812 444.3515625 113.040039062 452.951171875 c 0
 124.758789062 461.434570312 123.99609375 460.626953125 132.83984375 466.46484375 c 0
 169.666992188 490.775390625 205.79296875 489.806640625 279.360351562 489.806640625 c 0
 453.599609375 489.806640625 477.358398438 484.891601562 524.879882812 428.380859375 c 0
 574.467773438 369.413085938 575.040039062 364.504882812 575.040039062 224.450195312 c 0
 575.040039062 147.0546875 573.731445312 140.912109375 542.040039062 91.7724609375 c 0
 504.802734375 34.0322265625 489.240234375 29.119140625 416.639648438 8.234375 c 1
 416.639648438 8.234375 351.959960938 -0.365234375 309.719726562 -0.365234375 c 24
 260.879882812 -0.365234375 185.639648438 8.234375 185.639648438 8.234375 c 2
 180.494140625 8.8798828125 110.060546875 20.33984375 101.16015625 24.205078125 c 1
 101.16015625 -260.807617188 l 1
 21.9599609375 -260.807617188 l 25
 21.9599609375 489.806640625 l 1
EndSplineSet
Validated: 33
EndChar

StartChar: q
Encoding: 113 113 42
Width: 691
VWidth: 0
Flags: HW
HStem: 0.0927734 82.3086<199.407 406.562> 8.69141 73.71<164.305 199.36> 406.726 81.0811<180.746 429.685>
VStem: 29.0801 91.0801<123.295 346.268> 491.08 81.8398<-262.807 39.4043 110.87 350.299 447.267 487.807>
LayerCount: 2
Back
SplineSet
341 95 m 29
 397 138 l 29
 415 313 l 29
 395 344 l 29
 246 347 l 29
 202 327 l 29
 175 283 l 29
 174 162 l 29
 184 115 l 29
 233 90 l 29
 341 95 l 29
477 427 m 29
 494 396 l 29
 484 -146 l 29
 475 -163 l 29
 451 -163 l 29
 434 -147 l 29
 436 40 l 29
 380 11 l 29
 191 5 l 29
 136 39 l 29
 97 110 l 29
 95 317 l 29
 127 389 l 29
 193 436 l 29
 425 438 l 29
 477 427 l 29
EndSplineSet
Fore
SplineSet
439.599609375 378.469726562 m 0xb8
 400 406.725585938 335.3203125 406.725585938 335.3203125 406.725585938 c 1
 249.51953125 406.725585938 l 2
 248.6953125 406.725585938 187.04296875 401.939453125 154.48046875 363.727539062 c 0
 124.120117188 328.1015625 120.16015625 288.7890625 120.16015625 288.7890625 c 1
 120.16015625 169.625976562 l 1
 120.16015625 169.625976562 121.48046875 136.456054688 158.440429688 108.200195312 c 0
 188.08984375 85.533203125 245.559570312 82.4013671875 245.559570312 82.4013671875 c 1
 345.879882812 82.4013671875 l 1
 345.879882812 82.4013671875 411.879882812 83.6298828125 423.759765625 87.3154296875 c 0
 440.467773438 92.4990234375 489.759765625 122.942382812 489.759765625 122.942382812 c 1
 491.080078125 298.6171875 l 2
 491.080078125 298.6328125 486.120117188 345.278320312 439.599609375 378.469726562 c 0xb8
567.639648438 487.806640625 m 1
 572.919921875 -262.806640625 l 25
 491.080078125 -262.806640625 l 1
 491.080078125 39.404296875 l 1
 491.080078125 39.404296875 469.959960938 27.119140625 450.16015625 18.51953125 c 0
 436.020507812 12.37890625 406.599609375 8.69140625 406.599609375 8.69140625 c 1x78
 406.599609375 8.69140625 355.120117188 0.0927734375 306.280273438 0.0927734375 c 24xb8
 264.040039062 0.0927734375 199.360351562 8.69140625 199.360351562 8.69140625 c 1x78
 120.16015625 27.119140625 108.280273438 36.947265625 70 68.8876953125 c 1
 30.400390625 119.255859375 29.080078125 124.170898438 29.080078125 215.080078125 c 0
 29.080078125 320.454101562 34.3603515625 356.357421875 95.080078125 431.295898438 c 0
 139.14453125 485.678710938 142.579101562 487.806640625 312.879882812 487.806640625 c 0
 415.848632812 487.806640625 442.240234375 476.750976562 442.240234375 476.750976562 c 1
 442.240234375 476.750976562 456.759765625 471.8359375 473.919921875 460.780273438 c 0
 486.293945312 452.807617188 491.080078125 447.266601562 491.080078125 447.266601562 c 1
 491.080078125 487.806640625 l 1
 567.639648438 487.806640625 l 1
EndSplineSet
Validated: 1
EndChar

StartChar: r
Encoding: 114 114 43
Width: 691
VWidth: 0
Flags: HW
HStem: 0.0136719 79.8525<64.8516 199.28 286.4 425.688> 388.22 85.9941<56.1172 108.2 338.357 472.649>
VStem: 199.28 87.1201<79.8662 308.367>
LayerCount: 2
Back
Fore
SplineSet
159.6796875 450.873046875 m 1
 159.6796875 450.873046875 182.120117188 412.7890625 199.280273438 412.7890625 c 0
 215.120117188 412.7890625 224.489257812 417.290039062 238.879882812 421.389648438 c 0
 303.559570312 439.81640625 347.120117188 474.213867188 403.879882812 474.213867188 c 0
 446.120117188 474.213867188 475.079101562 469.206054688 508.16015625 444.731445312 c 0
 568.879882812 399.806640625 611.120117188 321.880859375 611.120117188 321.880859375 c 1
 580.759765625 303.453125 l 1
 533.240234375 303.453125 l 1
 533.240234375 303.453125 473.83984375 388.219726562 418.400390625 388.219726562 c 0
 318.080078125 388.219726562 286.400390625 308.3671875 286.400390625 308.3671875 c 1
 286.400390625 79.8662109375 l 1
 425.6875 79.8662109375 l 1
 425.6875 79.8662109375 448.759765625 78.65625 448.759765625 38.0966796875 c 0
 448.759765625 1.2216796875 425.6875 0.013671875 425.6875 0.013671875 c 1
 64.8515625 -1.2138671875 l 1
 64.8515625 -1.2138671875 40.8798828125 0.013671875 40.8798828125 40.5537109375 c 0
 40.8798828125 77.4091796875 63.953125 79.8662109375 63.953125 79.8662109375 c 1
 199.280273438 79.8662109375 l 1
 199.280273438 340.30859375 l 1
 108.200195312 393.133789062 l 1
 91.0400390625 393.133789062 43.51953125 410.833984375 43.51953125 425.07421875 c 2
 43.51953125 447.188476562 l 2
 43.51953125 462.106445312 66.5830078125 471.7578125 95 471.7578125 c 1
 95 471.7578125 136.646484375 470.805664062 145.16015625 466.84375 c 0
 153.080078125 463.158203125 159.6796875 450.873046875 159.6796875 450.873046875 c 1
EndSplineSet
Validated: 1
EndChar

StartChar: s
Encoding: 115 115 44
Width: 691
VWidth: 0
Flags: HW
HStem: -0.128906 61.4248<131.231 454.659> 212.401 66.3389<236.86 448.501> 427.39 58.9678<116.551 456.886>
VStem: 26.3203 82.9492<83.5694 126.002 350.78 417.971> 464.56 79.2002<381.634 415.476> 472.48 79.1992<79.6131 191.092>
LayerCount: 2
Back
SplineSet
204 386 m 25
 385 387 l 25
 447 371 l 25
 482 312 l 25
 469 281 l 25
 408 304 l 25
 374 335 l 25
 204 339 l 25
 170 306 l 1
 171 271 l 1
 198 247 l 25
 246 230 l 25
 395 230 l 25
 428 213 l 25
 469 172 l 25
 489 122 l 25
 489 72 l 1
 467 29 l 25
 406 -1 l 25
 183 2 l 25
 129 37 l 25
 92 86 l 25
 89 113 l 25
 117 137 l 25
 148 126 l 25
 170 96 l 25
 197 70 l 25
 365 70 l 25
 406 94 l 1
 414 116 l 1
 387 162 l 25
 219 162 l 1
 155 193 l 25
 93 243 l 1
 90 314 l 1
 120 353 l 25
 204 386 l 25
EndSplineSet
Fore
SplineSet
27.6396484375 105.522460938 m 1xf4
 46.1201171875 117.807617188 41.1064453125 124.4375 60.6396484375 135.005859375 c 0
 70.884765625 140.549804688 99.3515625 143.81640625 111.77734375 114.551757812 c 0
 123.362304688 87.2646484375 143.365234375 61.568359375 167.559570312 61.2958984375 c 0
 240.161132812 60.478515625 312.759765625 59.658203125 385.360351562 58.8388671875 c 0
 422.314453125 58.4228515625 472.48046875 72.302734375 472.48046875 132.549804688 c 0xf4
 472.48046875 172.034179688 440.075195312 212.401367188 417.040039062 212.401367188 c 2
 355 212.401367188 l 18
 267.879882812 212.401367188 26.3203125 286.016601562 26.3203125 357.364257812 c 0
 26.3203125 469.185546875 97.599609375 486.357421875 176.799804688 486.357421875 c 26
 413.080078125 487.5859375 l 25
 489.408203125 478.416992188 546.654296875 439.044921875 543.759765625 395.448242188 c 1
 529.240234375 385.620117188 529.240234375 379.477539062 510.759765625 377.021484375 c 0
 485.794921875 373.701171875 488.3203125 386.848632812 464.559570312 391.762695312 c 1xf8
 460.200195312 415.880859375 420.225585938 426.076171875 399.879882812 426.161132812 c 2
 174.16015625 427.389648438 l 2
 142.633789062 427.560546875 109.48046875 421.247070312 109.26953125 375.79296875 c 0
 109.248046875 371.186523438 111.12109375 366.96875 114.759765625 363.5078125 c 0
 174.16015625 306.99609375 296.919921875 278.740234375 366.879882812 278.740234375 c 2
 397.240234375 278.740234375 l 2
 487 278.740234375 551.6796875 196.520507812 551.6796875 120.264648438 c 0
 551.6796875 58.7900390625 509.440429688 -2.5859375 443.440429688 -2.5859375 c 26
 149.080078125 -0.12890625 l 2
 93.6708984375 0.333984375 46.8232421875 44.8056640625 27.6396484375 105.522460938 c 1xf4
EndSplineSet
Validated: 33
EndChar

StartChar: t
Encoding: 116 116 45
Width: 691
VWidth: 0
Flags: HW
HStem: 1.99121 74.9385<280.509 430.286> 417.225 71.2529<21.6797 168.2 272.365 424.28>
VStem: 168.2 87.1201<102.924 417.225 500.763 701.009>
LayerCount: 2
Back
Fore
SplineSet
512.719726562 172.752929688 m 2
 512.719726562 119.927734375 l 2
 512.719726562 48.6640625 446.502929688 1.9912109375 334.51953125 1.9912109375 c 24
 231.254882812 1.9912109375 168.200195312 54.8173828125 168.200195312 128.526367188 c 2
 168.200195312 417.224609375 l 1
 -4.7197265625 417.224609375 l 1
 21.6796875 488.477539062 l 1
 168.200195312 488.477539062 l 1
 168.200195312 701.008789062 l 1
 255.3203125 701.008789062 l 1
 255.3203125 500.762695312 l 1
 296.240234375 488.477539062 l 1
 448.040039062 488.477539062 l 1
 424.280273438 417.224609375 l 1
 255.3203125 417.224609375 l 1
 255.3203125 182.581054688 l 2
 255.3203125 124.916992188 282.985351562 76.9296875 317.360351562 76.9296875 c 0
 426.079101562 76.9296875 437.479492188 87.9873046875 462.559570312 158.010742188 c 1
 472.298828125 172.616210938 484.701171875 181.352539062 498.200195312 181.352539062 c 0
 506.306640625 181.161132812 512.783203125 177.345703125 512.719726562 172.752929688 c 2
EndSplineSet
Validated: 1
EndChar

StartChar: u
Encoding: 117 117 46
Width: 691
VWidth: 0
InSpiro: 1
Flags: HW
HStem: 0.7 67.319<203.608 408.413> 467.686 20G<72.1829 154.155 464.2 543.4>
VStem: 72.1829 81.9721<112.231 487.686> 464.2 79.2<-1.757 38.8102 112.273 486.458>
LayerCount: 2
Back
Fore
SplineSet
278.643 68.7 m 1024
  Spiro
    278.643 68.7 {
    0 0 z
  EndSpiro
72.1829 487.686 m 1
 154.155 487.686 l 1
 154.155 145.9618 l 2
 154.639037746 143.89242879 155.270838904 141.857767939 156.041 139.877 c 0
 158.388074646 133.840587312 162.038017187 128.386181159 166.139 123.3733 c 0
 173.456687532 114.428444673 181.902155033 106.42703351 190.983 99.2788 c 0
 198.954004139 93.0042078112 207.552259664 87.5443802981 216.514 82.791 c 0
 222.962618428 79.3706000963 229.607615632 76.3118670787 236.445 73.7557 c 0
 239.084275057 72.7690027999 241.751601948 71.8572987457 244.443 71.0232 c 0
 255.391321675 69.2926387156 266.455780537 68.3178654086 277.536 68.01899 c 0
 293.697981042 67.5830402695 309.861149888 68.555208877 326 69.5233 c 0
 334.453912484 70.0304090923 342.907600732 70.5415163481 351.363 71.0232 c 0
 353.593126504 71.4938736372 355.81860978 71.9865494684 358.039 72.5012 c 0
 363.213546992 73.7005762791 368.362498659 75.0125779305 373.47 76.4713 c 0
 379.250672864 78.1222824512 384.974235965 79.9848988156 390.567 82.1901 c 0
 395.154650812 83.9989896548 399.65557303 86.0222173028 404.102 88.1548 c 0
 408.216876324 90.1283653165 412.290426048 92.1911645749 416.275 94.4161 c 0
 419.666888595 96.3100874589 422.986943671 98.3338767433 426.207 100.5072 c 0
 431.617175092 104.158707349 436.763127961 108.186386007 441.854 112.2713 c 0
 448.158200614 117.32978843 454.5356152 122.578991852 458.807471676 129.440660223 c 0
 460.943399914 132.871494408 462.478602557 136.675810393 463.299294009 140.632990978 c 0
 464.119985461 144.590171563 464.2 148.658612535 464.2 152.7 c 2
 464.2 486.458 l 1
 543.4 486.458 l 1
 543.4 -1.757 l 1
 464.2 -1.757 l 1
 464.2 37.555 l 2
 464.236085515 38.0053722817 464.099042831 38.4664645641 463.827 38.8272 c 0
 463.521136077 39.2327830293 463.054262039 39.5029794153 462.558188811 39.6123489067 c 0
 462.062115584 39.7217183981 461.541513732 39.6803208863 461.049 39.5559 c 0
 459.63221211 39.197985096 458.425424891 38.2933362892 457.203485626 37.491927882 c 0
 455.98154636 36.6905194747 454.742833763 35.9146088012 453.531 35.098 c 0
 450.872150651 33.3063022895 448.501360113 31.1287095964 445.998 29.1255 c 0
 444.545205021 27.962961367 443.034425775 26.8752290923 441.52 25.7942 c 0
 439.573648361 24.4048531065 437.640991542 22.9964851771 435.711 21.5845 c 0
 425.451337676 14.0785131571 413.922038059 8.25727749122 401.541 5.3745 c 0
 387.963634239 2.21317182864 373.978657435 1.14913200983 360.045 0.7109 c 0
 341.319306142 0.121952087878 322.577953165 0.7 303.843 0.7 c 2
 227.811 0.7 l 2
 222.904216829 1.56451896293 218.037666114 2.65675995607 213.231 3.9682 c 0
 200.281304966 7.50136586212 187.802814491 12.6406992068 175.846 18.7409 c 0
 157.874410104 27.9097557199 140.935819791 39.1373791299 125.643 52.297 c 0
 112.016114509 64.0230681257 99.5080341773 77.1467453175 89.1951 91.8721 c 0
 83.0932392586 100.584660567 77.8898538276 110.013889349 74.73 120.1705 c 0
 73.6351089341 123.689771102 72.7817136478 127.284315005 72.1829 130.921 c 2
 72.1829 487.686 l 1
  Spiro
    72.1829 487.686 v
    154.155 487.686 v
    154.155 145.962 v
    156.041 139.877 o
    166.139 123.373 o
    190.983 99.2788 o
    216.514 82.791 o
    236.445 73.7557 o
    244.443 71.0232 v
    277.536 68.019 o
    326 69.5233 o
    351.363 71.0232 v
    358.039 72.5012 o
    373.47 76.4713 o
    390.567 82.1901 o
    404.102 88.1548 o
    416.275 94.4161 o
    426.207 100.507 o
    441.854 112.271 o
    464.2 152.7 [
    464.2 486.458 v
    543.4 486.458 v
    543.4 -1.757 v
    464.2 -1.757 v
    464.2 37.555 v
    463.827 38.8272 o
    461.049 39.5559 o
    453.531 35.098 o
    445.998 29.1255 o
    441.52 25.7942 o
    435.711 21.5845 o
    401.541 5.3745 o
    360.045 0.7109 o
    303.843 0.7 [
    227.811 0.7 v
    213.231 3.9682 o
    175.846 18.7409 o
    125.643 52.297 o
    89.1951 91.8721 o
    74.73 120.171 o
    72.1829 130.921 v
    0 0 z
  EndSpiro
EndSplineSet
Validated: 33
EndChar

StartChar: v
Encoding: 118 118 47
Width: 691
VWidth: 0
Flags: HMW
HStem: 452.202 20G<64.1299 110.645 469.537 510.68>
DStem2: 281.867 114.708 262.858 0.458008 0.443941 -0.896056<-134.344 0> 281.867 114.708 301.139 0.458008 0.465806 0.884887<0 139.352>
LayerCount: 2
Back
Fore
SplineSet
525.538085938 426.747070312 m 1
 478.360351562 303.745117188 301.138671875 0.4580078125 301.138671875 0.4580078125 c 1
 262.858398438 0.4580078125 l 1
 263.033203125 -1.6416015625 95.162109375 304.997070312 51.658203125 426.747070312 c 1
 48.046875 448.375976562 56.80078125 467.879882812 71.458984375 472.202148438 c 25
 100.498046875 472.202148438 l 1
 281.8671875 114.708007812 l 1
 480.658203125 472.202148438 l 1
 507.05859375 472.202148438 l 26
 514.301757812 472.202148438 520.8515625 454.803710938 525.538085938 426.747070312 c 1
EndSplineSet
Validated: 33
EndChar

StartChar: w
Encoding: 119 119 48
Width: 691
VWidth: 0
Flags: HMW
HStem: 0 26G<133 203 381 451> 447 25G<29 85 499 555>
VStem: 18 59<444 472>
DStem2: 18 426 77 472 0.236221 -0.971699<18.0321 45.6215> 178 177 292 209 0.432992 0.901398<0 73.2032> 406 177 292 209 0.432992 -0.901398<-73.2032 0> 507 472 566 426 0.236221 0.971699<-187.122 0>
LayerCount: 2
Back
SplineSet
78 378 m 29
 129 391 l 29
 178 197 l 29
 272 326 l 29
 321 323 l 29
 394 218 l 29
 467 391 l 29
 510 385 l 29
 522 343 l 29
 442 4 l 29
 392 0 l 29
 314 105 l 29
 285 100 l 29
 209 5 l 29
 137 6 l 29
 67 322 l 29
 78 378 l 29
EndSplineSet
Fore
SplineSet
268.240234375 364.9921875 m 1
 268.240234375 364.9921875 273.51953125 372.36328125 292 372.36328125 c 0
 310.48046875 372.36328125 315.759765625 364.9921875 315.759765625 364.9921875 c 1
 405.51953125 177.032226562 l 1
 507.000976562 471.872070312 l 1
 541.861328125 471.872070312 l 25
 541.861328125 471.872070312 565.715820312 466.958007812 565.583007812 426.416992188 c 1
 521.6796875 272.854492188 444.159179688 0.1279296875 444.159179688 0.1279296875 c 1
 392.3203125 0.1279296875 l 1
 292 208.97265625 l 1
 191.6796875 0.1279296875 l 1
 139.840820312 0.1279296875 l 1
 139.840820312 0.1279296875 62.3203125 272.854492188 18.4169921875 426.416992188 c 1
 18.2841796875 466.958007812 42.138671875 471.872070312 42.138671875 471.872070312 c 25
 76.9990234375 471.872070312 l 1
 178.48046875 177.032226562 l 1
 268.240234375 364.9921875 l 1
EndSplineSet
Validated: 33
EndChar

StartChar: x
Encoding: 120 120 49
Width: 691
VWidth: 0
Flags: HMW
DStem2: 89 479 31 430 0.715781 -0.698325<-14.4027 261.93 342.062 617.181> 31 55 82 -0 0.715199 0.698921<-12.2475 263.67 343.86 619.443>
LayerCount: 2
Back
Fore
SplineSet
88.6787109375 479.057617188 m 1
 88.6787109375 479.057617188 64.7783203125 477.970703125 50.3984375 465.543945312 c 0
 31.9189453125 449.57421875 30.5986328125 429.916992188 30.5986328125 429.916992188 c 17
 221.999023438 243.185546875 l 25
 30.5986328125 55.224609375 l 1
 30.5986328125 55.224609375 31.927734375 38.986328125 48.09765625 22.0556640625 c 0
 69.2177734375 -0.0576171875 82.41796875 -0.0576171875 82.41796875 -0.0576171875 c 1
 276.013671875 189.131835938 l 1
 468.838867188 -0.0576171875 l 25
 468.838867188 -0.0576171875 482.0390625 -0.0576171875 503.159179688 22.0556640625 c 0
 519.329101562 38.986328125 520.658203125 55.224609375 520.658203125 55.224609375 c 1
 330.239257812 241.95703125 l 25
 520.658203125 429.916992188 l 1
 520.658203125 429.916992188 519.337890625 449.57421875 500.857421875 465.543945312 c 0
 486.478515625 477.970703125 462.578125 479.057617188 462.578125 479.057617188 c 1
 276.012695312 296.01171875 l 1
 88.6787109375 479.057617188 l 1
EndSplineSet
Validated: 9
EndChar

StartChar: y
Encoding: 121 121 50
Width: 691
VWidth: 0
Flags: HMW
HStem: -192 70<82.1719 233.2>
DStem2: 339 77 288 13 0.442929 -0.896557<-432.529 0> 339 77 562 359 0.443861 0.896096<117.753 430.831>
LayerCount: 2
Back
SplineSet
55 -65 m 29
 78 -55 l 29
 118 -59 l 29
 133 -91 l 29
 157 -110 l 29
 226 -111 l 29
 254 -70 l 29
 270 -1 l 29
 270 34 l 29
 99 319 l 29
 101 382 l 29
 164 377 l 29
 297 158 l 29
 419 370 l 29
 492 378 l 29
 494 306 l 29
 296 -180 l 29
 193 -210 l 29
 102 -187 l 29
 61 -135 l 29
 55 -65 l 29
EndSplineSet
Fore
SplineSet
562 359 m 0
 495 218 373 -49 328 -103 c 0
 278 -163 234 -192 151 -192 c 0
 96 -192 23 -179 -36 -93 c 1
 -33 -68 -18 -59 -7 -52 c 0
 6 -43 17 -43 38 -41 c 1
 68 -89 84 -122 155 -122 c 0
 213 -122 243 -98 267 -68 c 0
 286 -44 310 0 310 6 c 0
 310 7 293 4 288 13 c 0
 206 146 174 217 111 359 c 0
 93 401 81 432 81 432 c 1
 77 454 85 473 100 477 c 25
 129 477 l 1
 339 77 l 1
 405 196 482 358 548 477 c 1
 575 477 l 26
 582 477 588 460 593 432 c 1
 593 432 582 401 562 359 c 0
EndSplineSet
Validated: 33
EndChar

StartChar: z
Encoding: 122 122 51
Width: 691
VWidth: 0
Flags: HMW
HStem: 1 84<143 481> 402 70<82.6882 382>
DStem2: 65 119 143 85 0.751668 0.659542<36.2057 424.929>
LayerCount: 2
Back
Fore
SplineSet
40 41 m 1
 40 41 33 59 33 76 c 0
 33 85 59 113 65 119 c 4
 374 395 382 402 382 402 c 5
 130 402 l 1
 130 402 80 402 80 428 c 0
 80 469 101 472 101 472 c 1
 472 472 l 1
 502 444 l 17
 502 444 508 431 508 418 c 0
 508 411 507 404 502 400 c 4
 159 100 143 85 143 85 c 5
 502 84 l 1
 502 13 l 1
 481 1 l 25
 80 1 l 2
 54 1 53 13 40 41 c 1
EndSplineSet
Validated: 1
EndChar

StartChar: zero
Encoding: 48 48 52
Width: 691
VWidth: 0
Flags: HW
HStem: 29.3555 85.5732<250.886 416.59> 705 80.5332<254.071 413.126>
VStem: 54.1191 61.5811<268.345 541.746> 551.16 62.7207<275.447 540.061>
LayerCount: 2
Back
Fore
SplineSet
332.77734375 705 m 0
 258.580078125 705 115.700195312 632.522460938 115.700195312 407.083984375 c 0
 115.700195312 174.911132812 242.798828125 114.928710938 330.579101562 114.928710938 c 0
 419.677734375 114.928710938 551.16015625 190.745117188 551.16015625 407.083984375 c 0
 551.16015625 647.873046875 410.36328125 705 332.77734375 705 c 0
613.703125 419.380859375 m 0
 613.819335938 415.235351562 613.880859375 411.053710938 613.880859375 406.836914062 c 0
 613.880859375 146.821289062 404.327148438 29.35546875 358.075195312 29.35546875 c 2
 307.48046875 29.35546875 l 2
 257.98828125 29.35546875 54.119140625 147.0703125 54.119140625 406.836914062 c 0
 54.119140625 651.576171875 260.32421875 785.533203125 307.48046875 785.533203125 c 2
 358.075195312 785.533203125 l 2
 407.451171875 785.533203125 607.015625 656.78515625 613.703125 419.380859375 c 0
EndSplineSet
Validated: 1
EndChar

StartChar: one
Encoding: 49 49 53
Width: 691
VWidth: 0
Flags: HW
VStem: 336.956 78.0107<308.147 603.497> 339.232 65.0078<71.4131 548.266>
LayerCount: 2
Back
Fore
SplineSet
262.19921875 650.383789062 m 4x80
 298.169921875 697.251953125 324.64453125 785 324.64453125 785 c 5
 414.966796875 785 l 5x80
 404.240234375 71.4130859375 l 29
 339.232421875 71.4130859375 l 5x40
 336.956054688 603.497070312 l 5
 279.643554688 581.891601562 l 5
 176.713867188 581.891601562 l 5
 176.713867188 581.891601562 221.569335938 597.446289062 262.19921875 650.383789062 c 4x80
EndSplineSet
Validated: 1
EndChar

StartChar: two
Encoding: 50 50 54
Width: 691
VWidth: 0
Flags: HW
HStem: 2.9199 73.0801<155.707 538.846> 709.78 70.5605<261.019 427.815>
VStem: 505 77.1689<448.265 623.946>
LayerCount: 2
Back
Fore
SplineSet
582.168945312 517 m 7
 582.168945312 451.577148438 555.684570312 406.954101562 498.229492188 368.939453125 c 6
 177.369140625 156.640625 l 5
 158.415039062 139 155.70703125 76 155.70703125 76 c 5
 538.845703125 76 l 29
 538.845703125 2.919921875 l 29
 108.323242188 2.919921875 l 4
 101.553710938 1.66015625 90.72265625 9.2216796875 90.72265625 106.240234375 c 7
 90.72265625 181.8828125 100.200195312 188.140625 108.323242188 190.66015625 c 5
 453.552734375 419.979492188 l 6
 493.0078125 446.186523438 505 482.8359375 505 527.080078125 c 7
 505 610.40234375 458.977539062 709.780273438 354.72265625 709.780273438 c 7
 247.76953125 709.780273438 194.969726562 645.520507812 162.4765625 567.400390625 c 5
 148.938476562 564.879882812 143.791015625 562.360351562 129.984375 562.360351562 c 7
 109.275390625 562.360351562 76.44140625 563.427734375 82.6005859375 581.259765625 c 4
 119.154296875 687.100585938 216.939453125 780.340820312 356.076171875 780.340820312 c 7
 505.030273438 780.340820312 582.168945312 643.005859375 582.168945312 517 c 7
EndSplineSet
Validated: 33
EndChar

StartChar: three
Encoding: 51 51 55
Width: 691
VWidth: 0
Flags: HW
HStem: 418.601 69.9897<396.831 486.108> 706.6 72.4002<162.955 443.205>
VStem: 521.201 69.9977<221.569 382.146>
LayerCount: 2
Back
Fore
SplineSet
562.389648438 725.8203125 m 0
 561.15625 749.249023438 549.826171875 781.604492188 519.545898438 781.399414062 c 2
 163.149414062 779 l 2
 147.135742188 778.897460938 91.599609375 721.966796875 91.599609375 689.399414062 c 0
 91.599609375 662.974609375 103.297851562 653.799804688 129.599609375 653.799804688 c 0
 198.373046875 653.799804688 65.400390625 706.599609375 342 706.599609375 c 0
 450.181640625 706.599609375 443.200195312 694.640625 443.200195312 690.599609375 c 0
 443.200195312 680.577148438 440.91796875 676.032226562 433.640625 668.75390625 c 2
 234.540039062 482.84765625 l 2
 227.459960938 476.236328125 214 468.68359375 214 451.799804688 c 0
 214 436.677734375 224.662109375 421 241.151367188 421 c 2
 437.830078125 418.6015625 l 2
 488.221679688 417.529296875 520.255859375 368.930664062 521.201171875 313.663085938 c 0
 525.888671875 39.43359375 65.771484375 5.255859375 68.8115234375 -50.2373046875 c 0
 69.1572265625 -56.5439453125 71.6005859375 -62.3564453125 75.873046875 -66.6923828125 c 0
 121.083007812 -112.579101562 368.817382812 -4.31640625 501.2890625 129.706054688 c 0
 554.78515625 183.828125 592.221679688 244.69921875 591.19921875 306.731445312 c 0
 589.389648438 416.470703125 506.737304688 493.586914062 396.831054688 488.590820312 c 2
 339.45703125 485.943359375 l 1
 528.857421875 675.342773438 l 2
 541.283203125 687.76953125 563.905273438 700.036132812 562.389648438 725.8203125 c 0
EndSplineSet
Validated: 41
EndChar

StartChar: four
Encoding: 52 52 56
Width: 691
VWidth: 0
Flags: HW
LayerCount: 2
Back
Fore
SplineSet
385 712.405837204 m 1
 305.708352588 580.926277513 223.802086581 452.753922853 145.143634683 321.910820682 c 2
 142.233762104 317.06103305 l 1
 142.233762104 317.06103305 140.612903214 313.239233753 140.722363503 312.175948386 c 0
 141.586270304 303.784051509 148.198301168 273.07000211 152.228056726 267.30078125 c 1
 385 267.30078125 l 1
 385 712.405837204 l 1
322.279969177 743.758547516 m 1
 322.433050299 743.959310241 l 2
 336.159804144 761.961663922 352.067358147 768.858759414 368.542592265 770.421829654 c 2
 368.757122094 770.44239835 l 1
 368.972574784 770.44752253 l 1
 428.443716511 771.861924867 l 2
 445.255091215 772.21571536 450.211255237 691.448980019 451.392927644 666.321921245 c 2
 451.399414062 666.183994181 l 1
 451.399414062 666.045917846 l 1
 451.399414062 269.315656281 l 1
 525.799804687 269.315656281 l 1
 531.799804688 269.315656281 l 1
 531.799804688 263.378342524 l 1
 531.799804688 209.510555944 l 1
 531.799804688 203.573242188 l 1
 525.799804688 203.573242188 l 1
 451.399414062 203.573242188 l 1
 451.399414062 14.0627576106 l 1
 451.399414062 8.05672811632 l 1
 445.212089574 8.24999523077 l 1
 390.812675511 9.94921398077 l 1
 385 10.130778569 l 1
 385 15.7712683327 l 1
 385 203.49609375 l 1
 195.411132812 203.49609375 l 1
 195.106524116 203.49609375 l 1
 193.689249886 203.720367722 l 1
 193.689249886 203.720367722 65.7998046875 220.878799813 65.7998046875 279.985405144 c 0
 65.7998046875 331.989219321 84.246824695 369.497111911 85.9111933386 372.108591988 c 2
 322.144594257 743.545693771 l 1
 322.279969177 743.758547516 l 1
EndSplineSet
Validated: 33
EndChar

StartChar: five
Encoding: 53 53 57
Width: 691
VWidth: 0
Flags: HW
HStem: 462.798 74.499<232.755 427.263> 702.759 65.2412<186 543.411>
VStem: 99.2002 86.7998<497.779 702.759> 498.8 70<234.522 394.204>
LayerCount: 2
Back
Fore
SplineSet
137.200195312 383.98828125 m 4
 109.554579556 383.98828125 100.31273955 405.419065646 99.2001953125 407.6875 c 5
 99.2001953125 768 l 5
 543.411132812 768 l 5
 543.931718694 746.246758173 544.465716861 724.508111278 544.9921875 702.758789062 c 5
 425.328125 702.758789062 305.6640625 702.758789063 186 702.758789062 c 5
 186 497.779296875 l 5
 238.5 520.354492188 258.776367188 537.296875 340 537.296875 c 4
 461.67578125 537.296875 568.799804688 427.564453125 568.799804688 294.201171875 c 4
 568.799804688 123.696289062 233.045898438 -32.501953125 119.526367188 -32.8466796875 c 4
 96.6806640625 -32.916015625 75.2001953125 -25.970703125 75.2001953125 -4.5703125 c 4
 75.2001953125 21.53515625 498.799804688 83.9736328125 498.799804688 317.725585938 c 4
 498.799804688 408.227539062 423.98046875 462.797851562 341.200195312 462.797851562 c 4
 204.634765625 462.797851562 172.458984375 383.98828125 137.200195312 383.98828125 c 4
EndSplineSet
Validated: 33
EndChar

StartChar: six
Encoding: 54 54 58
Width: 691
VWidth: 0
Flags: HW
HStem: 5.2002 65.5996<257.74 410.92> 401.6 69.6063<246.129 398.048>
VStem: 81 89.2002<212.452 422.289> 479.4 61.5996<148.346 318.661>
LayerCount: 2
Back
SplineSet
314.287109375 575.458007812 m 4
 397.322265625 615.881835938 482.62109375 631.169921875 505.629882812 609.755859375 c 4
 511.520507812 604.274414062 469.52734375 577.296875 413.569335938 550.61328125 c 4
 274.57421875 484.336914062 226.486328125 440.524414062 233.239257812 386.31640625 c 4
 237.7734375 349.916015625 249.301757812 343.046875 319.702148438 334.795898438 c 4
 438.83984375 320.833007812 482.1640625 302.763671875 482.1640625 267.036132812 c 4
 482.1640625 250.236328125 490.713867188 235.116210938 500.21484375 235.116210938 c 4
 510.411132812 235.116210938 518.265625 187.236328125 518.265625 125.076171875 c 4
 518.265625 30.9951171875 511.8515625 9.06640625 474.040039062 -26.1240234375 c 4
 438.004882812 -59.662109375 411.762695312 -67.2841796875 332.337890625 -67.2841796875 c 4
 230.958984375 -67.2841796875 200.330078125 -48.8046875 142.997070312 46.9560546875 c 4
 115.83984375 92.31640625 112.8046875 329.178710938 139.189453125 344.15234375 c 4
 149.393554688 349.942382812 157.241210938 371.1953125 157.241210938 393.036132812 c 4
 157.241210938 414.875976562 172.9375 444.823242188 193.34375 461.916015625 c 4
 213.19921875 478.547851562 229.4453125 501.60546875 229.4453125 513.155273438 c 4
 229.4453125 524.7734375 267.352539062 552.609375 314.287109375 575.458007812 c 4
373.85546875 251.916015625 m 4
 373.85546875 276.388671875 270.826171875 272.076171875 253.461914062 246.875976562 c 4
 181.689453125 142.715820312 178.315429688 96.2216796875 238.471679688 40.236328125 c 4
 269.879882812 11.0048828125 298.266601562 -0.083984375 354 -0.083984375 c 4
 413.793945312 -0.083984375 429.763671875 6.63671875 454.674804688 53.67578125 c 4
 505.384765625 149.436523438 482.564453125 235.116210938 406.348632812 235.116210938 c 4
 388.296875 235.116210938 373.85546875 242.583007812 373.85546875 251.916015625 c 4
EndSplineSet
Fore
SplineSet
538.743164062 757.39453125 m 1
 531.33203125 755.587890625 l 2
 297.770507812 698.66015625 199.19140625 576.25 193.266601562 428.787109375 c 1
 239.361328125 446.22265625 272.83984375 471.206054688 320.599609375 471.206054688 c 0
 447.509765625 471.206054688 541 362.487304688 541 239.966796875 c 0
 541 121.977539062 463.014648438 5.2001953125 339.799804688 5.2001953125 c 0
 202.314453125 5.2001953125 81 181.905273438 81 319.973632812 c 0
 81 524.604492188 265.71484375 785.194335938 525.686523438 788.798828125 c 2
 532.33984375 788.893554688 l 1
 533.64453125 782.369140625 l 1
 537.245117188 764.732421875 l 1
 538.743164062 757.39453125 l 1
479.400390625 239.200195312 m 0
 479.400390625 328.642578125 406.24609375 401.599609375 317 401.599609375 c 0
 229.310546875 401.599609375 170.200195312 315.91796875 170.200195312 224.799804688 c 0
 170.200195312 135.139648438 252.943359375 70.7998046875 345.799804688 70.7998046875 c 0
 427.138671875 70.7998046875 479.400390625 153.659179688 479.400390625 239.200195312 c 0
EndSplineSet
Validated: 1
EndChar

StartChar: seven
Encoding: 55 55 59
Width: 691
VWidth: 0
Flags: HW
HStem: 725.255 50.7326<173.788 240.282 475.441 484.188>
VStem: 82.2002 31.5991<592.499 656.06> 288.6 93.9931<-4.5923 243.905> 484.195 67.6046<685.871 727.589>
LayerCount: 2
Back
SplineSet
390.923828125 541.80078125 m 0xe8
 397.421875 551.880859375 408.252929688 558.600585938 418 558.600585938 c 0
 427.747070312 558.600585938 438.579101562 551.880859375 445.077148438 541.80078125 c 0
 450.82421875 532.885742188 476.666992188 525 500.1328125 525 c 0
 536.461914062 525 544.359375 516.600585938 544.359375 477.9609375 c 0
 544.359375 451.080078125 528.887695312 420.840820312 508.256835938 407.399414062 c 0
 487.625976562 393.9609375 472.154296875 363.720703125 472.154296875 336.840820312 c 0
 472.154296875 311.640625 463.7734375 289.80078125 454.102539062 289.80078125 c 0
 444.17578125 289.80078125 436.051757812 274.680664062 436.051757812 256.201171875 c 0xe8
 436.051757812 237.720703125 427.928710938 222.600585938 418 222.600585938 c 0
 407.34375 222.600585938 399.94921875 165.48046875 399.94921875 83.1611328125 c 0
 399.94921875 -42.8388671875 373.807617188 -146.999023438 342.184570312 -146.999023438 c 0
 336.09375 -146.999023438 321.087890625 -135.239257812 307.888671875 -120.118164062 c 0
 289.361328125 -98.8984375 288.982421875 -86.51953125 306.08203125 -61.3193359375 c 0
 318.079101562 -43.640625 327.744140625 19.3212890625 327.744140625 79.80078125 c 0xf0
 327.744140625 141.9609375 335.520507812 189.000976562 345.795898438 189.000976562 c 0
 355.72265625 189.000976562 363.846679688 204.12109375 363.846679688 222.600585938 c 0
 363.846679688 241.080078125 371.969726562 256.201171875 381.8984375 256.201171875 c 0
 392.126953125 256.201171875 399.94921875 278.041015625 399.94921875 306.600585938 c 0
 399.94921875 335.161132812 407.772460938 357.000976562 418 357.000976562 c 0
 428.228515625 357.000976562 436.051757812 378.840820312 436.051757812 407.399414062 c 0
 436.051757812 456.772460938 434.247070312 457.80078125 347.599609375 457.80078125 c 0
 293.446289062 457.80078125 255.888671875 466.26953125 250.740234375 479.640625 c 0
 240.833984375 505.36328125 147.231445312 430.920898438 147.231445312 397.321289062 c 0
 147.231445312 385.560546875 138.899414062 370.828125 129.1796875 365.400390625 c 0
 118.098632812 359.212890625 111.12890625 388.080078125 111.12890625 440.161132812 c 2
 111.12890625 525 l 1
 245.611328125 525 l 2
 319.62109375 525 384.962890625 532.5546875 390.923828125 541.80078125 c 0xe8
EndSplineSet
Fore
SplineSet
82.2001953125 690.045898438 m 1
 82.2001953125 682.435546875 l 1
 82.2001953125 592.591796875 l 1
 82.2001953125 584.427734375 l 1
 90.2001953125 584.427734375 l 1
 105.799804688 584.427734375 l 1
 113.708984375 584.427734375 l 1
 113.798828125 592.499023438 l 2
 114.930664062 694.12109375 203.165039062 724.868164062 240.282226562 725.254882812 c 2
 475.44140625 727.704101562 l 2
 483.518554688 727.704101562 484.044921875 724.918945312 484.1953125 718.095703125 c 0
 475.297851562 689.708984375 283.8984375 380.413085938 288.600585938 18.15625 c 0
 288.706054688 10.017578125 291.173828125 2.0791015625 295.014648438 -4.9208984375 c 0
 303.96484375 -21.236328125 323.921875 -36.9541015625 343.819335938 -25.533203125 c 0
 377.59375 -4.8515625 384.020507812 29.478515625 382.59375 66.3505859375 c 0
 375.424804688 251.698242188 414.62890625 553.185546875 549.302734375 683.456054688 c 2
 551.799804688 685.87109375 l 1
 551.799804688 689.380859375 l 1
 551.799804688 768.984375 l 1
 551.799804688 777.004882812 l 1
 543.779296875 776.984375 l 1
 157.379882812 776 l 1
 152.463867188 775.987304688 l 1
 150.25390625 771.596679688 l 2
 123.483398438 717.315429688 94.6025390625 691.557617188 89.595703125 690.576171875 c 2
 82.2001953125 690.045898438 l 1
EndSplineSet
Validated: 41
EndChar

StartChar: eight
Encoding: 56 56 60
Width: 691
VWidth: 0
Flags: HW
HStem: 53.6006 75.5996<215.225 460.806> 406.8 77.6006<230.522 439.376> 690 76.7998<202.277 450.147>
VStem: 58.7002 76.3994<191.787 324.865 543.925 636.561> 511.1 58.4004<542.19 641.553> 541.1 69.2002<191.997 315.439>
LayerCount: 2
Back
SplineSet
511 474 m 1053
165.046875 525.39453125 m 4
 194.645507812 557.802734375 218.388671875 564.03515625 312.255859375 564.03515625 c 4
 456.666015625 564.03515625 519.844726562 537.447265625 519.844726562 476.674804688 c 4
 519.844726562 451.474609375 528.225585938 429.634765625 537.896484375 429.634765625 c 4
 547.475585938 429.634765625 555.948242188 410.314453125 555.948242188 388.474609375 c 4
 555.948242188 366.634765625 547.475585938 342.42578125 537.896484375 336.8984375 c 4
 507.5703125 319.400390625 518.041015625 251.155273438 555.948242188 219.234375 c 4
 614.099609375 170.26953125 603.379882812 86.9140625 530.07421875 18.03515625 c 4
 468.594726562 -39.7333984375 464.790039062 -40.765625 313.158203125 -40.765625 c 4
 195.82421875 -40.765625 158.8203125 -35.3271484375 158.8203125 -18.0859375 c 4
 158.8203125 -5.6103515625 142.573242188 18.2353515625 122.717773438 34.9072265625 c 4
 72.173828125 77.3466796875 72.173828125 210.72265625 122.717773438 253.162109375 c 4
 142.573242188 269.833984375 158.8203125 292.168945312 158.8203125 302.794921875 c 4
 158.8203125 313.420898438 142.573242188 332.844726562 122.717773438 345.959960938 c 4
 68.5634765625 381.727539062 80.658203125 432.995117188 165.046875 525.39453125 c 4
478.328125 459.860351562 m 4
 416.953125 513.502929688 252.83203125 512.528320312 197.955078125 458.1953125 c 6
 160.625 421.234375 l 5
 203.948242188 375.03515625 l 6
 242.130859375 334.31640625 259.907226562 328.834960938 353.7734375 328.834960938 c 4
 433.19921875 328.834960938 467.833984375 336.5234375 490.002929688 359.07421875 c 4
 530.640625 400.413085938 528.87109375 415.68359375 478.328125 459.860351562 c 4
375.434570312 244.834960938 m 4
 375.434570312 271.576171875 281.568359375 262.818359375 222 230.518554688 c 4
 178.16015625 206.748046875 166.814453125 187.71484375 162.430664062 130.594726562 c 4
 157.66015625 68.4345703125 161.419921875 60.0361328125 194.01953125 60.0361328125 c 4
 213.875976562 60.0361328125 231.025390625 52.2490234375 231.025390625 43.234375 c 4
 231.025390625 33.81640625 283.374023438 26.4345703125 350.163085938 26.4345703125 c 4
 476.521484375 26.4345703125 519.844726562 47.8818359375 519.844726562 110.434570312 c 4
 519.844726562 150.754882812 442.741210938 228.03515625 402.512695312 228.03515625 c 4
 388.071289062 228.03515625 375.434570312 235.875 375.434570312 244.834960938 c 4
EndSplineSet
Fore
SplineSet
135.099609375 252.400390625 m 0xf4
 135.099609375 347.616210938 231.857421875 406.799804688 329.099609375 406.799804688 c 0
 432.7734375 406.799804688 541.099609375 353.28515625 541.099609375 252.400390625 c 0
 541.099609375 165.161132812 439.3828125 129.200195312 348.299804688 129.200195312 c 0
 249.545898438 129.200195312 135.099609375 158.26171875 135.099609375 252.400390625 c 0xf4
136.299804688 582.400390625 m 0
 136.299804688 665.6796875 238.649414062 690 326.700195312 690 c 0
 406.5234375 690 511.099609375 666.637695312 511.099609375 592 c 0xf8
 511.099609375 514.423828125 420.29296875 484.400390625 338.700195312 484.400390625 c 0
 247.575195312 484.400390625 136.299804688 497.11328125 136.299804688 582.400390625 c 0
569.5 602.557617188 m 0
 569.5 724.176757812 440.83203125 766.799804688 324.299804688 766.799804688 c 0
 200.595703125 766.799804688 59.900390625 720.596679688 59.900390625 591.635742188 c 0
 59.900390625 521.567382812 157.099609375 516.711914062 157.099609375 455.7109375 c 0
 157.099609375 379.470703125 58.7001953125 360.0546875 58.7001953125 276.096679688 c 0
 58.7001953125 136.9765625 195.9296875 53.6005859375 331.5 53.6005859375 c 0
 464.140625 53.6005859375 610.299804688 120.7734375 610.299804688 257.892578125 c 0xf4
 610.299804688 348.524414062 485.5 355.806640625 485.5 437.506835938 c 0
 485.5 506.65625 569.5 526.053710938 569.5 602.557617188 c 0
EndSplineSet
Validated: 9
EndChar

StartChar: nine
Encoding: 57 57 61
Width: 691
VWidth: 0
Flags: HW
HStem: 290.199 71.2686<214.86 394.987> 702.673 67.3271<199.498 355.858>
VStem: 57.1299 66.6162<448.913 618.237> 474.49 91.4795<437.89 559.125>
LayerCount: 2
Back
SplineSet
186 520.034179688 m 4
 258.205078125 560.81640625 393.163085938 560.274414062 433.423828125 519.036132812 c 4
 525.276367188 424.958007812 589.52734375 204.907226562 534.389648438 173.244140625 c 4
 524.71875 167.690429688 516.337890625 141.037109375 516.337890625 115.836914062 c 4
 516.337890625 62.078125 475.72265625 -22.552734375 435.107421875 -53.421875 c 4
 420.666015625 -64.3984375 408.030273438 -84.978515625 408.030273438 -97.521484375 c 4
 408.030273438 -110.350585938 389.978515625 -121.041992188 368.317382812 -121.041992188 c 4
 347.245117188 -121.041992188 307.845703125 -138.78515625 284.379882812 -158.842773438 c 4
 253.692382812 -185.071289062 237.666992188 -190.213867188 232.030273438 -175.642578125 c 4
 227.426757812 -163.743164062 200.440429688 -154.641601562 169.752929688 -154.641601562 c 4
 95.275390625 -154.641601562 106.57421875 -97.3759765625 182.389648438 -90.6015625 c 4
 213.076171875 -87.8583984375 252.1875 -79.2099609375 272.646484375 -70.642578125 c 4
 292.501953125 -62.326171875 324.995117188 -53.181640625 344.850585938 -50.322265625 c 4
 395.393554688 -43.0419921875 488.459960938 127.09765625 459.6328125 159.517578125 c 4
 444.692382812 176.317382812 433.302734375 177.997070312 419.763671875 165.397460938 c 4
 409.149414062 155.518554688 361.09765625 147.7578125 310.553710938 147.7578125 c 4
 231.127929688 147.7578125 212.065429688 155.216796875 151.702148438 209.91796875 c 4
 97.548828125 258.991210938 83.1083984375 285.163085938 83.1083984375 334.237304688 c 4
 83.1083984375 413.197265625 122.369140625 484.09375 186 520.034179688 c 4
451.353515625 412.357421875 m 4
 416.161132812 473.768554688 412.54296875 475.484375 307.845703125 480.396484375 c 4
 206.7578125 485.140625 199.079101562 482.670898438 177.294921875 438.397460938 c 4
 143.40234375 369.517578125 149.325195312 274.852539062 189.610351562 241.59375 c 4
 214.84765625 220.756835938 249.1796875 214.609375 319.579101562 218.317382812 c 4
 409.834960938 223.072265625 417.293945312 226.923828125 451.353515625 286.357421875 c 4
 486.974609375 348.517578125 486.974609375 350.197265625 451.353515625 412.357421875 c 4
EndSplineSet
Fore
SplineSet
59.4853515625 -4.333984375 m 1
 68.0478515625 -3.19140625 l 2
 362.953125 36.1396484375 471.194335938 104.647460938 476.684570312 349.520507812 c 1
 450.58984375 326.889648438 395.390625 290.19921875 300.893554688 290.19921875 c 0
 161.088867188 290.19921875 57.1298828125 401.6171875 57.1298828125 528.28125 c 0
 57.1298828125 650.302734375 143.96875 770 279.58203125 770 c 0
 430.51953125 770 565.969726562 608.24609375 565.969726562 445.831054688 c 0
 565.969726562 425.180664062 565.3515625 403.96875 563.890625 382.494140625 c 0
 549.661132812 173.333007812 453.517578125 -62.203125 72.583984375 -37.08984375 c 2
 66.5703125 -36.6845703125 l 1
 65.30078125 -30.79296875 l 1
 61.3056640625 -12.6162109375 l 1
 59.4853515625 -4.333984375 l 1
123.74609375 528.98046875 m 0
 123.74609375 437.231445312 204.827148438 361.467773438 304.889648438 361.467773438 c 0
 405.065429688 361.467773438 474.490234375 427.431640625 474.490234375 519.446289062 c 0
 474.490234375 594.616210938 375.020507812 702.672851562 272.920898438 702.672851562 c 0
 181.452148438 702.672851562 123.74609375 616.653320312 123.74609375 528.98046875 c 0
EndSplineSet
Validated: 33
EndChar

StartChar: exclam
Encoding: 33 33 62
Width: 691
VWidth: 0
Flags: HW
HStem: 1.966 160.934<100.607 215.86>
VStem: 78.8821 157.248<23.4764 143.312 419.707 787.869> 137.851 36.855<272.236 345.036>
LayerCount: 2
Back
SplineSet
84.4267578125 613.530273438 m 4x80
 88.7138671875 671.409179688 219.806640625 688.077148438 224.489257812 631.338867188 c 4x80
 225.919921875 613.999023438 232.986328125 468.834960938 240.416992188 304.104492188 c 4
 252.06640625 45.8779296875 243.24609375 5.189453125 171.409179688 -14.2265625 c 4
 126.88671875 -26.2587890625 87.9560546875 -22.16796875 86.6767578125 -5.3212890625 c 4x40
 82.2802734375 52.556640625 80.4365234375 559.671875 84.4267578125 613.530273438 c 4x80
EndSplineSet
Fore
SplineSet
77.6533203125 85.5048828125 m 0xc0
 77.6533203125 42.5068359375 112.051757812 1.9658203125 155.048828125 1.9658203125 c 24
 201.731445312 1.9658203125 234.90234375 38.8203125 234.90234375 85.5048828125 c 0
 234.90234375 129.729492188 201.731445312 162.900390625 156.27734375 162.900390625 c 24
 114.508789062 162.900390625 77.6533203125 127.272460938 77.6533203125 85.5048828125 c 0xc0
136.62109375 272.236328125 m 5xa0
 173.4765625 272.236328125 l 29
 173.4765625 272.236328125 217.551757812 440.559570312 231.215820312 549.876953125 c 4
 241.043945312 628.500976562 234.90234375 756.264648438 234.90234375 756.264648438 c 6
 235.2890625 788.201171875 185.786132812 798.034179688 155.048828125 798.034179688 c 31
 119.337890625 798.034179688 74.396484375 790.672851562 75.1962890625 756.264648438 c 6
 75.1962890625 756.264648438 67.78515625 632.180664062 78.8818359375 549.876953125 c 4
 93.6240234375 440.541015625 136.62109375 272.236328125 136.62109375 272.236328125 c 5xa0
EndSplineSet
Validated: 41
EndChar

StartChar: quotedbl
Encoding: 34 34 63
Width: 691
VWidth: 0
Flags: HW
HStem: 445.263 324.942<140.899 176 386.899 422>
LayerCount: 2
Back
SplineSet
209.251953125 632.674804688 m 4
 369.530273438 652.264648438 489.061523438 594.44921875 488.158203125 497.7734375 c 4
 486.743164062 346.400390625 435.603515625 222.190429688 387.338867188 252.904296875 c 4
 361.103515625 269.599609375 280.487304688 279.935546875 213.704101562 275.165039062 c 4
 96.93359375 266.82421875 89.0439453125 277.391601562 89.0439453125 442.122070312 c 4
 89.0439453125 602.400390625 99.6953125 619.284179688 209.251953125 632.674804688 c 4
EndSplineSet
Fore
SplineSet
140.899414062 445.263671875 m 5
 176 445.263671875 l 29
 176 445.263671875 217.975585938 549.286132812 230.989257812 616.844726562 c 4
 240.349609375 665.434570312 234.5 744.392578125 234.5 744.392578125 c 6
 234.868164062 764.12890625 187.72265625 770.205078125 158.44921875 770.205078125 c 31
 124.438476562 770.205078125 81.6376953125 765.657226562 82.3994140625 744.392578125 c 6
 82.3994140625 744.392578125 75.3408203125 667.708007812 85.9091796875 616.844726562 c 4
 99.94921875 549.274414062 140.899414062 445.263671875 140.899414062 445.263671875 c 5
386.899414062 445.263671875 m 1
 422 445.263671875 l 25
 422 445.263671875 463.975585938 549.286132812 476.989257812 616.844726562 c 0
 486.349609375 665.434570312 480.5 744.392578125 480.5 744.392578125 c 2
 480.868164062 764.12890625 433.72265625 770.205078125 404.44921875 770.205078125 c 27
 370.438476562 770.205078125 327.637695312 765.657226562 328.399414062 744.392578125 c 2
 328.399414062 744.392578125 321.340820312 667.708007812 331.909179688 616.844726562 c 0
 345.94921875 549.274414062 386.899414062 445.263671875 386.899414062 445.263671875 c 1
EndSplineSet
Validated: 41
EndChar

StartChar: numbersign
Encoding: 35 35 64
Width: 691
VWidth: 0
Flags: HMW
HStem: 234.926 67.5675<25.7242 170.264 277.242 369.019 477.774 611.065> 447.456 68.796<111.689 240.368 346.731 442.75 550.04 696.792>
DStem2: 41.254 -143.188 113.579 -177.993 0.32134 0.946964<-34.3829 399.488 494.561 623.352 719.432 1060.46> 242.385 -143.188 314.71 -177.993 0.32134 0.946964<-34.3829 398.818 494.392 623.706 720.047 1060.46>
LayerCount: 2
Back
SplineSet
318.49609375 555.65234375 m 4
 382.588867188 734.577148438 441.1796875 729.287109375 417.124023438 546.748046875 c 6
 400.6953125 422.086914062 l 5
 463.640625 555.65234375 l 6
 549.064453125 736.918945312 587.209960938 720.3828125 597.147460938 497.7734375 c 4
 603.5078125 355.3046875 589.594726562 310.782226562 538.712890625 310.782226562 c 4
 487.341796875 310.782226562 491.96484375 295.37109375 558.748046875 244 c 4
 643.545898438 178.770507812 643.338867188 176.595703125 549.84375 150.50390625 c 4
 492.106445312 134.391601562 438.220703125 68.138671875 414.051757812 -16.4521484375 c 4
 380.978515625 -132.208984375 349.49609375 -158.638671875 233.739257812 -167.826171875 c 6
 93.49609375 -178.956054688 l 5
 104.625976562 30.2958984375 l 6
 110.783203125 146.051757812 140.622070312 247.504882812 171.409179688 257.356445312 c 4
 215.135742188 271.348632812 216.08984375 288.521484375 175.861328125 337.49609375 c 4
 136.221679688 385.751953125 140.243164062 399.826171875 193.669921875 399.826171875 c 4
 233.103515625 399.826171875 286.600585938 466.608398438 318.49609375 555.65234375 c 4
400.6953125 266.260742188 m 4
 400.6953125 291.702148438 380.661132812 310.782226562 353.948242188 310.782226562 c 4
 327.234375 310.782226562 318.6484375 291.702148438 333.913085938 266.260742188 c 4
 349.940429688 239.547851562 368.639648438 221.739257812 380.661132812 221.739257812 c 4
 392.681640625 221.739257812 400.6953125 239.547851562 400.6953125 266.260742188 c 4
EndSplineSet
Fore
SplineSet
191.106445312 302.4921875 m 1025
253.629882812 234.924804688 m 1029
392.475585938 302.4921875 m 1
 442.75 447.456054688 l 1
 325.9609375 447.456054688 l 1
 277.2421875 302.4921875 l 1
 392.475585938 302.4921875 l 1
477.774414062 302.4921875 m 1
 595.2890625 302.4921875 l 1
 595.2890625 302.4921875 611.40625 298.905273438 611.40625 268.094726562 c 0
 611.40625 237.381835938 601.150390625 234.924804688 601.150390625 234.924804688 c 1
 454.381835938 234.924804688 l 1
 314.7109375 -177.993164062 l 5
 302.94140625 -193.750976562 272.201171875 -192.5546875 256.81640625 -183.940429688 c 0
 243.196289062 -176.315429688 231.421875 -167.510742188 242.384765625 -143.1875 c 5
 369.018554688 234.924804688 l 1
 253.506835938 234.924804688 l 5
 113.579101562 -177.993164062 l 1
 101.810546875 -193.750976562 71.0703125 -192.5546875 55.6845703125 -183.940429688 c 0
 42.064453125 -176.315429688 30.2900390625 -167.510742188 41.25390625 -143.1875 c 1
 170.264648438 234.924804688 l 5
 41.443359375 234.924804688 l 5
 41.443359375 234.924804688 25.326171875 237.381835938 25.326171875 268.094726562 c 0
 25.326171875 297.6796875 41.443359375 302.4921875 41.443359375 302.4921875 c 1
 191.106445312 302.4921875 l 1
 240.3671875 447.456054688 l 1
 127.270507812 447.456054688 l 1
 127.270507812 447.456054688 111.153320312 449.913085938 111.153320312 480.625 c 0
 111.153320312 510.2109375 127.270507812 516.250976562 127.270507812 516.250976562 c 1
 263.547851562 516.250976562 l 1
 374.396484375 845.10546875 l 1
 381.250976562 856.762695312 405.151367188 856.2421875 421.620117188 850.184570312 c 0
 434.259765625 845.53515625 461.366210938 836.15625 453.310546875 823.16796875 c 1
 346.73046875 516.250976562 l 1
 466.798828125 516.250976562 l 1
 575.52734375 845.10546875 l 5
 582.381835938 856.762695312 606.282226562 856.2421875 622.750976562 850.184570312 c 0
 635.390625 845.53515625 662.497070312 836.15625 654.44140625 823.16796875 c 5
 550.040039062 516.250976562 l 1
 681.116210938 516.250976562 l 1
 681.116210938 516.250976562 697.233398438 511.436523438 697.233398438 480.625 c 0
 697.233398438 449.913085938 686.977539062 447.456054688 686.977539062 447.456054688 c 1
 527.201171875 447.456054688 l 1
 477.774414062 302.4921875 l 1
477.747070312 302.4921875 m 1025
454.381835938 234.924804688 m 1025
190.3203125 302.4921875 m 1025
477.774414062 302.4921875 m 1025
466.798828125 516.250976562 m 1025
550.040039062 516.250976562 m 1025
326.349609375 447.456054688 m 1025
240.286132812 447.456054688 m 1025
EndSplineSet
Validated: 33
EndChar

StartChar: dollar
Encoding: 36 36 65
Width: 691
VWidth: 0
Flags: HW
HStem: 8.14062 66.4199<262.079 318> 450.53 55.7598<163.493 204.13> 735.07 62.7305<262.32 318.422>
VStem: 66.0752 56.5801<547.409 680.402> 204 58<-29.7983 10.7334 93.2939 438.641 506.29 718.912 796.711 829.839> 318.101 58.0322<-29.4893 9.73047 96.8779 413.533 488.189 720.745 795 829.96> 461.003 57.7119<166.63 357.264>
LayerCount: 2
Back
SplineSet
87.2216796875 714.749023438 m 4
 163.620117188 785.852539062 426.4609375 789.587890625 472.095703125 720.21875 c 4
 489.532226562 693.712890625 474.642578125 638.176757812 439.833007812 599.889648438 c 4
 393.657226562 549.1015625 398.6953125 510.362304688 457.462890625 464.302734375 c 4
 593.924804688 357.35546875 605.479492188 140.452148438 482.584960938 -7.224609375 c 4
 336.930664062 -182.248046875 182.606445312 -182.248046875 81.3447265625 -7.224609375 c 4
 11.7265625 113.104492188 12.1787109375 142.555664062 84.2822265625 184.20703125 c 4
 152.454101562 223.588867188 154.9453125 255.311523438 96.736328125 342.823242188 c 4
 5.78515625 479.560546875 1.8017578125 635.250976562 87.2216796875 714.749023438 c 4
EndSplineSet
Fore
SplineSet
203.01171875 718.912109375 m 1
 157.573242188 701.404296875 122.655273438 669.90625 122.655273438 625.600585938 c 0
 122.655273438 552.876953125 156.875976562 521.427734375 204.129882812 506.290039062 c 1
 203.01171875 718.912109375 l 1
204.129882812 93.2939453125 m 1025
261.841796875 438.640625 m 1025
318.421875 487.83984375 m 1025
319.006835938 430.143554688 m 1
 300.147460938 433.971679688 281.40234375 435.677734375 261.841796875 438.640625 c 1
 262.079101562 76.544921875 l 1
 271.586914062 75.251953125 281.677734375 74.560546875 292.395507812 74.560546875 c 0
 301.822265625 74.560546875 309.5234375 77.224609375 318.421875 78.697265625 c 1
 319.006835938 430.143554688 l 1
375.364257812 413.533203125 m 1
 375.064453125 96.8779296875 l 1
 427.495117188 128.041015625 461.002929688 189 461.002929688 261.520507812 c 0
 461.002929688 351.388671875 425.299804688 392.106445312 375.364257812 413.533203125 c 1
376.603515625 781.2734375 m 1
 427.600585938 761.999023438 482.110351562 730.400390625 482.110351562 711.700195312 c 0
 482.110351562 692.020507812 467.349609375 677.260742188 447.669921875 677.260742188 c 0
 436.040039062 677.260742188 416.141601562 703.651367188 376.1171875 720.745117188 c 1
 376.1328125 478.352539062 l 1
 453.840820312 458.8515625 518.71484375 411.553710938 518.71484375 261.520507812 c 0
 518.71484375 154.7421875 460.708007812 62.482421875 376 25.4541015625 c 1
 376 -21 l 1
 376 -21 360 -30.48046875 348.975585938 -30.83984375 c 24
 336 -30.48046875 318 -21 318 -21 c 1
 318 9.73046875 l 1
 309.57421875 8.6796875 301.100585938 8.140625 292.395507812 8.140625 c 0
 282.182617188 8.140625 272.336914062 9.0341796875 262 10.7333984375 c 1
 262 -21 l 1
 262 -21 245 -30.48046875 233.551757812 -30.83984375 c 24
 221 -30.48046875 204 -21 204 -21 c 1
 204 28.318359375 l 1
 125.44921875 63.0048828125 59.28515625 137.122070312 59.28515625 207.400390625 c 0
 59.28515625 222.16015625 68.337890625 234.459960938 81.9169921875 234.459960938 c 0
 104.760742188 234.459960938 121.833984375 136.395507812 204.129882812 93.2939453125 c 1
 204.129882812 450.530273438 l 1
 129.004882812 467.439453125 66.0751953125 502.475585938 66.0751953125 625.600585938 c 0
 66.0751953125 709.85546875 122.5 764.838867188 204.4609375 786.876953125 c 1
 204.129882812 837 l 5
 204.129882812 837 221 846 232.419921875 845.609375 c 28
 244 846 261.841796875 837 261.841796875 837 c 5
 262.3203125 796.7109375 l 1
 271.813476562 797.436523438 282.538085938 797.80078125 292.395507812 797.80078125 c 0
 300.18359375 797.80078125 310.647460938 795.90625 318.440429688 795 c 1
 318.421875 837 l 5
 318.421875 837 335 846 346.711914062 845.609375 c 28
 359 846 376.1328125 837 376.1328125 837 c 5
 376.603515625 781.2734375 l 1
203.514648438 449.973632812 m 1025
375.064453125 96.8779296875 m 1025
262.079101562 76.544921875 m 1025
318.103515625 9.73046875 m 1025
375.53125 477.790039062 m 1025
260.819335938 495.494140625 m 1025
203.01171875 718.912109375 m 1025
261.841796875 733.225585938 m 1
 260.819335938 495.494140625 l 1
 279.385742188 492.87109375 298.7265625 490.7890625 318.100585938 488.189453125 c 1
 318.421875 731.807617188 l 1
 310.004882812 732.568359375 302.271484375 735.0703125 292.395507812 735.0703125 c 0
 282.321289062 735.0703125 272.072265625 734.448242188 261.841796875 733.225585938 c 1
376.603515625 781.2734375 m 1025
263.353515625 796.7109375 m 1025
204.4609375 786.876953125 m 1025
EndSplineSet
Validated: 1
EndChar

StartChar: percent
Encoding: 37 37 66
Width: 691
VWidth: 0
Flags: HMW
LayerCount: 2
Back
SplineSet
386.598632812 777.37109375 m 4
 594.821289062 904.926757812 630.13671875 855.329101562 514.126953125 598.26171875 c 4
 430.205078125 412.298828125 431.767578125 405.119140625 568.782226562 346.954101562 c 4
 709.38671875 287.263671875 738.389648438 204.458007812 674.249023438 45.84375 c 4
 634.439453125 -52.6083984375 444.225585938 -74.2802734375 386.211914062 13.02734375 c 4
 326.7578125 102.501953125 250.3359375 78.66015625 210.890625 -41.6689453125 c 4
 191.16796875 -101.833007812 151.23046875 -151.057617188 122.139648438 -151.057617188 c 4
 36.71484375 -151.057617188 53.39453125 34.904296875 149.611328125 155.232421875 c 4
 263.322265625 297.439453125 259.658203125 324.422851562 122.139648438 357.604492188 c 4
 -30.6591796875 394.47265625 -46.166015625 668.33203125 104.509765625 668.938476562 c 4
 164.453125 669.181640625 286.692382812 716.16796875 386.598632812 777.37109375 c 4
339.583984375 549.037109375 m 4
 355.40625 587.322265625 352.694335938 635.286132812 333.70703125 652.958007812 c 4
 315.1484375 670.229492188 301.229492188 636.549804688 304.323242188 581.853515625 c 4
 308.034179688 516.219726562 321.025390625 504.129882812 339.583984375 549.037109375 c 4
192.662109375 535.36328125 m 4
 192.662109375 563.706054688 163.278320312 596.024414062 128.016601562 606.466796875 c 4
 93.7919921875 616.6015625 63.3720703125 581.853515625 63.3720703125 532.627929688 c 4
 63.3720703125 483.403320312 93.7919921875 449.94140625 128.016601562 461.525390625 c 4
 163.278320312 473.458007812 192.662109375 507.021484375 192.662109375 535.36328125 c 4
EndSplineSet
Fore
SplineSet
529.437302418 705.034461089 m 0
 534.530411126 701.855621417 558.689729957 689.813689382 549.352079526 673.162272096 c 2
 179.540999724 -117.362080707 l 1
 179.354910385 -117.762613204 l 1
 179.112179304 -118.13158088 l 2
 168.046757799 -134.951770677 144.833853076 -129.884168449 134.397147182 -120.269873603 c 0
 125.720550466 -112.275040259 117.409039281 -100.543277142 126.506592389 -78.6473408723 c 2
 422.334050986 554.41015973 l 1
 372.640917366 528.354173375 315.328314154 511.840599056 275.766034856 504.179598327 c 1
 299.439297821 483.06019497 315 452.867871154 315 421.3105002 c 0
 315 360.01393492 264.466058514 308 202 308 c 0
 137.613284511 308 89 358.12082518 89 421.312913596 c 0
 89 486.447191889 135.758907505 533.640497509 202 533.640497509 c 0
 211.506449923 533.640497509 220.859259226 532.267166996 229.864926383 529.720759591 c 0
 361.692028269 531.707536843 448.27691333 670.293055546 493.478078417 704.367704705 c 0
 496.479315097 708.313450623 500.593121753 710.309825906 505.079464118 710.989129645 c 0
 506.734011807 711.545056975 508.308670021 711.849849201 509.803770532 711.882476285 c 0
 512.316009712 711.937300916 514.422788123 711.409405237 516.187372829 710.404901909 c 0
 521.173652741 709.297191072 525.902720464 707.240108493 529.437302418 705.034461089 c 0
276 423 m 0
 276 459.535832263 238.368153937 498 202 498 c 0
 159.459583676 498 130 466.061846111 130 423 c 0
 130 381.975377119 161.664111923 347 202 347 c 0
 242.47923385 347 276 382.180776133 276 423 c 0
350 140 m 0
 350 206.104045568 396.758907505 254 463 254 c 0
 522.510406626 254 576 199.381142806 576 140 c 0
 576 77.7894811618 525.466058514 25 463 25 c 0
 398.613284511 25 350 75.8670610684 350 140 c 0
537 140 m 0
 537 176.535832263 499.368153937 215 463 215 c 0
 420.459583676 215 391 183.061846111 391 140 c 0
 391 98.9753771194 422.664111923 64 463 64 c 0
 503.47923385 64 537 99.1807761333 537 140 c 0
EndSplineSet
Validated: 524321
EndChar

StartChar: ampersand
Encoding: 38 38 67
Width: 691
VWidth: 0
Flags: HMW
LayerCount: 2
Back
SplineSet
408 158 m 7xbf
 408 170 416 176 428 176 c 7
 436 176 439 153 439 134 c 7
 439 53.974609375 342.095184167 0 258 0 c 7xbf
 174 0 93 62.9934213374 93 139 c 7
 93 223.00595217 193 293 216 301 c 5
 179 339 137 412.955577482 137 458 c 7
 137 527 199 576 268 576 c 7
 326 576 373 516 373 458 c 7
 373 389 295 318 262 299 c 5
 325 219 485.788897449 54 493 54 c 7
 509 54 516 84 532 84 c 7
 546 84 551 81 551 60 c 7
 551 40 524.186773245 3 500 3 c 7x7f
 473.694335938 3 224 281 224 294 c 7
 224 303 337 385.99305589 337 458 c 7
 337 493 303 534 268 534 c 7
 226 534 178 500 178 458 c 7
 178 400 254 311.098632812 254 306 c 7
 254 283 136 234.004882812 136 140 c 7
 136 67.9931640625 198 39 258 39 c 7
 331 39 408 90.9697265625 408 158 c 7xbf
EndSplineSet
Fore
SplineSet
448.751924985 111.897903837 m 0
 470.039711349 90.3846878599 487.301683502 73.7668667088 495.045270994 67.16505917 c 1
 498.952723075 70.3613567042 509.808116845 96 532 96 c 0
 538.505330007 96 546.40585614 95.8952366155 553.343558761 90.1432504427 c 0
 562.201505263 82.799207525 563 71.8234550406 563 60 c 0
 563 34.1452944324 533.882708546 -9 500 -9 c 0
 481.095004062 -9 454.545467895 20.5929774498 419.619422958 55.5935009313 c 1
 381.747259994 12.7376520788 317.057295468 -12 258 -12 c 0
 169.201806451 -12 81 54.1624359397 81 139 c 0
 81 219.435452289 160.329692643 283.078861666 196.501082966 304.641272549 c 1
 161.192456882 346.157641798 125 411.648889227 125 458 c 0
 125 535.020410494 193.853642848 588 268 588 c 0
 334.464148137 588 385 521.248054592 385 458 c 0
 385 388.075565847 316.782624062 322.386356427 279.679255571 296.142106773 c 1
 310.469936329 258.49158377 354.579401534 210.135609015 396.800394127 165.604829073 c 1
 400.69953128 180.862322282 414.798800977 188 428 188 c 0
 453.961444066 188 451 146.51134931 451 134 c 0
 451 127.933884358 450.502484736 121.983581603 449.544689024 116.179272877 c 0
 449.343049709 114.957324582 449.036177742 113.317886751 448.751924985 111.897903837 c 0
374.087801139 102.572178907 m 1
 318.310035153 161.537257804 258.470901024 228.996270068 230.451911684 263.894391571 c 1
 194.900086201 235.1134192 148 195.100693966 148 140 c 0
 148 77.3783427763 200.811562797 51 258 51 c 0
 301.865349405 51 347.988607008 71.8797706928 374.087801139 102.572178907 c 1
248.023048562 336.142358833 m 1
 281.718257336 369.26951553 325 418.895270428 325 458 c 0
 325 487.11862441 294.486995145 522 268 522 c 0
 230.653229334 522 190 490.746991223 190 458 c 0
 190 423.335601239 225.608838076 367.755728069 248.023048562 336.142358833 c 1
EndSplineSet
Validated: 524321
EndChar

StartChar: quotesingle
Encoding: 39 39 68
Width: 691
VWidth: 0
Flags: HW
HStem: 445.263 324.942<140.899 176>
VStem: 82.3994 152.101
LayerCount: 2
Back
SplineSet
89.0439453125 448.799804688 m 4
 89.0439453125 595.721679688 103.067382812 624.3984375 169.182617188 612.668945312 c 4
 263.865234375 595.870117188 291.310546875 439.895507812 222.301757812 310.782226562 c 4
 151.84375 178.95703125 89.0439453125 244 89.0439453125 448.799804688 c 4
EndSplineSet
Fore
SplineSet
140.899414062 445.263671875 m 5
 140.899414062 445.263671875 99.94921875 549.274414062 85.9091796875 616.844726562 c 4
 75.3408203125 667.708007812 82.3994140625 744.392578125 82.3994140625 744.392578125 c 6
 81.6376953125 765.657226562 124.438476562 770.205078125 158.44921875 770.205078125 c 31
 187.72265625 770.205078125 234.868164062 764.12890625 234.5 744.392578125 c 6
 234.5 744.392578125 240.349609375 665.434570312 230.989257812 616.844726562 c 4
 217.975585938 549.286132812 176 445.263671875 176 445.263671875 c 29
 140.899414062 445.263671875 l 5
EndSplineSet
Validated: 33
EndChar

StartChar: parenleft
Encoding: 40 40 69
Width: 691
VWidth: 0
Flags: HW
VStem: 89 95<187.557 593.847>
LayerCount: 2
Back
SplineSet
1514 333 m 1052
110.41796875 546.962890625 m 4
 149.911132812 651.142578125 218.071289062 734.487304688 263.780273438 734.487304688 c 4
 357.811523438 734.487304688 372.770507812 652.31640625 287.2890625 605.362304688 c 4
 208.079101562 561.852539062 214.76171875 234.418945312 299.111328125 26.0576171875 c 4
 379.244140625 -171.885742188 324.9609375 -258.733398438 193.258789062 -143.293945312 c 4
 65.4208984375 -31.2412109375 23.5341796875 317.763671875 110.41796875 546.962890625 c 4
EndSplineSet
Fore
SplineSet
89 406.125 m 7
 89 13.3349609375 280.153320312 -183.974609375 316 -183.974609375 c 7
 406.088867188 -183.974609375 184 -90.712890625 184 406.125 c 7
 184 853.444335938 412.004882812 948.974609375 316 948.974609375 c 7
 283 948.974609375 89 748.424804688 89 406.125 c 7
EndSplineSet
Validated: 41
EndChar

StartChar: parenright
Encoding: 41 41 70
Width: 691
VWidth: 0
Flags: HW
VStem: 221 95<171.153 577.443>
LayerCount: 2
Back
SplineSet
88.2275390625 687.44921875 m 4
 111.479492188 720.7421875 163.647460938 695.262695312 221.545898438 622.3359375 c 4
 353.883789062 455.646484375 353.206054688 -13.5078125 220.45703125 -130.081054688 c 4
 77.5810546875 -255.548828125 19.87109375 -179.856445312 103.520507812 23.2958984375 c 4
 191.458984375 236.8671875 193.75 398.521484375 110.754882812 533.782226562 c 4
 78.7939453125 585.873046875 68.1220703125 658.662109375 88.2275390625 687.44921875 c 4
EndSplineSet
Fore
SplineSet
316 358.875 m 7
 316 751.665039062 124.846679688 948.974609375 89 948.974609375 c 7
 -1.0888671875 948.974609375 221 855.712890625 221 358.875 c 7
 221 -88.4443359375 -7.0048828125 -183.974609375 89 -183.974609375 c 7
 122 -183.974609375 316 16.5751953125 316 358.875 c 7
EndSplineSet
Validated: 41
EndChar

StartChar: asterisk
Encoding: 42 42 71
Width: 691
VWidth: 0
Flags: HW
LayerCount: 2
Back
SplineSet
61.951171875 481.921875 m 4
 244.629882812 728.575195312 673.201171875 534.012695312 532.392578125 268.3515625 c 4
 485.35546875 179.604492188 427.752929688 151.245117188 310.216796875 158.961914062 c 4
 222.0625 164.749023438 152.846679688 190.215820312 154.479492188 216.260742188 c 4
 156.1328125 242.631835938 116.279296875 283.65234375 63.3876953125 310.0234375 c 4
 -22.806640625 352.998046875 -22.92578125 367.323242188 61.951171875 481.921875 c 4
EndSplineSet
Fore
SplineSet
198.439453125 504.686523438 m 29
 59.3447265625 495.099609375 l 1
 59.3447265625 406.900390625 l 1
 198.439453125 397.313476562 l 29
 136.799804688 266.037109375 l 25
 209.545898438 221.936523438 l 1
 287 343.625976562 l 29
 364.455078125 221.936523438 l 25
 437.201171875 266.037109375 l 1
 375.560546875 397.313476562 l 29
 514.655273438 406.900390625 l 25
 514.655273438 495.099609375 l 1
 375.560546875 504.686523438 l 29
 437.201171875 635.962890625 l 25
 364.455078125 680.063476562 l 1
 287 558.374023438 l 29
 209.545898438 680.063476562 l 25
 136.799804688 635.962890625 l 25
 198.439453125 504.686523438 l 29
EndSplineSet
Validated: 9
EndChar

StartChar: plus
Encoding: 43 43 72
Width: 691
VWidth: 0
Flags: HW
HStem: 246.716 67.5675<17.3584 273.832 346.96 602.698>
VStem: 273.7 72.6<8.1438 246.716 314.284 552.909>
LayerCount: 2
Back
SplineSet
234.682617188 382.017578125 m 4
 276.940429688 453.251953125 356.173828125 464.866210938 356.173828125 399.826171875 c 4
 356.173828125 374.893554688 405.147460938 336.223632812 467.478515625 311.939453125 c 4
 596.590820312 261.634765625 608.40625 192.473632812 494.19140625 155.573242188 c 4
 447.666015625 140.541992188 399.311523438 88.173828125 386.737304688 39.2001953125 c 4
 355.873046875 -81.0087890625 273.154296875 -67.65234375 221.298828125 65.9130859375 c 4
 197.100585938 128.243164062 148.702148438 177.217773438 111.3046875 177.217773438 c 4
 17.3271484375 177.217773438 26.712890625 261.172851562 124.661132812 296.692382812 c 4
 164.73046875 311.22265625 216.504882812 351.375976562 234.682617188 382.017578125 c 4
EndSplineSet
Fore
SplineSet
273.831054688 246.716796875 m 5
 33.0771484375 246.716796875 l 1
 33.0771484375 246.716796875 16.9599609375 249.172851562 16.9599609375 279.885742188 c 3
 16.9599609375 309.471679688 33.0771484375 314.283203125 33.0771484375 314.283203125 c 1
 274.030273438 314.283203125 l 1
 273.700195312 538.2265625 l 1
 273.700195312 538.2265625 277.5546875 553.227539062 310.66015625 553.227539062 c 3
 343.66015625 553.227539062 346.299804688 543.681640625 346.299804688 543.681640625 c 1
 346.959960938 314.283203125 l 1
 586.922851562 314.283203125 l 1
 586.922851562 314.283203125 603.040039062 310.696289062 603.040039062 279.885742188 c 3
 603.040039062 249.172851562 592.784179688 246.716796875 592.784179688 246.716796875 c 1
 346.299804688 246.716796875 l 1
 346.299804688 22.7734375 l 1
 346.299804688 22.7734375 343.66015625 7.7724609375 310.66015625 7.7724609375 c 3
 278.870117188 7.7724609375 273.700195312 22.7734375 273.700195312 22.7734375 c 1
 273.831054688 246.716796875 l 5
273.83203125 246.716796875 m 1025
273.700195312 246.5625 m 1025
273.700195312 314.693359375 m 1025
EndSplineSet
Validated: 1
EndChar

StartChar: comma
Encoding: 44 44 73
Width: 691
VWidth: 0
Flags: HW
LayerCount: 2
Back
SplineSet
106.852539062 177.217773438 m 4
 170.455078125 240.8203125 215.040039062 230.643554688 262.900390625 141.599609375 c 4
 309.858398438 54.236328125 240.416992188 -138.083984375 151.374023438 -167.278320312 c 4
 84.5908203125 -189.174804688 45.20703125 115.572265625 106.852539062 177.217773438 c 4
EndSplineSet
Fore
SplineSet
179.259765625 63.7705078125 m 3
 179.259765625 71.111328125 176.612304688 75.873046875 169.513671875 75.873046875 c 3
 117.487304688 75.873046875 75.8642578125 124.926757812 75.8642578125 176.955078125 c 0
 75.8642578125 227.494140625 118.973632812 270.602539062 169.513671875 270.602539062 c 24
 224.512695312 270.602539062 266.135742188 230.467773438 266.135742188 176.955078125 c 3
 266.135742188 95.111328125 252.275390625 68.58984375 217.682617188 11.6904296875 c 0
 189.30078125 -34.9921875 153.80078125 -49.734375 112.032226562 -71.84765625 c 1
 91.1474609375 -54.6494140625 l 1
 103.432617188 -52.1923828125 150.116210938 -20.25 164.857421875 3.0908203125 c 0
 175.692382812 20.2451171875 179.259765625 47.3701171875 179.259765625 63.7705078125 c 3
EndSplineSet
Validated: 1
EndChar

StartChar: hyphen
Encoding: 45 45 74
Width: 691
VWidth: 0
Flags: HW
HStem: 246.716 67.5675<17.3584 602.698>
LayerCount: 2
Back
SplineSet
75.6865234375 195.026367188 m 4
 90.55859375 209.897460938 198.122070312 221.739257812 318.330078125 221.739257812 c 4
 478.608398438 221.739257812 534.260742188 204.52734375 534.260742188 154.956054688 c 4
 534.260742188 104.202148438 480.834960938 88.173828125 311.65234375 88.173828125 c 4
 102.400390625 88.173828125 10.4658203125 129.8046875 75.6865234375 195.026367188 c 4
EndSplineSet
Fore
SplineSet
33.0771484375 314.283203125 m 5
 586.922851562 314.283203125 l 5
 586.922851562 314.283203125 603.040039062 310.696289062 603.040039062 279.885742188 c 7
 603.040039062 249.172851562 592.784179688 246.716796875 592.784179688 246.716796875 c 5
 33.0771484375 246.716796875 l 5
 33.0771484375 246.716796875 16.9599609375 249.172851562 16.9599609375 279.885742188 c 7
 16.9599609375 309.471679688 33.0771484375 314.283203125 33.0771484375 314.283203125 c 5
EndSplineSet
Validated: 1
EndChar

StartChar: period
Encoding: 46 46 75
Width: 691
VWidth: 0
Flags: HW
HStem: 62.1354 194.73<107.015 236.81>
VStem: 75.8644 190.272<93.2211 227.372>
LayerCount: 2
Back
Fore
SplineSet
75.8642578125 163.216796875 m 0
 75.8642578125 111.188476562 117.487304688 62.134765625 169.513671875 62.134765625 c 24
 225.999023438 62.134765625 266.135742188 106.729492188 266.135742188 163.216796875 c 0
 266.135742188 216.73046875 224.512695312 256.865234375 169.513671875 256.865234375 c 24
 118.973632812 256.865234375 75.8642578125 213.756835938 75.8642578125 163.216796875 c 0
EndSplineSet
Validated: 9
EndChar

StartChar: slash
Encoding: 47 47 76
Width: 691
VWidth: 0
Flags: HW
DStem2: 2.89136 -31.758 71.6832 -72.299 0.534474 0.845185<-28.8922 1138.57>
LayerCount: 2
Back
SplineSet
442.991210938 631.338867188 m 4
 505.321289062 756 578.782226562 796.9453125 578.782226562 707.026367188 c 4
 578.782226562 653.443359375 299.534179688 105.982421875 208.616210938 -18.6787109375 c 4
 176.145507812 -63.2001953125 121.614257812 -87.4521484375 93.49609375 -69.8779296875 c 4
 38.85546875 -35.728515625 113.493164062 137.147460938 286.674804688 377.565429688 c 4
 341.1953125 453.251953125 408.932617188 563.220703125 442.991210938 631.338867188 c 4
EndSplineSet
Fore
SplineSet
2.8916015625 -31.7578125 m 5
 -10.30859375 -55.099609375 0.5966796875 -64.826171875 13.451171875 -73.52734375 c 4
 27.9716796875 -83.3544921875 58.482421875 -87.041015625 71.6826171875 -72.298828125 c 5
 676.091796875 883.473632812 l 5
 685.331054688 895.758789062 659.20703125 907.301757812 647.051757812 912.958007812 c 4
 631.2109375 920.329101562 607.451171875 922.786132812 599.53125 911.729492188 c 5
 2.8916015625 -31.7578125 l 5
EndSplineSet
Validated: 41
EndChar

StartChar: colon
Encoding: 58 58 77
Width: 691
VWidth: 0
Flags: HW
LayerCount: 2
Back
SplineSet
105.673828125 382.017578125 m 4
 136.315429688 462.15625 250.838867188 465.096679688 279.095703125 386.469726562 c 4
 290.067382812 355.940429688 281.123046875 299.65234375 258.2265625 255.130859375 c 4
 233.0390625 206.15625 234.693359375 177.217773438 262.678710938 177.217773438 c 4
 338.671875 177.217773438 316.104492188 9.9091796875 235.96484375 -20.8203125 c 4
 191.443359375 -37.892578125 133.696289062 -22.3447265625 95.7216796875 16.939453125 c 4
 44.076171875 70.365234375 42.2958984375 97.078125 86.8173828125 150.50390625 c 4
 116.499023438 186.122070312 127.92578125 240.141601562 111.3046875 266.260742188 c 4
 94.6826171875 292.379882812 92.0556640625 346.400390625 105.673828125 382.017578125 c 4
EndSplineSet
Fore
SplineSet
75.8642578125 133.369140625 m 0
 75.8642578125 81.3408203125 117.487304688 32.2890625 169.513671875 32.2890625 c 24
 225.999023438 32.2890625 266.135742188 76.8828125 266.135742188 133.369140625 c 0
 266.135742188 186.8828125 224.512695312 227.017578125 169.513671875 227.017578125 c 24
 118.973632812 227.017578125 75.8642578125 183.909179688 75.8642578125 133.369140625 c 0
75.8642578125 454.30859375 m 0
 75.8642578125 402.28125 117.487304688 353.227539062 169.513671875 353.227539062 c 24
 225.999023438 353.227539062 266.135742188 397.822265625 266.135742188 454.30859375 c 0
 266.135742188 507.821289062 224.512695312 547.956054688 169.513671875 547.956054688 c 24
 118.973632812 547.956054688 75.8642578125 504.848632812 75.8642578125 454.30859375 c 0
EndSplineSet
Validated: 9
EndChar

StartChar: semicolon
Encoding: 59 59 78
Width: 691
VWidth: 0
Flags: HW
HStem: 562.122 24.57G<191.466 289.096>
VStem: 125.011 235.66<434.876 560.348>
LayerCount: 2
Back
SplineSet
161.4609375 190.57421875 m 4
 205.698242188 235.512695312 272.610351562 208.3828125 326.16796875 123.791015625 c 4
 376.907226562 43.65234375 248.282226562 -199.52734375 178.086914062 -156.171875 c 4
 129.11328125 -125.922851562 116.14453125 144.538085938 161.4609375 190.57421875 c 4
133.565429688 355.3046875 m 4
 133.565429688 413.182617188 161.614257812 444.34765625 213.704101562 444.34765625 c 4
 320.556640625 444.34765625 355.658203125 407.966796875 325.392578125 328.590820312 c 4
 288.317382812 231.354492188 133.565429688 252.904296875 133.565429688 355.3046875 c 4
EndSplineSet
Fore
SplineSet
75.8642578125 468.047851562 m 0
 75.8642578125 416.01953125 117.487304688 366.965820312 169.513671875 366.965820312 c 24
 225.999023438 366.965820312 266.135742188 411.559570312 266.135742188 468.047851562 c 0
 266.135742188 521.559570312 224.512695312 561.6953125 169.513671875 561.6953125 c 24
 118.973632812 561.6953125 75.8642578125 518.586914062 75.8642578125 468.047851562 c 0
179.259765625 33.923828125 m 3
 179.259765625 41.263671875 176.612304688 46.0263671875 169.513671875 46.0263671875 c 3
 117.487304688 46.0263671875 75.8642578125 95.080078125 75.8642578125 147.107421875 c 0
 75.8642578125 197.647460938 118.973632812 240.754882812 169.513671875 240.754882812 c 24
 224.512695312 240.754882812 266.135742188 200.620117188 266.135742188 147.107421875 c 3
 266.135742188 65.263671875 252.275390625 38.7421875 217.682617188 -18.1572265625 c 0
 189.30078125 -64.83984375 153.80078125 -79.58203125 112.032226562 -101.6953125 c 1
 91.1474609375 -84.4951171875 l 1
 103.432617188 -82.0390625 150.116210938 -50.09765625 164.857421875 -26.7568359375 c 0
 175.692382812 -9.6005859375 179.259765625 17.5224609375 179.259765625 33.923828125 c 3
EndSplineSet
Validated: 9
EndChar

StartChar: equal
Encoding: 61 61 79
Width: 691
VWidth: 0
Flags: W
HStem: 150.321 57.4316<33.0771 586.923> 348.568 57.4316<33.0771 586.923>
LayerCount: 2
Back
SplineSet
79.2490234375 199.478515625 m 4
 100.889648438 307.685546875 115.756835938 314.36328125 307.200195312 301.877929688 c 4
 494.19140625 289.68359375 512 278.842773438 512 177.217773438 c 4
 512 80.1826171875 489.739257812 64.0048828125 338.365234375 51.0302734375 c 4
 102.400390625 30.8046875 51.3623046875 60.0439453125 79.2490234375 199.478515625 c 4
EndSplineSet
Fore
SplineSet
33.0771484375 406 m 5
 586.922851562 406 l 5
 586.922851562 406 603.040039062 402.951171875 603.040039062 376.762695312 c 7
 603.040039062 350.657226562 592.784179688 348.568359375 592.784179688 348.568359375 c 5
 33.0771484375 348.568359375 l 5
 33.0771484375 348.568359375 16.9599609375 350.657226562 16.9599609375 376.762695312 c 7
 16.9599609375 401.911132812 33.0771484375 406 33.0771484375 406 c 5
33.0771484375 207.752929688 m 1
 586.922851562 207.752929688 l 1
 586.922851562 207.752929688 603.040039062 204.703125 603.040039062 178.515625 c 3
 603.040039062 152.41015625 592.784179688 150.321289062 592.784179688 150.321289062 c 1
 33.0771484375 150.321289062 l 1
 33.0771484375 150.321289062 16.9599609375 152.41015625 16.9599609375 178.515625 c 3
 16.9599609375 203.663085938 33.0771484375 207.752929688 33.0771484375 207.752929688 c 1
EndSplineSet
Validated: 524289
EndChar

StartChar: question
Encoding: 63 63 80
Width: 691
VWidth: 0
Flags: HW
HStem: -0.0905 160.934<219.969 336.097> 757.894 60.1965<141.532 354.269>
VStem: 198.689 157.248<21.4199 140.396> 227.583 89.6325<389.344 482.704> 398.935 77.3955<600.286 716.561>
LayerCount: 2
Back
SplineSet
90.341796875 644.6953125 m 4
 174.194335938 747.0234375 385.623046875 733.739257812 444.626953125 622.434570312 c 4
 483.865234375 548.416992188 479.814453125 506.678710938 425.182617188 422.086914062 c 4
 386.3046875 361.888671875 356.173828125 246.2265625 356.173828125 157.182617188 c 4
 356.173828125 28.0693359375 339.870117188 -0.869140625 267.130859375 -0.869140625 c 4
 218.15625 -0.869140625 175.645507812 25.17578125 172.661132812 57.0087890625 c 4
 159.721679688 195.026367188 188.5625 341.685546875 246.205078125 430.991210938 c 4
 323.794921875 551.200195312 273.780273438 598.340820312 169.182617188 503.587890625 c 4
 93.49609375 435.024414062 87.5595703125 435.072265625 62.330078125 504.452148438 c 4
 47.759765625 544.521484375 60.4921875 608.268554688 90.341796875 644.6953125 c 4
EndSplineSet
Fore
SplineSet
227.583007812 270.1796875 m 5xd8
 317.21484375 270.1796875 l 5
 317.21484375 389.344726562 l 5
 318.616210938 432.341796875 321.5390625 463.463867188 342.423828125 482.709960938 c 4
 405.077148438 540.450195312 476.330078125 572.208984375 476.330078125 670.670898438 c 7
 476.330078125 766.525390625 361.010742188 818.090820312 242.915039062 818.090820312 c 7
 118.618164062 818.090820312 42.669921875 766.868164062 42.669921875 668.213867188 c 7
 42.669921875 615.060546875 53.703125 620.302734375 85.66796875 620.302734375 c 7
 126.670898438 620.302734375 91.103515625 682.443359375 120.065429688 712.439453125 c 4
 154.462890625 748.06640625 193.713867188 757.89453125 242.915039062 757.89453125 c 7
 309.356445312 757.89453125 398.934570312 734.587890625 398.934570312 649.786132812 c 7
 398.934570312 614.360351562 359.12109375 587.958007812 323.99609375 558.876953125 c 4
 271.896484375 515.7421875 227.583007812 469.196289062 227.583007812 433.5703125 c 6
 227.583007812 270.1796875 l 5xd8
198.689453125 83.447265625 m 4xe8
 198.689453125 40.4501953125 233.086914062 -0.0908203125 276.084960938 -0.0908203125 c 28
 322.767578125 -0.0908203125 355.936523438 36.7646484375 355.936523438 83.447265625 c 4
 355.936523438 127.673828125 322.767578125 160.842773438 277.313476562 160.842773438 c 28
 235.543945312 160.842773438 198.689453125 125.216796875 198.689453125 83.447265625 c 4xe8
EndSplineSet
Validated: 41
EndChar

StartChar: at
Encoding: 64 64 81
Width: 691
VWidth: 0
Flags: HW
LayerCount: 2
Back
Fore
SplineSet
441 388 m 2
 441 388 429.529296875 419 400 419 c 0
 316 419 268 440.109375 268 276 c 3
 268 236.439453125 296 176 316 176 c 4
 352.400390625 176 393.655273438 209.905273438 404 240 c 2
 441 388 l 2
449 170 m 1
 421 143 388.32421875 135 357 135 c 0
 201.987304688 135 215 205.979492188 215 307 c 3
 215 458.002929688 343 472 424 472 c 0
 467.829101562 472 473 433.186523438 516 431 c 1
 462 260 l 1
 462 245 480.453394902 225.406848783 490 218 c 0
 548 173 542 281.975585938 542 364 c 0
 542 522.114257812 528.049804688 557 367 557 c 0
 213.987304688 557 124 548.002118635 124 312 c 3
 124 23.9209092975 178 49 350 49 c 0
 513.196289062 49 540.31640625 65 567 65 c 0
 577.440429688 65 592 56.81640625 592 46 c 0
 592 20 544.435546875 2 350 2 c 0
 120 2 78 21.9568997545 78 312 c 3
 78 539.63567383 175.487304688 608 367 608 c 0
 556.041992188 608 594 540.139149538 594 364 c 3
 594 217.993119212 588 77 449 170 c 1
EndSplineSet
Validated: 33
EndChar

StartChar: underscore
Encoding: 95 95 82
Width: 691
VWidth: 0
Flags: HW
HStem: -131.675 72.45<-14.6531 702.558>
LayerCount: 2
Back
SplineSet
-5.82421875 -114.555664062 m 4
 49.98046875 -105.827148438 238.06640625 -98.9287109375 420.249023438 -98.9287109375 c 4
 684.708007812 -98.9287109375 749.75 -116.174804688 764.045898438 -190.086914062 c 4
 779.69140625 -270.982421875 731.72265625 -281.245117188 337.971679688 -281.245117188 c 4
 -8.7626953125 -281.245117188 -105.73046875 -264.73828125 -105.73046875 -205.713867188 c 4
 -105.73046875 -165.727539062 -58.7158203125 -122.829101562 -5.82421875 -114.555664062 c 4
EndSplineSet
Fore
SplineSet
691 -59.224609375 m 22
 705.002929688 -59.267578125 703 -77.0751953125 703 -90.724609375 c 3
 703 -107.525390625 703 -131.602539062 691 -131.674804688 c 14
 0 -135.875 l 2
 -14.5771484375 -135.963867188 -15 -111.724609375 -15 -93.875 c 27
 -15 -78.125 -14.5830078125 -57.0810546875 0 -57.125 c 2
 691 -59.224609375 l 22
EndSplineSet
Validated: 33
EndChar

StartChar: cent
Encoding: 162 162 83
Width: 691
VWidth: 0
Flags: HMW
HStem: 65.5683 69.9634<246 434.627> 437.634 64.7421<171.255 341.183>
VStem: 58.7139 77.418<164.598 413.253> 443.561 68.4414<179.39 200.273 392.734 407.353>
DStem2: 113.487 -21.7273 156 -46.782 0.454427 0.890784<-18.4894 110.099 317.621 513.669 605.996 728.183>
LayerCount: 2
Back
SplineSet
288.211914062 526.102539062 m 4
 352.857421875 557.616210938 437.484375 584.6875 476.271484375 586.259765625 c 4
 580.772460938 590.494140625 570.30078125 332.295898438 464.516601562 296.4453125 c 4
 337.185546875 253.291992188 352.857421875 185.62109375 499.779296875 144.185546875 c 4
 576.177734375 122.638671875 603.04296875 91.51953125 570.30078125 62.498046875 c 4
 488.025390625 -10.4287109375 62.66796875 -192.439453125 34.666015625 -166.700195312 c 4
 22.3427734375 -155.37109375 7.9765625 -23.4521484375 3.18359375 122.401367188 c 4
 -3.1494140625 315.13671875 19.1884765625 401.666992188 82.521484375 429.734375 c 4
 131.005859375 451.221679688 223.565429688 494.587890625 288.211914062 526.102539062 c 4
EndSplineSet
Fore
SplineSet
195 143.268554688 m 1
 341.182617188 439.063476562 l 1
 221.404296875 437.634765625 l 2
 220.99609375 437.629882812 177.627929688 436.60546875 170.9140625 429.280273438 c 0
 138.375976562 393.77734375 136.131835938 365.583007812 136.131835938 365.583007812 c 2
 136.131835938 194.008789062 l 2
 136.131835938 194.008789062 138.376953125 177.301757812 170.9140625 154.328125 c 0
 177.643554688 149.577148438 186.05078125 145.927734375 195 143.268554688 c 1
401 439.368164062 m 0
 401 439.368164062 245.767578125 135.532226562 246 135.532226562 c 1
 396.436523438 135.532226562 l 2
 396.436523438 135.532226562 411.022460938 137.619140625 430.095703125 154.328125 c 0
 443.396484375 165.977539062 443.560546875 176.255859375 443.560546875 176.255859375 c 2
 443.560546875 200.272460938 l 1
 512.001953125 200.272460938 l 1
 512.001953125 179.389648438 l 2
 512.001953125 179.389648438 507.513671875 142.841796875 466 105.249023438 c 0
 423.921875 67.1455078125 389.704101562 65.568359375 389.704101562 65.568359375 c 2
 213 65.568359375 l 1
 156 -46.78125 l 1
 147.842773438 -55.892578125 128.987304688 -53.6142578125 120.013671875 -47.5400390625 c 0
 112.069335938 -42.1630859375 105.330078125 -36.15234375 113.487304688 -21.7275390625 c 1
 162.350585938 77.0048828125 l 1
 146.125 83.0458984375 127.544921875 92.2578125 109.204101562 106.29296875 c 0
 61.1533203125 143.0625 58.7138671875 173.124023438 58.7138671875 173.124023438 c 2
 58.7138671875 379.158203125 l 2
 58.7138671875 379.158203125 62.080078125 425.104492188 109.204101562 465.828125 c 0
 153.450195312 504.06640625 205.6953125 502.376953125 205.6953125 502.376953125 c 2
 373.731445312 504.3671875 l 2
 429.685546875 617.48046875 l 1
 434.580078125 624.3125 449.263671875 622.794921875 459.052734375 618.239257812 c 0
 466.565429688 614.744140625 482.709960938 607.610351562 477 600.018554688 c 1
 425.870117188 497.2734375 l 1
 443.181640625 493.120117188 461.888671875 486.576171875 477.219726562 476.271484375 c 0
 514.72265625 451.0625 512.001953125 415.705078125 512.001953125 415.705078125 c 2
 512.001953125 392.733398438 l 1
 443.560546875 392.733398438 l 1
 443.560546875 407.352539062 l 2
 443.560546875 407.352539062 442.438476562 419.8828125 430.095703125 429.280273438 c 0
 422.736328125 434.883789062 415.59375 439.368164062 401 439.368164062 c 0
211.741210938 65.5810546875 m 1025
373.6796875 504.448242188 m 1025
425.870117188 497.2734375 m 1025
EndSplineSet
Validated: 33
EndChar

StartChar: onequarter
Encoding: 188 188 84
Width: 691
VWidth: 0
Flags: HW
HStem: 333.456 146.165<501.522 582.816> 344.393 158.274<-49.8333 207.483>
VStem: 236.277 132.23<542.282 900.882>
LayerCount: 2
Back
Fore
SplineSet
138.59765625 502.66796875 m 0x60
 281.772460938 524.928710938 266.984375 508.478515625 236.27734375 716.3203125 c 0
 212.03515625 880.405273438 224.5234375 935.099609375 286.231445312 935.099609375 c 0
 341.793945312 935.099609375 368.506835938 866.73046875 368.506835938 724.5234375 c 0
 368.506835938 533.091796875 385.068359375 510.827148438 550.690429688 479.62109375 c 0
 732.873046875 445.293945312 741.866210938 333.454101562 562.443359375 333.454101562 c 0xa0
 487.701171875 333.454101562 474.709960938 289.69921875 499.109375 120.14453125 c 0
 539.250976562 -158.799804688 462.697265625 -233.416015625 245.09375 -127.4453125 c 0
 51.15625 -33.001953125 51.15625 -33.001953125 163.171875 169.369140625 c 0
 247.942382812 322.515625 245.396484375 328.549804688 89.35546875 344.393554688 c 0
 -56.09765625 359.162109375 -43.4677734375 263.018554688 -56.7626953125 459.669921875 c 0
 -62.052734375 537.921875 16.3583984375 483.662109375 138.59765625 502.66796875 c 0x60
EndSplineSet
Validated: 33
EndChar

StartChar: onehalf
Encoding: 189 189 85
Width: 691
VWidth: 0
Flags: HW
HStem: 282.479 164.085<558.764 725.166> 335.625 54.054<18.7478 76.8212>
VStem: 290.668 114.438<475.745 662.29>
LayerCount: 2
Back
Fore
SplineSet
224.51171875 725.5078125 m 4x60
 192.744140625 780.203125 180.857421875 855.336914062 199.415039062 884.124023438 c 0
 218.869140625 914.299804688 272.875976562 938.819335938 319.890625 938.819335938 c 0
 382.381835938 938.819335938 405.10546875 873.184570312 405.10546875 692.69140625 c 0
 405.10546875 457.50390625 412.94140625 446.565429688 581.412109375 446.565429688 c 0
 698.950195312 446.565429688 757.71875 419.216796875 757.71875 364.521484375 c 0
 757.71875 319.3984375 704.827148438 282.478515625 640.180664062 282.478515625 c 0xa0
 563.78125 282.478515625 522.643554688 245.150390625 522.643554688 175.82421875 c 0
 522.643554688 115.66015625 494.46484375 53.671875 457.998046875 33.6162109375 c 0
 410.982421875 7.76171875 410.982421875 -18.34375 457.998046875 -62.099609375 c 0
 564.931640625 -161.620117188 528.520507812 -209.775390625 346.336914062 -209.775390625 c 0
 123.016601562 -209.775390625 72.8798828125 -127.473632812 222.923828125 -7.1875 c 0
 363.967773438 105.884765625 381.193359375 198.59765625 252.307617188 150.969726562 c 0
 199.415039062 131.424804688 150.874023438 151.211914062 130.954101562 200.436523438 c 0
 83.130859375 318.610351562 185.067382812 264.373046875 219.387695312 306.140625 c 25
 16.107421875 335.625 l 25
 18.748046875 389.6796875 l 9
 282.748046875 397.049804688 l 25
 290.66796875 652.578125 l 25
 264.267578125 680.833984375 348.405273438 512.19921875 224.51171875 725.5078125 c 4x60
EndSplineSet
Validated: 37
EndChar

StartChar: threequarters
Encoding: 190 190 86
Width: 691
VWidth: 0
Flags: HW
HStem: 284.483 147.022<-85.065 182.359> 331.783 113.396<570.354 656.382> 334.24 56.511<683.961 747.04>
LayerCount: 2
Back
Fore
SplineSet
608.060546875 445.178710938 m 4x40
 669.180664062 445.178710938 644.080078125 419.005859375 667.83984375 401.806640625 c 25
 747.040039062 390.750976562 l 25
 747.040039062 334.240234375 l 25x20
 570.16015625 331.783203125 l 25x40
 562.240234375 314.583984375 671.532226562 356.572265625 549.29296875 286.563476562 c 0
 500.318359375 258.514648438 480.510742188 166.233398438 494.115234375 29.498046875 c 0
 517.513671875 -205.690429688 416.508789062 -269.407226562 226.064453125 -139.594726562 c 0
 121.607421875 -68.39453125 120.369140625 -52.5458984375 206.85546875 106.0703125 c 0
 305.270507812 286.563476562 290.7109375 301.431640625 32.12890625 284.483398438 c 0
 -61.90234375 278.3203125 -103.040039062 303.090820312 -103.040039062 365.87109375 c 0
 -103.040039062 434.458984375 -67.779296875 450.2109375 43.8818359375 431.505859375 c 0x80
 137.911132812 415.751953125 190.802734375 431.505859375 190.802734375 475.260742188 c 0
 190.802734375 513.419921875 246.633789062 556.921875 317.155273438 573.711914062 c 0
 417.063476562 597.498046875 429.36328125 619.8203125 375.92578125 680.368164062 c 0
 337.3046875 724.123046875 324.711914062 772.17578125 346.540039062 792.4921875 c 0
 366.763671875 811.313476562 337.725585938 828.04296875 284.833984375 828.04296875 c 0
 231.94140625 828.04296875 201.9609375 853.783203125 221.124023438 882.739257812 c 0
 335.657226562 1055.79492188 567.091796875 849.921875 528.5546875 609.262695312 c 0
 507.533203125 477.99609375 523.43359375 445.178710938 608.060546875 445.178710938 c 4x40
EndSplineSet
Validated: 33
EndChar

StartChar: exclamdown
Encoding: 161 161 88
Width: 691
VWidth: 0
Flags: HW
HStem: 1.966 25.7985G<137.193 170.417> 637.1 160.934<98.9323 215.061>
VStem: 77.6536 157.248<11.4909 43.735 657.547 776.524>
LayerCount: 2
Fore
SplineSet
77.6533203125 714.495117188 m 0
 77.6533203125 757.493164062 112.051757812 798.034179688 155.048828125 798.034179688 c 24
 201.731445312 798.034179688 234.90234375 761.1796875 234.90234375 714.495117188 c 0
 234.90234375 670.270507812 201.731445312 637.099609375 156.27734375 637.099609375 c 24
 114.508789062 637.099609375 77.6533203125 672.727539062 77.6533203125 714.495117188 c 0
136.62109375 527.763671875 m 1
 173.4765625 527.763671875 l 25
 173.4765625 527.763671875 217.551757812 359.440429688 231.215820312 250.123046875 c 0
 241.043945312 171.499023438 234.90234375 43.7353515625 234.90234375 43.7353515625 c 2
 235.290039062 11.798828125 185.786132812 1.9658203125 155.048828125 1.9658203125 c 27
 119.337890625 1.9658203125 74.396484375 9.3271484375 75.1962890625 43.7353515625 c 2
 75.1962890625 43.7353515625 67.78515625 167.819335938 78.8818359375 250.123046875 c 0
 93.6240234375 359.458984375 136.62109375 527.763671875 136.62109375 527.763671875 c 1
EndSplineSet
Validated: 33
EndChar

StartChar: questiondown
Encoding: 191 191 89
Width: 691
VWidth: 0
Flags: HW
HStem: -16.0905 60.1965<164.731 377.468> 641.157 160.934<182.903 299.031>
VStem: 42.6697 77.3955<85.4385 201.714> 163.063 157.248<661.604 780.58> 201.785 89.6325<319.296 412.656>
LayerCount: 2
Fore
SplineSet
291.416992188 531.8203125 m 1xe8
 201.78515625 531.8203125 l 1
 201.78515625 412.655273438 l 1
 200.383789062 369.658203125 197.4609375 338.537109375 176.576171875 319.290039062 c 0
 113.922851562 261.549804688 42.669921875 229.791015625 42.669921875 131.329101562 c 3
 42.669921875 35.474609375 157.989257812 -16.0908203125 276.084960938 -16.0908203125 c 3
 400.381835938 -16.0908203125 476.330078125 35.1318359375 476.330078125 133.786132812 c 3
 476.330078125 186.939453125 465.297851562 181.698242188 433.33203125 181.698242188 c 3
 392.329101562 181.698242188 427.896484375 119.556640625 398.934570312 89.560546875 c 0
 364.537109375 53.9345703125 325.286132812 44.10546875 276.084960938 44.10546875 c 3
 209.643554688 44.10546875 120.065429688 67.412109375 120.065429688 152.213867188 c 3
 120.065429688 187.639648438 159.87890625 214.041992188 195.00390625 243.123046875 c 0
 247.103515625 286.258789062 291.416992188 332.803710938 291.416992188 368.4296875 c 2
 291.416992188 531.8203125 l 1xe8
320.310546875 718.552734375 m 0xf0
 320.310546875 761.549804688 285.913085938 802.090820312 242.915039062 802.090820312 c 24
 196.232421875 802.090820312 163.063476562 765.235351562 163.063476562 718.552734375 c 0
 163.063476562 674.326171875 196.232421875 641.157226562 241.686523438 641.157226562 c 24
 283.456054688 641.157226562 320.310546875 676.783203125 320.310546875 718.552734375 c 0xf0
EndSplineSet
Validated: 41
EndChar

StartChar: less
Encoding: 60 60 90
Width: 691
VWidth: 0
Flags: HMW
DStem2: 38.0908 320.549 122.601 279 0.939692 0.342021<65.2026 553.845> 122.601 279 38.0908 238.165 0.939692 -0.342021<0 488.399>
LayerCount: 2
Fore
SplineSet
28 279 m 3
 28 240.973632812 38.0908203125 238.165039062 38.0908203125 238.165039062 c 5
 558.53515625 48.73828125 l 5
 558.53515625 48.73828125 574.907226562 46.5966796875 585.4453125 75.548828125 c 0
 595.94921875 104.41015625 587.15234375 110.225585938 587.15234375 110.225585938 c 5
 122.600585938 279 l 5
 587.15234375 448.48828125 l 1
 587.15234375 448.48828125 595.94921875 454.303710938 585.4453125 483.165039062 c 0
 574.907226562 512.1171875 558.53515625 509.975585938 558.53515625 509.975585938 c 1
 38.0908203125 320.548828125 l 1
 38.0908203125 320.548828125 28 315.024414062 28 279 c 3
EndSplineSet
Validated: 41
EndChar

StartChar: greater
Encoding: 62 62 91
Width: 691
VWidth: 0
Flags: HMW
DStem2: 56.6172 509.976 28 448.488 0.939692 -0.342021<0 488.643> 28 110.226 56.6172 48.7383 0.939692 0.342021<5.8614 494.26>
LayerCount: 2
Fore
SplineSet
587.15234375 279 m 3
 587.15234375 240.973632812 577.061523438 238.165039062 577.061523438 238.165039062 c 1
 56.6171875 48.73828125 l 1
 56.6171875 48.73828125 40.2451171875 46.5966796875 29.70703125 75.548828125 c 0
 19.203125 104.41015625 28 110.225585938 28 110.225585938 c 1
 492.551757812 279 l 1
 28 448.48828125 l 1
 28 448.48828125 19.203125 454.303710938 29.70703125 483.165039062 c 0
 40.2451171875 512.1171875 56.6171875 509.975585938 56.6171875 509.975585938 c 1
 577.061523438 320.548828125 l 1
 577.061523438 320.548828125 587.15234375 315.024414062 587.15234375 279 c 3
EndSplineSet
Validated: 33
EndChar

StartChar: bracketleft
Encoding: 91 91 92
Width: 691
VWidth: 0
Flags: HW
HStem: -142.831 94.6553<205.145 356.359> 905.176 94.6553<205.145 356.359>
VStem: 114.8 83.1602<-31.926 879.745>
LayerCount: 2
Fore
SplineSet
114.799804688 424.745117188 m 5
 114.799804688 956 l 5
 194 982.877929688 l 5
 240.520507812 996.663085938 299.86328125 999.831054688 356.359375 999.831054688 c 4
 356.359375 999.831054688 371.6796875 998.279296875 371.6796875 956 c 4
 371.6796875 908.907226562 370.6796875 906.4921875 357.6796875 906.4921875 c 13
 331.6796875 906.4921875 366.703125 905.17578125 290.359375 905.17578125 c 7
 253.399414062 905.17578125 197.959960938 879.745117188 197.959960938 879.745117188 c 5
 194 424.745117188 l 5
 197.959960938 -22.7451171875 l 5
 197.959960938 -22.7451171875 253.399414062 -48.17578125 290.359375 -48.17578125 c 7
 366.703125 -48.17578125 331.6796875 -49.4921875 357.6796875 -49.4921875 c 21
 370.6796875 -49.4921875 371.6796875 -51.9072265625 371.6796875 -99 c 4
 371.6796875 -141.279296875 356.359375 -142.831054688 356.359375 -142.831054688 c 4
 299.86328125 -142.831054688 240.520507812 -139.663085938 194 -125.876953125 c 5
 114.799804688 -99 l 5
 114.799804688 424.745117188 l 5
EndSplineSet
Validated: 1
EndChar

StartChar: backslash
Encoding: 92 92 93
Width: 691
VWidth: 0
Flags: HMW
DStem2: 206.856 911.655 131.473 883.399 0.364 -0.931399<-16.5643 1040.12>
LayerCount: 2
Fore
SplineSet
575.580078125 -31.8330078125 m 5
 583.737304688 -55.1748046875 566 -67.203125 553.473632812 -73.6025390625 c 0
 541.814453125 -79.55859375 513.155273438 -87.1162109375 504.998046875 -72.3740234375 c 5
 131.47265625 883.399414062 l 5
 128 892.497070312 137.690429688 900.579101562 165 912.8828125 c 0
 192 925.046875 201.961914062 922.711914062 206.856445312 911.654296875 c 5
 575.580078125 -31.8330078125 l 5
EndSplineSet
Validated: 33
EndChar

StartChar: bracketright
Encoding: 93 93 94
Width: 691
VWidth: 0
Flags: HMW
HStem: -142.831 93.3389<130.12 276.775> 916 80G
VStem: 288.52 83.1602<-31.926 879.745>
LayerCount: 2
Fore
SplineSet
371.6796875 424.745117188 m 1
 371.6796875 -99 l 1
 292.479492188 -125.876953125 l 1
 245.958984375 -139.663085938 186.616210938 -142.831054688 130.120117188 -142.831054688 c 0
 130.120117188 -142.831054688 114.799804688 -141.279296875 114.799804688 -99 c 0
 114.799804688 -51.9072265625 115.799804688 -49.4921875 128.799804688 -49.4921875 c 9
 154.799804688 -49.4921875 119.776367188 -48.17578125 196.120117188 -48.17578125 c 3
 233.080078125 -48.17578125 288.51953125 -22.7451171875 288.51953125 -22.7451171875 c 1
 292.479492188 424.745117188 l 1
 288.51953125 879.745117188 l 1
 288.51953125 879.745117188 233.080078125 905.17578125 196.120117188 905.17578125 c 3
 119.776367188 905.17578125 154.799804688 906.4921875 128.799804688 906.4921875 c 17
 115.799804688 906.4921875 114.799804688 908.907226562 114.799804688 956 c 0
 114.799804688 998.279296875 130.120117188 999.831054688 130.120117188 999.831054688 c 0
 186.616210938 999.831054688 245.958984375 996.663085938 292.479492188 982.877929688 c 1
 371.6796875 956 l 1
 371.6796875 424.745117188 l 1
EndSplineSet
Validated: 1
EndChar

StartChar: asciicircum
Encoding: 94 94 95
Width: 691
Flags: HW
LayerCount: 2
Fore
SplineSet
378 767 m 0
 378 765.666992188 378.333007812 765 379 765 c 2
 379 764 l 2
 379.666992188 764 414.333007812 725.666992188 483 649 c 0
 486.333007812 645.666992188 488 642 488 638 c 0
 485.333007812 630.666992188 478.666992188 627 468 627 c 2
 462 627 l 2
 460.666992188 627 459.333007812 627.333007812 458 628 c 0
 456 628 456 628 455 628 c 0
 453 628 450.333007812 628.833007812 447 630.5 c 128
 443.666992188 632.166992188 441.666992188 633 441 633 c 0
 439 633 438 633.333007812 438 634 c 1
 436.666992188 634 435 634.833007812 433 636.5 c 128
 431 638.166992188 429.333007812 639.333007812 428 640 c 2
 339 701 l 2
 337 701 336 701.666992188 336 703 c 1
 334.666992188 703 333 703.833007812 331 705.5 c 128
 329 707.166992188 327.333007812 708 326 708 c 128
 324.666992188 708 323.333007812 708.333007812 322 709 c 128
 320.666992188 709.666992188 319.333007812 710 318 710 c 128
 316.666992188 710 315.666992188 710.333007812 315 711 c 2
 304 711 l 2
 303.333007812 710.333007812 302 710 300 710 c 2
 297 710 l 2
 296.333007812 709.333007812 295.333007812 709 294 709 c 0
 292 708 292 708 290 707 c 128
 288 706 288 706 286 705 c 0
 284 705 283 704.333007812 283 703 c 1
 281.666992188 703 280.333007812 702.333007812 279 701 c 2
 190 640 l 2
 177.333007812 631.333007812 164.333007812 627 151 627 c 0
 137 627 130 630.666992188 130 638 c 2
 130 639 l 2
 130 642.333007812 131.666992188 645.666992188 135 649 c 2
 238 764 l 2
 252 779.333007812 264.333007812 787.333007812 275 788 c 0
 280.333007812 789.333007812 289.333007812 790 302 790 c 2
 321 790 l 1
 335 790 l 2
 348.333007812 790 362.666992188 782.333007812 378 767 c 0
EndSplineSet
Validated: 1
EndChar

StartChar: grave
Encoding: 96 96 96
Width: 691
VWidth: 0
Flags: HW
LayerCount: 2
Fore
SplineSet
75.7001953125 696.879882812 m 5
 208.1796875 720.0625 l 1
 310.299804688 520.1015625 l 1
 260.620117188 467.9375 l 5
 75.7001953125 696.879882812 l 5
EndSplineSet
Validated: 1
EndChar

StartChar: braceleft
Encoding: 123 123 97
Width: 691
Flags: HW
HStem: -147.096 15.0957<447.185 522.967> 986 11.0938<451.562 517.508>
VStem: 268 100.101<-35.913 183.295 666.357 883.985> 296.6 81.9004<105.977 315.398 533.234 741.118>
LayerCount: 2
Back
SplineSet
366 666.19921875 m 6
 366 652.19921875 l 5
 366 641 l 5
 366 632.599609375 l 5
 366 624.19921875 l 6
 366 569.1328125 362.333007812 514.533203125 355 460.399414062 c 4
 347.666992188 409.06640625 320.666992188 372.19921875 274 349.799804688 c 5
 316.666992188 328.333007812 342.333007812 296.1328125 351 253.19921875 c 4
 361.666992188 209.333007812 367 161.733398438 367 110.399414062 c 6
 367 93.599609375 l 5
 367 86.599609375 l 5
 367 78.19921875 l 5
 367 69.7998046875 l 5
 367 60 l 6
 366.333007812 55.3330078125 366 46.9326171875 366 34.7998046875 c 6
 366 12.3994140625 l 5
 366 6.7998046875 l 5
 366 2.599609375 l 5
 366 -4.400390625 l 5
 366 -8.6005859375 l 6
 366 -44.0673828125 372 -67.400390625 384 -78.6005859375 c 4
 394 -88.8671875 406.666992188 -96.333984375 422 -101 c 5
 426 -101 l 6
 428.666992188 -101 430.666992188 -101.93359375 432 -103.80078125 c 4
 450 -110.333984375 460.666992188 -114.534179688 464 -116.400390625 c 4
 473.333007812 -122 478 -136.466796875 478 -159.80078125 c 6
 478 -161.200195312 l 5
 478 -162.600585938 l 6
 478 -177.534179688 474.666992188 -190.133789062 468 -200.400390625 c 4
 461.333007812 -211.600585938 452.333007812 -217.200195312 441 -217.200195312 c 6
 428 -217.200195312 l 6
 405.333007812 -217.200195312 380.333007812 -209.733398438 353 -194.80078125 c 4
 326.333007812 -181.733398438 307.333007812 -152.333984375 296 -106.600585938 c 4
 292.666992188 -92.6005859375 289 -70.6669921875 285 -40.80078125 c 4
 283 -4.400390625 282 17.533203125 282 25 c 6
 282 44.599609375 l 6
 282 53.9326171875 282.333007812 60.9326171875 283 65.599609375 c 6
 283 85.19921875 l 5
 283 104.799804688 l 5
 283 127.19921875 l 5
 283 138.399414062 l 6
 282.333007812 141.19921875 282 144.932617188 282 149.599609375 c 4
 280.666992188 157.06640625 280 164.06640625 280 170.599609375 c 4
 280 176.19921875 279.333007812 183.666015625 278 193 c 4
 273.333007812 224.733398438 263.666992188 247.599609375 249 261.599609375 c 4
 238.333007812 270.932617188 222.666992188 278.399414062 202 284 c 4
 199.333007812 284 197.333007812 284.932617188 196 286.799804688 c 4
 194.666992188 286.799804688 193.333007812 287.033203125 192 287.5 c 132
 190.666992188 287.965820312 189.333007812 288.19921875 188 288.19921875 c 132
 186.666992188 288.19921875 182 289.599609375 174 292.399414062 c 4
 164.666992188 297.06640625 158 304.06640625 154 313.399414062 c 4
 148.666992188 323.666015625 146 334.866210938 146 347 c 4
 146 357.266601562 148.333007812 368.932617188 153 382 c 4
 157 392.266601562 163.666992188 399.733398438 173 404.399414062 c 4
 179.666992188 408.1328125 187 410.932617188 195 412.799804688 c 4
 199 414.666015625 202.333007812 416.06640625 205 417 c 6
 205 417 205 417 214 421.19921875 c 4
 230 425.866210938 244.333007812 433.799804688 257 445 c 4
 269 457.1328125 276.333007812 482.799804688 279 522 c 4
 279 524.799804688 279.166992188 529.465820312 279.5 536 c 132
 279.833007812 542.533203125 280 547.19921875 280 550 c 4
 280.666992188 554.666015625 281 563.06640625 281 575.19921875 c 6
 281 629.799804688 l 5
 281 646.599609375 l 5
 281 656.399414062 l 5
 281 666.19921875 l 6
 281 683.932617188 281.333007812 697.932617188 282 708.19921875 c 4
 282 711 283 725 285 750.19921875 c 4
 288.333007812 781 294.333007812 808.06640625 303 831.399414062 c 4
 309.666992188 851.932617188 321 868.733398438 337 881.799804688 c 4
 350.333007812 894.866210938 366.666992188 905.599609375 386 914 c 4
 390 915.866210938 393.333007812 916.799804688 396 916.799804688 c 4
 400 918.666015625 403.333007812 919.599609375 406 919.599609375 c 4
 406.666992188 919.599609375 408.166992188 919.833007812 410.5 920.299804688 c 132
 412.833007812 920.766601562 414.666992188 921 416 921 c 4
 418 921.932617188 421 922.399414062 425 922.399414062 c 6
 426 922.399414062 l 5
 428 922.399414062 l 6
 442.666992188 922.399414062 454.666992188 918.666015625 464 911.19921875 c 4
 474 904.666015625 479 892.06640625 479 873.399414062 c 6
 479 865 l 6
 478.333007812 862.19921875 478 859.866210938 478 858 c 4
 478 857.06640625 477.833007812 855.666015625 477.5 853.799804688 c 132
 477 851 477 851 477 851 c 5
 475 842.599609375 l 6
 470.333007812 827.666015625 464.666992188 818.333007812 458 814.599609375 c 4
 456.666992188 814.599609375 453 813.666015625 447 811.799804688 c 132
 441 809.932617188 436.333007812 809 433 809 c 6
 430 809 l 6
 429.333007812 808.06640625 428.333007812 807.599609375 427 807.599609375 c 6
 423 807.599609375 l 6
 409.666992188 805.733398438 396.333007812 796.399414062 383 779.599609375 c 4
 371.666992188 764.666015625 366 726.866210938 366 666.19921875 c 6
EndSplineSet
Fore
SplineSet
481.2265625 -132 m 7xe0
 417.66796875 -132 368.100585938 -67.7158203125 368.100585938 44 c 7xe0
 368.100585938 122 378.5 192 378.5 270 c 7
 378.5 342 346 365 295.299804688 425 c 5
 346 485 378.5 508 378.5 580 c 7xd0
 378.5 658 362.900390625 728 362.900390625 806 c 7
 362.900390625 915.319335938 415.348632812 985.838867188 480.587890625 986 c 5
 506.061523438 986.063476562 524.385742188 983.12890625 551.400390625 966 c 5
 550.100585938 976 l 5
 529.23828125 990.588867188 504.819335938 996.967773438 479.232421875 997.09375 c 5
 382.043945312 997.571289062 268 910.004882812 268 805 c 7xe0
 268 732 296.599609375 676 296.599609375 603 c 7
 296.599609375 491 152.299804688 448.83984375 152.299804688 424 c 4
 152.299804688 399.16015625 296.599609375 359 296.599609375 247 c 7xd0
 296.599609375 174 268 115 268 42 c 7
 268 -59.4072265625 369.796875 -138.373046875 463 -146.419921875 c 4
 468.158203125 -146.865234375 473.2890625 -147.092773438 478.375976562 -147.095703125 c 5
 504.274414062 -147.109375 529.005859375 -140.750976562 550.100585938 -126 c 5
 550.100585938 -114 l 5
 522.955078125 -131.212890625 506.2109375 -132 481.2265625 -132 c 7xe0
EndSplineSet
Validated: 41
EndChar

StartChar: bar
Encoding: 124 124 98
Width: 691
Flags: HW
VStem: 266 84<-138.672 986.463>
LayerCount: 2
Fore
SplineSet
350 -118.415039062 m 6
 350 -119.849609375 344 -133.307617188 334 -138.943359375 c 4
 326 -143.772460938 317 -146.1875 307 -146.1875 c 4
 297.666992188 -146.1875 289 -143.772460938 281 -138.943359375 c 4
 272.333007812 -133.307617188 266 -117.713867188 266 -116 c 6
 266 965 l 1
 270 977.075195312 275.333007812 985.125 282 989.150390625 c 0
 290 993.979492188 298.666992188 996.39453125 308 996.39453125 c 2
 310 996.39453125 l 1
 311 996.39453125 l 2
 319 994.784179688 327.333007812 991.564453125 336 986.734375 c 0
 344 981.100585938 350 965 350 965 c 2
 350 -118.415039062 l 6
EndSplineSet
Validated: 1
EndChar

StartChar: braceright
Encoding: 125 125 99
Width: 691
Flags: HW
HStem: -147.096 15.0957<180.733 256.515> 986 11.0938<186.192 252.139>
VStem: 325.2 81.9004<105.977 315.398 533.234 741.118> 335.6 100.101<-35.913 183.295 666.357 883.985>
LayerCount: 2
Back
SplineSet
260 496 m 5
 260 498 l 5
 260 500 l 6
 260 518.666666667 257.666666667 538 253 558 c 4
 247.666666667 578 233.333333333 590.333333333 210 595 c 4
 208 595 206.666666667 595.333333333 206 596 c 6
 202 596 l 6
 200 596 197 596.666666667 193 598 c 4
 190.333333333 598 189 598.333333333 189 599 c 4
 180.333333333 599.666666667 172 601.666666667 164 605 c 4
 156.666666667 607.666666667 151.333333333 615 148 627 c 4
 146.666666667 631 146 633.666666667 146 635 c 6
 146 639 l 5
 146 642 l 6
 146 656 151 665.666666667 161 671 c 4
 169 677 180.666666667 680 196 680 c 4
 199.333333333 680 205.666666667 679.333333333 215 678 c 4
 227.666666667 676 235 674.666666667 237 674 c 4
 253 669.333333333 269.666666667 661 287 649 c 4
 300.333333333 641.666666667 312.333333333 630 323 614 c 4
 331.666666667 597.333333333 337.666666667 578.666666667 341 558 c 4
 343.666666667 541.333333333 345 522 345 500 c 6
 345 484 l 5
 345 469 l 6
 344.333333333 465.666666667 344 460.666666667 344 454 c 6
 344 438 l 5
 344 416 l 6
 344 410 344.666666667 402.333333333 346 393 c 4
 348.666666667 364.333333333 356 346 368 338 c 4
 379.333333333 330 394 324.333333333 412 321 c 6
 412 321 412 321 421 318 c 4
 425 316.666666667 428.333333333 315.666666667 431 315 c 4
 437.666666667 314.333333333 445 312.333333333 453 309 c 4
 460.333333333 305.666666667 466.333333333 300.333333333 471 293 c 4
 472.333333333 291 474 287.333333333 476 282 c 4
 478 274 479 269.666666667 479 269 c 132
 479 268 479 268 479 267.5 c 132
 479 267 479 267 479 266 c 132
 479 265.333333333 478.666666667 263.5 478 260.5 c 132
 477.333333333 257.5 476.333333333 253.333333333 475 248 c 4
 471 240.666666667 467 236 463 234 c 4
 459 232.666666667 455 230.666666667 451 228 c 4
 443 226 438.666666667 225 438 225 c 4
 434 223.666666667 431 223 429 223 c 6
 424 223 l 6
 423.333333333 222.333333333 422 222 420 222 c 4
 408.666666667 221.333333333 397 218.666666667 385 214 c 4
 374.333333333 210 364.666666667 199.333333333 356 182 c 4
 350.666666667 170 346.666666667 156 344 140 c 4
 342.666666667 118.666666667 342 102.333333333 342 91 c 6
 342 83 l 5
 342 74 l 6
 342 66 342.333333333 60.3333333333 343 57 c 6
 343 41 l 5
 343 26 l 5
 343 4 l 6
 343 3.33333333333 342.833333333 1.66666666667 342.5 -1 c 132
 342.166666667 -3.66666666667 342 -5.66666666667 342 -7 c 4
 342 -7.66666666667 341.833333333 -8.66666666667 341.5 -10 c 132
 341.166666667 -11.3333333333 341 -12.3333333333 341 -13 c 4
 334.333333333 -57 319 -87.3333333333 295 -104 c 4
 269 -122 236.666666667 -132.333333333 198 -135 c 5
 193 -135 l 5
 193 -135 l 5
 190 -135 l 6
 188.666666667 -135 185.666666667 -134.333333333 181 -133 c 132
 176.333333333 -131.666666667 170.333333333 -129.666666667 163 -127 c 4
 155.666666667 -123 150.333333333 -115.333333333 147 -104 c 4
 146.333333333 -103.333333333 146 -101.333333333 146 -98 c 6
 146 -93 l 6
 146 -77.6666666667 151 -67.6666666667 161 -63 c 4
 165 -61 176 -57.6666666667 194 -53 c 5
 196 -53 l 6
 196 -52.3333333333 196.666666667 -52 198 -52 c 6
 201 -52 l 6
 201 -51.3333333333 201.666666667 -51 203 -51 c 4
 216.333333333 -49.6666666667 227.333333333 -45.6666666667 236 -39 c 4
 245.333333333 -35 252.333333333 -23.6666666667 257 -5 c 4
 258.333333333 -2.33333333333 259.666666667 5.66666666667 261 19 c 4
 261 25.6666666667 261.333333333 30.6666666667 262 34 c 6
 262 47 l 5
 262 56 l 6
 261.333333333 58 261 61.6666666667 261 67 c 6
 261 87 l 5
 261 96 l 6
 260.333333333 98 260 101.333333333 260 106 c 6
 260 117 l 5
 260 126 l 6
 260 153.333333333 265 181.333333333 275 210 c 4
 285.666666667 236.666666667 310.666666667 256.666666667 350 270 c 5
 302.666666667 286.666666667 275.666666667 313.333333333 269 350 c 4
 263 382 260 416 260 452 c 6
 260 468 l 5
 260 469 l 5
 260 470 l 5
 260 482 l 5
 260 489 l 5
 260 496 l 5
EndSplineSet
Fore
SplineSet
222.473632812 -132 m 7xd0
 286.032226562 -132 335.599609375 -67.7158203125 335.599609375 44 c 7xd0
 335.599609375 122 325.200195312 192 325.200195312 270 c 7
 325.200195312 342 357.700195312 365 408.400390625 425 c 5
 357.700195312 485 325.200195312 508 325.200195312 580 c 7xe0
 325.200195312 658 340.799804688 728 340.799804688 806 c 7
 340.799804688 915.319335938 288.3515625 985.838867188 223.112304688 986 c 5
 197.638671875 986.063476562 179.314453125 983.12890625 152.299804688 966 c 5
 153.599609375 976 l 5
 174.461914062 990.588867188 198.880859375 996.967773438 224.467773438 997.09375 c 5
 321.65625 997.571289062 435.700195312 910.004882812 435.700195312 805 c 7xd0
 435.700195312 732 407.100585938 676 407.100585938 603 c 7
 407.100585938 491 551.400390625 448.83984375 551.400390625 424 c 4
 551.400390625 399.16015625 407.100585938 359 407.100585938 247 c 7xe0
 407.100585938 174 435.700195312 115 435.700195312 42 c 7
 435.700195312 -59.4072265625 333.903320312 -138.373046875 240.700195312 -146.419921875 c 4
 235.541992188 -146.865234375 230.411132812 -147.092773438 225.32421875 -147.095703125 c 5
 199.42578125 -147.109375 174.694335938 -140.750976562 153.599609375 -126 c 5
 153.599609375 -114 l 5
 180.745117188 -131.212890625 197.489257812 -132 222.473632812 -132 c 7xd0
EndSplineSet
Validated: 33
EndChar

StartChar: asciitilde
Encoding: 126 126 100
Width: 691
Flags: HW
HStem: 706 73<333.032 438.502> 715 77<232.033 324> 726 72<187.094 266>
VStem: 439 49<782.669 816.5>
LayerCount: 2
Fore
SplineSet
299 715 m 4x50
 297.666992188 715 294.333007812 715.666992188 289 717 c 4
 264.333007812 722.333007812 248 725 240 725 c 4
 235.333007812 725 232.666992188 725.333007812 232 726 c 6
 225 726 l 6x30
 218.333007812 724.666992188 212.666992188 724 208 724 c 4
 200.666992188 722.666992188 195.666992188 721 193 719 c 4
 191 717 189 716 187 716 c 4
 185.666992188 714.666992188 183.833007812 712.666992188 181.5 710 c 4
 179.166992188 707.333007812 177.333007812 705.333007812 176 704 c 4
 170 690.666992188 161.666992188 684 151 684 c 5
 149 683 l 6
 147.666992188 683 145.666992188 683.5 143 684.5 c 4
 140.333007812 685.5 137 687.333007812 133 690 c 4
 129.666992188 692.666992188 128 697 128 703 c 6
 128 706 l 6x90
 128 706.666992188 129 712 131 722 c 4
 140.333007812 744 156 762.166992188 178 776.5 c 4
 200 790.833007812 226.333007812 798 257 798 c 6
 266 798 l 6x30
 282 796 291 794.666992188 293 794 c 4
 299.666992188 792.666992188 304.666992188 792 308 792 c 6x50
 324 789 l 5
 330 787 l 5
 333 787 l 6
 333.666992188 786.333007812 334.666992188 786 336 786 c 4
 337.333007812 786 344.833007812 784.833007812 358.5 782.5 c 4
 372.166992188 780.166992188 383 779 391 779 c 4
 396.333007812 779 400.333007812 779.333007812 403 780 c 4
 405.666992188 780 408 780.333007812 410 781 c 6
 412 781 l 6
 413.333007812 781.666992188 414.333007812 782 415 782 c 4
 420.333007812 783.333007812 428.333007812 789.333007812 439 800 c 4
 439 800.666992188 439.666992188 801.666992188 441 803 c 4
 449.666992188 811 458 816 466 818 c 6
 471 818 l 6
 475.666992188 818 479.666992188 816 483 812 c 4
 486.333007812 808 488 803.666992188 488 799 c 4
 488 790.333007812 483.333007812 778 474 762 c 4
 448 724.666992188 409.333007812 706 358 706 c 4x90
 352 706 346.666992188 706.333007812 342 707 c 4
 338 707 332.666992188 707.666992188 326 709 c 4
 324 709 315 711 299 715 c 4x50
EndSplineSet
Validated: 1
EndChar

StartChar: lambda
Encoding: 955 955 101
Width: 691
VWidth: 0
Flags: W
HStem: 482.722 67.0127<203.363 262.717> 482.722 54.6885<163.58 230.171>
VStem: 112.98 92.8994<17.7836 80.5632> 310.376 99.2119<371.865 419.167> 471.772 106.247<23.3262 93.4946>
LayerCount: 2
Fore
SplineSet
298.533203125 266.962890625 m 0xb8
 298.244140625 265.908203125 298.106445312 265.034179688 298.106445312 263.8203125 c 0
 298.106445312 229.30859375 270.365234375 137.836914062 236.622070312 134.8828125 c 1
 236.622070312 108.9921875 239.692382812 74.2724609375 205.612304688 66.4189453125 c 1
 206.126953125 57.322265625 205.879882812 49.1904296875 205.879882812 43.7724609375 c 0
 205.879882812 15.6494140625 177.41796875 16.4013671875 165.8203125 16.65625 c 0
 161.73828125 12.958984375 158.07421875 10.265625 152.958007812 10.265625 c 0
 126.575195312 10.265625 118.838867188 34.8623046875 116.887695312 54.48046875 c 0
 114.177734375 58.619140625 112.98046875 61.5947265625 112.98046875 66.423828125 c 0
 112.98046875 76.78125 118.64453125 86.5576171875 126.2734375 91.576171875 c 0
 130.545898438 99.0078125 136.327148438 108.578125 142.818359375 119.068359375 c 1
 147.576171875 158.184570312 170.265625 197.193359375 197.514648438 204.229492188 c 0
 198.951171875 206.4140625 198.821289062 206.215820312 199.069335938 206.592773438 c 0
 203.880859375 254.674804688 244.766601562 290.416015625 262.473632812 301.3984375 c 1
 263.22265625 302.501953125 l 1
 268.638671875 330.693359375 284.591796875 347.797851562 300.51953125 356.77734375 c 0
 304.751953125 362.856445312 307.909179688 367.366210938 310.763671875 371.432617188 c 0
 309.4609375 380.680664062 310.375976562 388.786132812 310.375976562 396.49609375 c 0
 310.375976562 403.802734375 309.310546875 415.314453125 311.1953125 424.567382812 c 1
 292.24609375 432.750976562 269.618164062 451.05078125 263.51953125 473.208984375 c 1
 246.447265625 479.916992188 226.220703125 482.721679688 198.26171875 482.721679688 c 0
 169.888671875 482.721679688 163.137695312 491.694335938 163.137695312 504.90234375 c 0
 163.137695312 520.981445312 163.137695312 534.532226562 203.0390625 537.41015625 c 1x78
 209.885742188 547.6796875 221.029296875 549.734375 230.622070312 549.734375 c 0
 251.525390625 549.734375 278.227539062 542.778320312 291.046875 526.725585938 c 1
 325.479492188 510.034179688 348.415039062 480.002929688 365.927734375 448.170898438 c 1
 387.727539062 428.91796875 407.609375 379.6171875 409.587890625 339.779296875 c 0
 410.786132812 336.6796875 412.7109375 331.775390625 413.346679688 330.165039062 c 0
 425.979492188 322.70703125 432.0078125 298.206054688 433.651367188 280.999023438 c 1
 439.733398438 266.98828125 445.5546875 254.235351562 451.125976562 242.525390625 c 1
 467.424804688 232.751953125 480.473632812 203.524414062 485.315429688 177.9921875 c 1
 544.184570312 80.013671875 578.01953125 96.1328125 578.01953125 59.9521484375 c 0
 578.01953125 41.03515625 561.6953125 16.73828125 536.423828125 16.73828125 c 0
 530.521484375 16.73828125 526.091796875 13.501953125 520.244140625 13.501953125 c 0
 489.705078125 13.501953125 475.814453125 42.7021484375 471.772460938 69.01171875 c 1
 448.27734375 110.295898438 429.595703125 169.088867188 412.311523438 224.01953125 c 1
 400.377929688 231.439453125 401.224609375 247.142578125 401.029296875 259.739257812 c 0
 395.982421875 275.51953125 390.87109375 290.96875 386.118164062 304.357421875 c 1
 364.12109375 311.65625 368.26953125 332.248046875 348.736328125 332.248046875 c 0
 335.798828125 332.248046875 323.994140625 327.5078125 323.994140625 317.213867188 c 0
 323.994140625 295.990234375 312.330078125 275.169921875 298.533203125 266.962890625 c 0xb8
EndSplineSet
Validated: 524321
EndChar

StartChar: alpha
Encoding: 945 945 102
Width: 691
VWidth: 0
Flags: W
HStem: 3.69727 85.9561<174.805 274.76> 16.6416 68.6299<505.379 586.56> 378.602 64.248<284.16 372.161>
VStem: 90.3281 126.878<195.768 282.668> 91.9854 71.8262<100.939 139.68> 409.074 55.6855<180.766 261.308>
LayerCount: 2
Fore
SplineSet
174.91015625 86.3544921875 m 2xac
 179.321289062 105.551757812 214.325195312 89.6533203125 238.711914062 89.6533203125 c 0
 257.572265625 89.6533203125 268.040039062 90.291015625 277.450195312 83.33984375 c 0
 281.465820312 85.240234375 282.745117188 85.8671875 285.189453125 87.06640625 c 0
 293.388671875 140.80078125 335.430664062 173.57421875 389.428710938 179.755859375 c 1
 401.559570312 201.30078125 409.07421875 222.5390625 409.07421875 247.071289062 c 0
 409.07421875 268.713867188 405.547851562 291.069335938 399.204101562 310.653320312 c 1
 388.765625 323.658203125 379.96484375 338.604492188 373.080078125 355.866210938 c 1
 358.487304688 370.2890625 341.8046875 378.6015625 319.612304688 378.6015625 c 0
 309.384765625 378.6015625 297.655273438 376.032226562 289.161132812 373.266601562 c 1
 276.985351562 347.426757812 254.90234375 331.075195312 226.283203125 324.961914062 c 1
 220.1484375 317.09375 215.430664062 310.283203125 210.947265625 303.4296875 c 1
 215.068359375 295.947265625 217.206054688 290.990234375 217.206054688 282.66796875 c 0xb4
 217.206054688 249.75 188.102539062 240.516601562 171.162109375 212.916992188 c 1
 164.315429688 188.840820312 159.763671875 164.524414062 157.338867188 140.084960938 c 0
 160.444335938 131.375976562 163.811523438 126.776367188 163.811523438 117.631835938 c 0
 163.811523438 110.419921875 160.083984375 104.501953125 157.376953125 100.76171875 c 1
 161.87109375 94.3720703125 167.645507812 90.12109375 174.803710938 85.888671875 c 1
 174.91015625 86.3544921875 l 2xac
474.15234375 141.633789062 m 1
 489.423828125 130.095703125 507.880859375 107.426757812 516.767578125 85.271484375 c 0
 517.767578125 85.271484375 517.625976562 85.271484375 518.625976562 85.271484375 c 0
 607.353515625 85.271484375 583.073242188 127.33984375 604.379882812 127.33984375 c 0
 617.319335938 127.33984375 621.706054688 108.270507812 621.706054688 95.451171875 c 0
 621.706054688 50.5126953125 576.7265625 16.6416015625 518.625976562 16.6416015625 c 0x74
 470.330078125 16.6416015625 432.873046875 69.3359375 413.73046875 126.115234375 c 1
 395.2421875 103.862304688 377.815429688 85.3203125 355.97265625 66.78125 c 1
 349.393554688 31.1796875 331.619140625 15.0234375 287.251953125 15.0234375 c 0
 282.631835938 15.0234375 277.87109375 16.998046875 275.84375 17.91796875 c 0
 252.733398438 9.15625 229.427734375 3.697265625 204.734375 3.697265625 c 0
 198.338867188 3.697265625 189.751953125 4.4677734375 185.809570312 4.9931640625 c 0
 170.8125 2.533203125 154.611328125 5.3154296875 136.778320312 5.3154296875 c 0
 104.668945312 5.3154296875 69.2939453125 42.1796875 69.2939453125 74.41796875 c 0
 69.2939453125 91.3935546875 81.08203125 101.375976562 91.9853515625 106.514648438 c 1xac
 92.3720703125 130.412109375 93.88671875 152.27734375 96.302734375 171.78515625 c 1
 93.171875 180.17578125 90.328125 186.487304688 90.328125 195.767578125 c 0
 90.328125 211.875976562 103.407226562 237.03515625 113.9921875 251.282226562 c 1
 121.080078125 272.430664062 129.516601562 291.2265625 138.685546875 307.953125 c 1
 145.844726562 349.120117188 169.887695312 380.305664062 205.84375 388.185546875 c 1
 230.056640625 407.102539062 251.341796875 417.745117188 271.681640625 425.374023438 c 1
 279.194335938 437.994140625 294.861328125 442.849609375 313.139648438 442.849609375 c 0
 345.333984375 442.849609375 376.264648438 429.9296875 380.439453125 402.319335938 c 1
 403.4140625 383.645507812 424.9296875 359.551757812 442.153320312 335.096679688 c 1
 472.064453125 408.889648438 508.470703125 478.609375 523.55078125 483.061523438 c 2
 524.48828125 483.337890625 l 1
 525.46484375 483.302734375 l 2
 544.297851562 482.625976562 574.784179688 464.39453125 574.784179688 430.377929688 c 0
 574.784179688 421.077148438 561.068359375 400.27734375 547.028320312 379.490234375 c 1
 541.602539062 345.278320312 503.840820312 290.36328125 480.393554688 262.384765625 c 1
 471.75390625 239.470703125 464.759765625 213.165039062 464.759765625 186.059570312 c 0
 464.759765625 172.26953125 469.25 154.830078125 474.15234375 141.633789062 c 1
EndSplineSet
Validated: 524321
EndChar

StartChar: beta
Encoding: 946 946 103
Width: 691
VWidth: 0
Flags: W
HStem: -41.7021 81.5742<346.727 450.35> 323.03 60.748<479.2 530.265> 745.59 70.248<375.507 464.231>
VStem: 13.4727 73.4844<-121.328 -40.7597> 24.7988 78.7129<15.3732 129.039> 107.317 60.958<322.963 396.239> 155.857 71.3291<492.354 555.562> 223.813 71.8652<58.9579 90.8328> 523.143 34.6523<555.977 659.638> 604.043 73.4844<155.386 241.215>
LayerCount: 2
Fore
SplineSet
531.026367188 322.70703125 m 1xe1c0
 514.829101562 319.805664062 495.653320312 323.030273438 478.985351562 323.030273438 c 0
 469.8984375 323.030273438 463.31640625 328.616210938 459.178710938 333.497070312 c 1
 376.383789062 326.366210938 345.3671875 288.165039062 334.133789062 278.678710938 c 0
 317.956054688 265.01953125 318.359375 264.057617188 302.623046875 264.057617188 c 0
 291.161132812 264.057617188 282.060546875 282.311523438 282.060546875 293.81640625 c 0
 282.060546875 301.633789062 289.719726562 306.243164062 300.309570312 313.79296875 c 0
 356.858398438 354.10546875 408.602539062 397.744140625 447.846679688 445.099609375 c 1
 457.197265625 475.454101562 481.275390625 501.922851562 492.716796875 512.467773438 c 1
 504.284179688 536.828125 508.985351562 580.145507812 520.842773438 601.795898438 c 1
 522.469726562 614.623046875 523.142578125 624.637695312 523.142578125 636.711914062 c 0
 523.142578125 644.321289062 521.49609375 653.250976562 519.602539062 659.954101562 c 0
 507.424804688 672.53125 490.998046875 693.831054688 480.008789062 717.1328125 c 1
 458.350585938 734.766601562 433.794921875 745.58984375 409.411132812 745.58984375 c 0
 399.973632812 745.58984375 389.067382812 742.708984375 380.669921875 739.181640625 c 1
 349.84375 696.4453125 288.177734375 606.358398438 255.15625 578.1484375 c 1
 245.052734375 556.94921875 236.255859375 536.819335938 227.186523438 514.631835938 c 0xe2c0
 227.444335938 505.065429688 232.577148438 492.545898438 232.577148438 478.1484375 c 0
 232.577148438 447.912109375 201.885742188 407.51171875 182.666992188 393.272460938 c 1
 177.786132812 378.403320312 172.444335938 361.471679688 168.275390625 347.78125 c 0
 168.580078125 338.013671875 175.947265625 323.3359375 175.947265625 306.102539062 c 0
 175.947265625 271.236328125 141.403320312 180.275390625 117.725585938 150.822265625 c 1
 112.11328125 124.034179688 107.532226562 99.951171875 103.51171875 76.4833984375 c 0xecc0
 103.838867188 58.810546875 117.69921875 26.658203125 117.69921875 -0.1064453125 c 0
 117.69921875 -19.3349609375 99.9970703125 -29.4736328125 88.65625 -39.966796875 c 1
 87.486328125 -56.94921875 86.95703125 -69.625 86.95703125 -82.6240234375 c 0
 86.95703125 -120.352539062 61.732421875 -125.837890625 34.03515625 -125.837890625 c 0
 16.3125 -125.837890625 13.47265625 -108.670898438 13.47265625 -92.33203125 c 0xf0c0
 13.47265625 -82.822265625 21.0390625 -34.59375 33.7998046875 29.1298828125 c 1
 28.896484375 39.0537109375 24.798828125 47.904296875 24.798828125 69.197265625 c 0
 24.798828125 81.2724609375 46.9775390625 131.0546875 63.09765625 162.205078125 c 1
 76.2177734375 217.310546875 91.888671875 277.963867188 109.266601562 338.543945312 c 1
 107.111328125 348.639648438 107.317382812 359.528320312 107.317382812 371.66796875 c 0xecc0
 107.317382812 397.223632812 119.17578125 442.1953125 146.837890625 460.346679688 c 1
 150.728515625 472.30078125 154.110351562 482.487304688 157.342773438 492.071289062 c 0
 156.1953125 498.125976562 155.857421875 503.278320312 155.857421875 508.889648438 c 0xe2c0
 155.857421875 530.014648438 165.264648438 548.552734375 180.27734375 556.986328125 c 1
 191.1328125 586.236328125 201.3046875 612.130859375 212.578125 638.776367188 c 0
 221.905273438 660.822265625 267.4609375 748.026367188 341.696289062 785.046875 c 1
 349.6015625 806.88671875 375.48046875 815.837890625 401.321289062 815.837890625 c 0
 431.106445312 815.837890625 478.052734375 791.638671875 494.564453125 764.118164062 c 1
 522.521484375 741.08203125 543.392578125 709.9765625 551.540039062 669.500976562 c 1
 557.059570312 663.260742188 557.794921875 657.163085938 557.794921875 648.038085938 c 2
 557.794921875 647.377929688 l 2
 558.067382812 641.76953125 561.609375 611.298828125 552.84375 602.657226562 c 1
 551.052734375 585.903320312 548.120117188 569.711914062 544.767578125 555.97265625 c 0
 543.724609375 525.95703125 537.895507812 508.223632812 524.944335938 497.859375 c 1
 510.479492188 465.82421875 493.828125 438.955078125 476.997070312 414.522460938 c 1
 478.432617188 404.577148438 484.708984375 392.930664062 488.754882812 383.622070312 c 1
 499.602539062 383.6328125 508.974609375 383.778320312 517.817382812 383.778320312 c 0
 526.686523438 383.778320312 540.587890625 379 548.173828125 375.470703125 c 0
 583.918945312 371.192382812 613.645507812 338.064453125 618.72265625 317.247070312 c 1
 636.134765625 295.709960938 649.094726562 273.462890625 658.002929688 247.782226562 c 1
 671.80078125 238.704101562 677.52734375 222.522460938 677.52734375 204.055664062 c 0
 677.52734375 176.0703125 677.241210938 147.590820312 656.44140625 137.612304688 c 1
 643.006835938 98.759765625 619.86328125 68.5791015625 591.541015625 44.021484375 c 1
 577.310546875 9.9326171875 531.219726562 -12.4375 485.768554688 -13.90625 c 0
 472.2890625 -18.2724609375 457.861328125 -21.74609375 446.959960938 -23.734375 c 1
 435.419921875 -34.49609375 420.436523438 -41.7021484375 404.556640625 -41.7021484375 c 0
 386.846679688 -41.7021484375 378.250976562 -34.7060546875 373.842773438 -26.01953125 c 1
 290.973632812 -20.4140625 223.813476562 1.5068359375 223.813476562 64.6142578125 c 0
 223.813476562 83.19140625 238.84375 91.6484375 254.083007812 91.6484375 c 0
 269.831054688 91.6484375 295.678710938 92.7763671875 295.678710938 77.5576171875 c 0
 295.678710938 65.93359375 344.076171875 39.8720703125 412.647460938 39.8720703125 c 0
 426.192382812 39.8720703125 442.821289062 42.2939453125 454.850585938 45.029296875 c 1
 465.900390625 65.5341796875 490.326171875 69.74609375 518.319335938 71.294921875 c 0
 523.41015625 74.43359375 526.880859375 76.75 531.079101562 79.65234375 c 0
 540.09375 107.528320312 572.384765625 144.610351562 596.803710938 160.973632812 c 1
 601.732421875 175.39453125 604.04296875 187.319335938 604.04296875 201.374023438 c 0
 604.04296875 211.57421875 603.000976562 221.59375 601.5625 230.280273438 c 1
 583.350585938 246.5 559.953125 282.801757812 551.372070312 311.080078125 c 1
 543.362304688 316.502929688 538.29296875 319.250976562 531.026367188 322.70703125 c 1xe1c0
EndSplineSet
Validated: 524321
EndChar

StartChar: Alpha
Encoding: 913 913 104
Width: 691
VWidth: 0
Flags: W
HStem: -41.1992 42.7422<441.732 493.083> -31.3789 40.7715<-12.8525 109.043> -5.60352 45.9785<223.357 283.384>
VStem: 500.146 76.3701<78.4045 125.201 125.454 130.349>
LayerCount: 2
Fore
SplineSet
698.338867188 -47.671875 m 1x50
 672.375976562 -47.671875 l 2
 604.580078125 -45.9765625 565.73828125 -31.3818359375 542.197265625 21.4970703125 c 1
 524.705078125 -15.0439453125 487.618164062 -41.19921875 468.583007812 -41.19921875 c 0
 450.798828125 -41.19921875 441.548828125 -28.712890625 441.548828125 -17.4013671875 c 0
 441.548828125 -7.20703125 445.266601562 1.54296875 457.256835938 1.54296875 c 0x90
 497.836914062 1.54296875 506.268554688 51.54296875 506.268554688 78.060546875 c 0
 506.268554688 85.3271484375 506.981445312 97.1845703125 506.987304688 108.515625 c 2
 506.987304688 108.5234375 l 2
 506.987304688 110.803710938 503.815429688 120.110351562 501.926757812 125.454101562 c 1
 500.146484375 125.454101562 l 1
 500.146484375 130.348632812 l 1
 456.120117188 245.813476562 l 1
 428.010742188 250.174804688 394.216796875 251.658203125 360.176757812 251.658203125 c 0
 330.720703125 251.658203125 306.7109375 250.45703125 284.427734375 247.442382812 c 1
 282.567382812 233.260742188 273.0390625 219.587890625 258.392578125 204.94140625 c 1
 247.65625 176.8515625 233.64453125 140.421875 218.953125 102.854492188 c 1
 219.568359375 61.953125 221.65625 40.375 264.71484375 40.375 c 0
 276.2421875 40.375 283.659179688 31.7138671875 283.659179688 19.8125 c 0
 283.659179688 -1.2578125 259.51171875 -5.603515625 242.0625 -5.603515625 c 0x30
 227.283203125 -5.603515625 191.114257812 -1.4794921875 179.98828125 27.6708984375 c 1
 153.379882812 -18.380859375 133.229492188 -35.375 49.353515625 -33.107421875 c 2
 -8.89453125 -31.4892578125 l 1
 -12.8525390625 -31.37890625 l 1
 -14.3076171875 -27.6962890625 l 2
 -14.37890625 -27.5166015625 -19.748046875 -14.826171875 -19.91015625 -4.353515625 c 0
 -19.984375 0.40625 -18.033203125 9.392578125 -8.7275390625 9.392578125 c 0
 91.7509765625 9.392578125 110.927734375 8.5546875 139.375976562 81.896484375 c 0
 153.016601562 117.0625 167.577148438 153.407226562 182.080078125 189.12890625 c 1
 179.956054688 195.3046875 179.432617188 200.796875 179.432617188 210.227539062 c 0
 179.432617188 233.819335938 192.407226562 256.672851562 214.106445312 267.4921875 c 1
 249.830078125 354.581054688 286.66796875 444.11328125 323.81640625 541.478515625 c 0
 326.129882812 547.541015625 331.265625 556.151367188 335.891601562 562.938476562 c 1
 332.734375 567.446289062 331.232421875 571.32421875 330.641601562 575.75390625 c 0
 327.091796875 602.358398438 362.7734375 621.239257812 386.258789062 623.709960938 c 1
 414.225585938 653.88671875 442.987304688 687.458984375 453.1484375 683.178710938 c 0
 475.7890625 673.64453125 458.044921875 456.501953125 462.318359375 413.375 c 0
 465.80859375 410.916992188 466.263671875 410.362304688 468.243164062 408.137695312 c 0
 495.20703125 377.854492188 517.520507812 345.234375 499.352539062 296.73046875 c 1
 512.08984375 261.165039062 523.962890625 229.114257812 535.962890625 196.848632812 c 1
 564.932617188 192.923828125 576.516601562 162.115234375 576.516601562 137.112304688 c 0
 576.516601562 124.780273438 571.400390625 111.25 571.194335938 99.5498046875 c 0
 574.166015625 91.0283203125 576.883789062 83.072265625 579.456054688 75.3369140625 c 0
 604.1171875 1.1416015625 628.762695312 7.904296875 699.16796875 -1.7509765625 c 0
 722.491210938 -5.005859375 703.873046875 -43.98828125 703.873046875 -43.98828125 c 1
 702.33203125 -47.671875 l 1
 698.338867188 -47.671875 l 1x50
336.287109375 457.448242188 m 0
 300.607421875 393.751953125 293.516601562 375.784179688 325.065429688 314.262695312 c 0
 346.840820312 271.798828125 426.004882812 291.321289062 437.41796875 300.100585938 c 0
 445.951171875 306.6640625 438.483398438 343.038085938 421.877929688 391.153320312 c 1
 397.61328125 399.51953125 386.8515625 432.563476562 399.271484375 455.282226562 c 0
 398.1640625 458.52734375 397.467773438 460.591796875 396.552734375 463.336914062 c 0
 395.309570312 467.064453125 383.135742188 468.942382812 369.884765625 468.942382812 c 0
 358.84375 468.942382812 340.061523438 464.188476562 336.287109375 457.448242188 c 0
EndSplineSet
Validated: 524321
EndChar

StartChar: Beta
Encoding: 914 914 105
Width: 691
VWidth: 0
Flags: W
HStem: -63.3027 71.8662<70.6876 158.516> -29.3252 45.9785<320.432 454.383> 275.157 104.399<280.134 328.207> 308.497 12<410.692 411.942> 579.987 86.4277<90.3483 184.149> 605.875 86.4277<354.155 454.785>
VStem: 163.145 97.7891<60.4217 166.564> 184.172 94.5186<130.701 275.157> 184.172 79.4365<59.3346 175.362 347.933 579.928> 511.008 102.608<460.983 560.819> 536.896 86.4277<99.4049 185.038>
LayerCount: 2
Fore
SplineSet
144.868164062 666.415039062 m 0x8880
 173.561523438 666.415039062 195.395507812 665.560546875 206.092773438 641.703125 c 1
 214.049804688 639.790039062 220.220703125 638.909179688 229.00390625 638.909179688 c 0
 280.413085938 638.909179688 314.171875 660.797851562 357.396484375 670.887695312 c 1
 382.434570312 685.965820312 415.678710938 692.302734375 434.490234375 692.302734375 c 0
 455.447265625 692.302734375 473.395507812 673.470703125 481.301757812 658.112304688 c 1
 490.989257812 653.541992188 497.805664062 649.669921875 504.458007812 645.544921875 c 1
 511.810546875 647.196289062 519.071289062 647.740234375 526.715820312 647.740234375 c 0
 554.182617188 647.740234375 564.484375 601.940429688 578.795898438 578.0078125 c 0
 592.225585938 555.993164062 613.616210938 541.419921875 613.616210938 511.333007812 c 0x04c0
 613.616210938 498.923828125 603.180664062 479.291992188 593.221679688 466.452148438 c 1
 578.942382812 421.822265625 546.368164062 387.696289062 521.646484375 363.518554688 c 1
 523.974609375 352.125 523.0078125 343.634765625 523.0078125 337.85546875 c 0
 523.0078125 330.116210938 520.442382812 319.872070312 517.37109375 313.05859375 c 1
 545.271484375 308.87890625 571.619140625 285.092773438 580.153320312 251.573242188 c 1
 592.055664062 233.521484375 600.559570312 213.909179688 605.200195312 190.798828125 c 1
 615.328125 179.904296875 623.32421875 165.752929688 623.32421875 154.828125 c 0
 623.32421875 131.911132812 612.640625 95.478515625 596.403320312 79.2802734375 c 1
 569.106445312 6.94921875 500.658203125 -29.3251953125 410.219726562 -29.3251953125 c 0x4420
 357.822265625 -29.3251953125 265.236328125 -11.52734375 237.09375 -11.52734375 c 0
 173.236328125 -11.52734375 146.930664062 -63.302734375 115.744140625 -63.302734375 c 0
 86.6416015625 -63.302734375 67.67578125 -55.009765625 67.67578125 -21.70703125 c 0
 67.67578125 -3.5947265625 76.669921875 10.1806640625 96.328125 10.1806640625 c 0
 105.431640625 10.1806640625 108.966796875 8.5634765625 114.125976562 8.5634765625 c 0
 135.719726562 8.5634765625 165.869140625 23.2587890625 184.171875 42.9306640625 c 1
 184.171875 50.669921875 l 1x80a0
 173.821289062 64.61328125 161.923828125 80.8603515625 163.14453125 105.973632812 c 0x82
 163.963867188 122.806640625 174.975585938 150.28125 184.171875 167.373046875 c 1x81
 184.171875 579.987304688 l 1
 133.541992188 579.987304688 l 1
 133.383789062 579.987304688 l 1
 133.2265625 579.995117188 l 2
 100.162109375 581.736328125 85.4736328125 598.109375 85.4736328125 624.819335938 c 0
 85.4736328125 642.259765625 90.34765625 652.43359375 101.1015625 656.455078125 c 1
 112.084960938 669.291992188 130.444335938 666.415039062 144.868164062 666.415039062 c 0x8880
410.692382812 308.497070312 m 1x5220
 410.692382812 313.889648438 l 1
 410.692382812 314.497070312 l 2
 410.692382812 314.991210938 410.685546875 315.626953125 410.692382812 316.372070312 c 2
 410.692382812 320.497070312 l 1
 410.891601562 320.497070312 l 1
 411.44140625 326.2734375 413.458984375 333.8671875 420.772460938 336.524414062 c 1
 420.772460938 337.4921875 l 1
 426.772460938 337.4921875 l 2
 433.515625 337.4921875 450.3828125 343.240234375 465.291015625 357.595703125 c 1
 472.20703125 373.178710938 483.509765625 390.209960938 494.366210938 402.420898438 c 1
 504.471679688 427.47265625 511.0078125 459.106445312 511.0078125 502.543945312 c 0
 511.0078125 535.130859375 501.118164062 556.80859375 487.951171875 571.78515625 c 1
 473.595703125 576.206054688 456.13671875 585.294921875 447.725585938 597.825195312 c 1
 427.49609375 604.928710938 409.657226562 605.875 400.51171875 605.875 c 0
 296.305664062 605.875 290.959960938 594.442382812 265.724609375 565.416015625 c 1
 265.005859375 494.3828125 264.307617188 421.375976562 263.608398438 347.932617188 c 1x54c0
 270.206054688 351.399414062 274.74609375 353.553710938 280.6875 357.515625 c 0
 298.723632812 369.5390625 304.623046875 379.556640625 329.3203125 379.556640625 c 0
 349.390625 379.556640625 356.353515625 366.393554688 356.353515625 348.1875 c 0
 356.353515625 323.938476562 319.92578125 271.676757812 274.811523438 275.157226562 c 1
 270.983398438 259.181640625 278.690429688 194.53125 278.690429688 176.28515625 c 0x25
 278.690429688 156.541992188 273.91796875 140.37109375 261.524414062 130.220703125 c 1
 261.326171875 109.997070312 261.125976562 89.7822265625 260.93359375 70.5654296875 c 1
 312.575195312 50.7685546875 330.145507812 16.6533203125 400.51171875 16.6533203125 c 0
 449.743164062 16.6533203125 536.896484375 103.293945312 536.896484375 153.291015625 c 0
 536.896484375 162.374023438 535.454101562 171.731445312 533.256835938 180.186523438 c 1
 521.374023438 188.991210938 514.244140625 202.958984375 514.244140625 221.377929688 c 0
 514.244140625 262.818359375 426.9375 291.502929688 426.9375 291.502929688 c 1
 420.9375 291.502929688 l 1
 420.9375 292.405273438 l 1
 413.426757812 294.953125 411.420898438 302.411132812 410.88671875 308.497070312 c 1
 410.692382812 308.497070312 l 1x5220
EndSplineSet
Validated: 524321
EndChar

StartChar: Gamma
Encoding: 915 915 106
Width: 691
VWidth: 0
Flags: W
HStem: -51.4756 67.0117<337.947 398.391> -28.8232 62.1582<66.6062 160.047> 601.522 70.248<356.656 427.556> 622.557 75.1016<275.13 341.384 437.997 539.023> 622.557 49.2139<293.691 427.089>
VStem: 167.183 107.947<550.945 612.576> 184.981 115.552<415.467 488.289 489.336 517.007> 188.217 86.9131<79.2671 191.794> 197.925 77.2051<79.2671 184.504> 218.775 81.7578<370.071 427.4> 220.092 91.7676<241.514 302.747> 220.092 55.0381<291.515 404.082> 558.739 67.0117<475.076 602.427>
LayerCount: 2
Fore
SplineSet
89.046875 33.3349609375 m 0x4018
 107.037109375 33.3349609375 136.513671875 36.9462890625 161.208007812 43.107421875 c 1
 170.609375 61.9921875 187.5390625 73.4990234375 205.721679688 79.0146484375 c 1
 200.78125 84.4111328125 197.924804688 89.123046875 197.924804688 95.736328125 c 0x4088
 197.924804688 130.956054688 188.216796875 148.42578125 188.216796875 186.262695312 c 0x4108
 188.216796875 217.510742188 191.895507812 250.53125 220.091796875 259.697265625 c 1x4028
 220.091796875 332.374023438 l 2x4018
 220.091796875 358.83203125 219.580078125 383.879882812 218.775390625 404.266601562 c 1x4048
 202.640625 418.333007812 184.981445312 436.259765625 184.981445312 457.83984375 c 0x4208
 184.981445312 476.348632812 193.77734375 504.000976562 208.03125 517.657226562 c 1
 206.314453125 527.317382812 205.11328125 532.98828125 203.65234375 539.352539062 c 1
 183.938476562 554.362304688 167.182617188 570.462890625 167.182617188 596.009765625 c 0
 167.182617188 601.638671875 168.240234375 607.797851562 169.6171875 612.811523438 c 1
 156.21484375 626.513671875 144.419921875 631.833984375 138.728515625 652.396484375 c 1
 131.611328125 657.557617188 128.350585938 663.624023438 128.350585938 672.2421875 c 0
 128.350585938 726.686523438 220.38671875 697.658203125 257.319335938 697.658203125 c 0x5408
 285.134765625 697.658203125 331.325195312 689.6171875 345.204101562 671.770507812 c 1x0c08
 401.114257812 671.770507812 l 1x2408
 413.23046875 698.977539062 458.98046875 702.512695312 485.45703125 702.512695312 c 0
 513.409179688 702.512695312 573.612304688 691.783203125 581.342773438 660.563476562 c 1
 602.028320312 644.315429688 625.750976562 619.852539062 625.750976562 607.522460938 c 2
 625.750976562 500.734375 l 2
 625.750976562 483.448242188 610.370117188 473.700195312 593.86328125 473.700195312 c 0
 574.905273438 473.700195312 558.739257812 481.516601562 558.739257812 500.734375 c 2
 558.739257812 587.205078125 l 1
 543.767578125 595.208007812 527.229492188 608.010742188 519.07421875 622.556640625 c 1
 497.318359375 622.556640625 l 1x1408
 491.55078125 593.830078125 459.828125 601.522460938 436.916992188 601.522460938 c 0x2408
 407.787109375 601.522460938 369.951171875 609.274414062 355.984375 622.556640625 c 1x0c08
 275.129882812 622.556640625 l 1x1018
 275.129882812 609.173828125 l 1x1408
 290.641601562 577.59375 298.915039062 540.674804688 298.915039062 515.7890625 c 0
 298.915039062 503.388671875 292.282226562 495.149414062 284.123046875 489.048828125 c 1
 294.640625 472.89453125 300.533203125 452.740234375 300.533203125 428.524414062 c 0x1208
 300.533203125 402.890625 290.59765625 378.361328125 275.129882812 367.220703125 c 1
 275.129882812 319.37109375 l 1x1018
 291.796875 303.09765625 311.859375 273.057617188 311.859375 246.060546875 c 0x1028
 311.859375 228.495117188 307.135742188 186.004882812 275.129882812 175.413085938 c 1x1108
 275.129882812 77.8779296875 l 2
 275.129882812 63.568359375 381.479492188 15.5361328125 394.848632812 15.5361328125 c 0
 411.967773438 15.5361328125 402.466796875 -7.9296875 402.466796875 -14.7333984375 c 0
 402.466796875 -33.580078125 381.619140625 -51.4755859375 360.87109375 -51.4755859375 c 0x9018
 341.626953125 -51.4755859375 318.12109375 -20.7333984375 284.825195312 -20.7333984375 c 2
 179.655273438 -20.7333984375 l 2
 149.512695312 -20.7333984375 126.329101562 -28.8232421875 106.844726562 -28.8232421875 c 0
 96.3564453125 -28.8232421875 65.2490234375 -26.787109375 65.2490234375 -0.171875 c 0
 65.2490234375 13.337890625 70.1796875 33.3349609375 89.046875 33.3349609375 c 0x4018
EndSplineSet
Validated: 524321
EndChar

